%TF.GenerationSoftware,KiCad,Pcbnew,8.0.6*%
%TF.CreationDate,2025-01-14T17:09:45+01:00*%
%TF.ProjectId,Nivelador Laser,4e697665-6c61-4646-9f72-204c61736572,rev?*%
%TF.SameCoordinates,Original*%
%TF.FileFunction,Legend,Bot*%
%TF.FilePolarity,Positive*%
%FSLAX46Y46*%
G04 Gerber Fmt 4.6, Leading zero omitted, Abs format (unit mm)*
G04 Created by KiCad (PCBNEW 8.0.6) date 2025-01-14 17:09:45*
%MOMM*%
%LPD*%
G01*
G04 APERTURE LIST*
%ADD10C,0.150000*%
%ADD11C,0.120000*%
G04 APERTURE END LIST*
D10*
X161145819Y-69880094D02*
X161145819Y-69403904D01*
X161145819Y-69403904D02*
X160145819Y-69403904D01*
X161145819Y-70641999D02*
X160622009Y-70641999D01*
X160622009Y-70641999D02*
X160526771Y-70594380D01*
X160526771Y-70594380D02*
X160479152Y-70499142D01*
X160479152Y-70499142D02*
X160479152Y-70308666D01*
X160479152Y-70308666D02*
X160526771Y-70213428D01*
X161098200Y-70641999D02*
X161145819Y-70546761D01*
X161145819Y-70546761D02*
X161145819Y-70308666D01*
X161145819Y-70308666D02*
X161098200Y-70213428D01*
X161098200Y-70213428D02*
X161002961Y-70165809D01*
X161002961Y-70165809D02*
X160907723Y-70165809D01*
X160907723Y-70165809D02*
X160812485Y-70213428D01*
X160812485Y-70213428D02*
X160764866Y-70308666D01*
X160764866Y-70308666D02*
X160764866Y-70546761D01*
X160764866Y-70546761D02*
X160717247Y-70641999D01*
X161098200Y-71070571D02*
X161145819Y-71165809D01*
X161145819Y-71165809D02*
X161145819Y-71356285D01*
X161145819Y-71356285D02*
X161098200Y-71451523D01*
X161098200Y-71451523D02*
X161002961Y-71499142D01*
X161002961Y-71499142D02*
X160955342Y-71499142D01*
X160955342Y-71499142D02*
X160860104Y-71451523D01*
X160860104Y-71451523D02*
X160812485Y-71356285D01*
X160812485Y-71356285D02*
X160812485Y-71213428D01*
X160812485Y-71213428D02*
X160764866Y-71118190D01*
X160764866Y-71118190D02*
X160669628Y-71070571D01*
X160669628Y-71070571D02*
X160622009Y-71070571D01*
X160622009Y-71070571D02*
X160526771Y-71118190D01*
X160526771Y-71118190D02*
X160479152Y-71213428D01*
X160479152Y-71213428D02*
X160479152Y-71356285D01*
X160479152Y-71356285D02*
X160526771Y-71451523D01*
X161098200Y-72308666D02*
X161145819Y-72213428D01*
X161145819Y-72213428D02*
X161145819Y-72022952D01*
X161145819Y-72022952D02*
X161098200Y-71927714D01*
X161098200Y-71927714D02*
X161002961Y-71880095D01*
X161002961Y-71880095D02*
X160622009Y-71880095D01*
X160622009Y-71880095D02*
X160526771Y-71927714D01*
X160526771Y-71927714D02*
X160479152Y-72022952D01*
X160479152Y-72022952D02*
X160479152Y-72213428D01*
X160479152Y-72213428D02*
X160526771Y-72308666D01*
X160526771Y-72308666D02*
X160622009Y-72356285D01*
X160622009Y-72356285D02*
X160717247Y-72356285D01*
X160717247Y-72356285D02*
X160812485Y-71880095D01*
X161145819Y-72784857D02*
X160479152Y-72784857D01*
X160669628Y-72784857D02*
X160574390Y-72832476D01*
X160574390Y-72832476D02*
X160526771Y-72880095D01*
X160526771Y-72880095D02*
X160479152Y-72975333D01*
X160479152Y-72975333D02*
X160479152Y-73070571D01*
X161145819Y-73927714D02*
X161145819Y-73356286D01*
X161145819Y-73642000D02*
X160145819Y-73642000D01*
X160145819Y-73642000D02*
X160288676Y-73546762D01*
X160288676Y-73546762D02*
X160383914Y-73451524D01*
X160383914Y-73451524D02*
X160431533Y-73356286D01*
X169068523Y-99276819D02*
X169068523Y-100086342D01*
X169068523Y-100086342D02*
X169020904Y-100181580D01*
X169020904Y-100181580D02*
X168973285Y-100229200D01*
X168973285Y-100229200D02*
X168878047Y-100276819D01*
X168878047Y-100276819D02*
X168687571Y-100276819D01*
X168687571Y-100276819D02*
X168592333Y-100229200D01*
X168592333Y-100229200D02*
X168544714Y-100181580D01*
X168544714Y-100181580D02*
X168497095Y-100086342D01*
X168497095Y-100086342D02*
X168497095Y-99276819D01*
X168020904Y-100276819D02*
X168020904Y-99276819D01*
X168020904Y-99276819D02*
X167449476Y-100276819D01*
X167449476Y-100276819D02*
X167449476Y-99276819D01*
X166782809Y-99276819D02*
X166592333Y-99276819D01*
X166592333Y-99276819D02*
X166497095Y-99324438D01*
X166497095Y-99324438D02*
X166401857Y-99419676D01*
X166401857Y-99419676D02*
X166354238Y-99610152D01*
X166354238Y-99610152D02*
X166354238Y-99943485D01*
X166354238Y-99943485D02*
X166401857Y-100133961D01*
X166401857Y-100133961D02*
X166497095Y-100229200D01*
X166497095Y-100229200D02*
X166592333Y-100276819D01*
X166592333Y-100276819D02*
X166782809Y-100276819D01*
X166782809Y-100276819D02*
X166878047Y-100229200D01*
X166878047Y-100229200D02*
X166973285Y-100133961D01*
X166973285Y-100133961D02*
X167020904Y-99943485D01*
X167020904Y-99943485D02*
X167020904Y-99610152D01*
X167020904Y-99610152D02*
X166973285Y-99419676D01*
X166973285Y-99419676D02*
X166878047Y-99324438D01*
X166878047Y-99324438D02*
X166782809Y-99276819D01*
X165401857Y-100276819D02*
X165973285Y-100276819D01*
X165687571Y-100276819D02*
X165687571Y-99276819D01*
X165687571Y-99276819D02*
X165782809Y-99419676D01*
X165782809Y-99419676D02*
X165878047Y-99514914D01*
X165878047Y-99514914D02*
X165973285Y-99562533D01*
D11*
%TO.C,Laser1*%
X174381000Y-68182000D02*
X164251000Y-68182000D01*
X174381000Y-70502000D02*
X164251000Y-70502000D01*
X174381000Y-72782000D02*
X164251000Y-72782000D01*
X174381000Y-75102000D02*
X164251000Y-75102000D01*
%TO.C,UNO1*%
X131569000Y-54612000D02*
X131569000Y-66292000D01*
X131569000Y-66292000D02*
X137919000Y-66292000D01*
X136019000Y-86362000D02*
X136019000Y-95502000D01*
X136019000Y-95502000D02*
X137919000Y-95502000D01*
X137919000Y-45082000D02*
X137919000Y-54612000D01*
X137919000Y-54612000D02*
X131569000Y-54612000D01*
X137919000Y-66292000D02*
X137919000Y-86362000D01*
X137919000Y-86362000D02*
X136019000Y-86362000D01*
X137919000Y-95502000D02*
X137919000Y-98682000D01*
X137919000Y-98682000D02*
X204219000Y-98682000D01*
X202569000Y-45082000D02*
X137919000Y-45082000D01*
X204219000Y-46732000D02*
X202569000Y-45082000D01*
X204219000Y-58162000D02*
X204219000Y-46732000D01*
X204219000Y-96012000D02*
X206759000Y-93472000D01*
X204219000Y-98682000D02*
X204219000Y-96012000D01*
X206759000Y-60702000D02*
X204219000Y-58162000D01*
X206759000Y-93472000D02*
X206759000Y-60702000D01*
%TD*%
M02*
