%TF.GenerationSoftware,KiCad,Pcbnew,8.0.6*%
%TF.CreationDate,2025-01-14T17:09:45+01:00*%
%TF.ProjectId,Nivelador Laser,4e697665-6c61-4646-9f72-204c61736572,rev?*%
%TF.SameCoordinates,Original*%
%TF.FileFunction,Soldermask,Bot*%
%TF.FilePolarity,Negative*%
%FSLAX46Y46*%
G04 Gerber Fmt 4.6, Leading zero omitted, Abs format (unit mm)*
G04 Created by KiCad (PCBNEW 8.0.6) date 2025-01-14 17:09:45*
%MOMM*%
%LPD*%
G01*
G04 APERTURE LIST*
G04 Aperture macros list*
%AMRoundRect*
0 Rectangle with rounded corners*
0 $1 Rounding radius*
0 $2 $3 $4 $5 $6 $7 $8 $9 X,Y pos of 4 corners*
0 Add a 4 corners polygon primitive as box body*
4,1,4,$2,$3,$4,$5,$6,$7,$8,$9,$2,$3,0*
0 Add four circle primitives for the rounded corners*
1,1,$1+$1,$2,$3*
1,1,$1+$1,$4,$5*
1,1,$1+$1,$6,$7*
1,1,$1+$1,$8,$9*
0 Add four rect primitives between the rounded corners*
20,1,$1+$1,$2,$3,$4,$5,0*
20,1,$1+$1,$4,$5,$6,$7,0*
20,1,$1+$1,$6,$7,$8,$9,0*
20,1,$1+$1,$8,$9,$2,$3,0*%
G04 Aperture macros list end*
%ADD10R,1.700000X1.700000*%
%ADD11O,1.700000X1.700000*%
%ADD12C,2.600000*%
%ADD13RoundRect,0.250001X-0.799999X0.799999X-0.799999X-0.799999X0.799999X-0.799999X0.799999X0.799999X0*%
%ADD14C,2.100000*%
%ADD15R,1.600000X1.600000*%
%ADD16O,1.600000X1.600000*%
G04 APERTURE END LIST*
D10*
%TO.C,Servo2*%
X175895000Y-54864000D03*
D11*
X175895000Y-57404000D03*
X175895000Y-59944000D03*
%TD*%
D10*
%TO.C,IMU1*%
X187223000Y-67574000D03*
D11*
X187223000Y-70114000D03*
X187223000Y-72654000D03*
X187223000Y-75194000D03*
%TD*%
D10*
%TO.C,Servo1*%
X176149000Y-83693000D03*
D11*
X176149000Y-86233000D03*
X176149000Y-88773000D03*
%TD*%
D12*
%TO.C,Laser1*%
X175541000Y-69342000D03*
X175541000Y-73942000D03*
D13*
X162941000Y-69342000D03*
D14*
X162941000Y-73942000D03*
%TD*%
D15*
%TO.C,UNO1*%
X165989000Y-96012000D03*
D16*
X168529000Y-96012000D03*
X171069000Y-96012000D03*
X173609000Y-96012000D03*
X176149000Y-96012000D03*
X178689000Y-96012000D03*
X181229000Y-96012000D03*
X183769000Y-96012000D03*
X188849000Y-96012000D03*
X191389000Y-96012000D03*
X193929000Y-96012000D03*
X196469000Y-96012000D03*
X199009000Y-96012000D03*
X201549000Y-96012000D03*
X201549000Y-47752000D03*
X199009000Y-47752000D03*
X196469000Y-47752000D03*
X193929000Y-47752000D03*
X191389000Y-47752000D03*
X188849000Y-47752000D03*
X186309000Y-47752000D03*
X183769000Y-47752000D03*
X179709000Y-47752000D03*
X177169000Y-47752000D03*
X174629000Y-47752000D03*
X172089000Y-47752000D03*
X169549000Y-47752000D03*
X167009000Y-47752000D03*
X164469000Y-47752000D03*
X161929000Y-47752000D03*
X159389000Y-47752000D03*
X156849000Y-47752000D03*
%TD*%
M02*
