%TF.GenerationSoftware,KiCad,Pcbnew,8.0.6*%
%TF.CreationDate,2025-01-14T17:09:45+01:00*%
%TF.ProjectId,Nivelador Laser,4e697665-6c61-4646-9f72-204c61736572,rev?*%
%TF.SameCoordinates,Original*%
%TF.FileFunction,Copper,L2,Bot*%
%TF.FilePolarity,Positive*%
%FSLAX46Y46*%
G04 Gerber Fmt 4.6, Leading zero omitted, Abs format (unit mm)*
G04 Created by KiCad (PCBNEW 8.0.6) date 2025-01-14 17:09:45*
%MOMM*%
%LPD*%
G01*
G04 APERTURE LIST*
G04 Aperture macros list*
%AMRoundRect*
0 Rectangle with rounded corners*
0 $1 Rounding radius*
0 $2 $3 $4 $5 $6 $7 $8 $9 X,Y pos of 4 corners*
0 Add a 4 corners polygon primitive as box body*
4,1,4,$2,$3,$4,$5,$6,$7,$8,$9,$2,$3,0*
0 Add four circle primitives for the rounded corners*
1,1,$1+$1,$2,$3*
1,1,$1+$1,$4,$5*
1,1,$1+$1,$6,$7*
1,1,$1+$1,$8,$9*
0 Add four rect primitives between the rounded corners*
20,1,$1+$1,$2,$3,$4,$5,0*
20,1,$1+$1,$4,$5,$6,$7,0*
20,1,$1+$1,$6,$7,$8,$9,0*
20,1,$1+$1,$8,$9,$2,$3,0*%
G04 Aperture macros list end*
%TA.AperFunction,ComponentPad*%
%ADD10R,1.700000X1.700000*%
%TD*%
%TA.AperFunction,ComponentPad*%
%ADD11O,1.700000X1.700000*%
%TD*%
%TA.AperFunction,ComponentPad*%
%ADD12RoundRect,0.250001X-0.799999X0.799999X-0.799999X-0.799999X0.799999X-0.799999X0.799999X0.799999X0*%
%TD*%
%TA.AperFunction,ComponentPad*%
%ADD13C,2.100000*%
%TD*%
%TA.AperFunction,ComponentPad*%
%ADD14R,1.600000X1.600000*%
%TD*%
%TA.AperFunction,ComponentPad*%
%ADD15O,1.600000X1.600000*%
%TD*%
G04 APERTURE END LIST*
D10*
%TO.P,Servo2,1,PWM*%
%TO.N,/SV2*%
X175895000Y-54864000D03*
D11*
%TO.P,Servo2,2,+*%
%TO.N,+5V*%
X175895000Y-57404000D03*
%TO.P,Servo2,3,-*%
%TO.N,GND*%
X175895000Y-59944000D03*
%TD*%
D10*
%TO.P,IMU1,1,Pin_1*%
%TO.N,+5V*%
X187223000Y-67574000D03*
D11*
%TO.P,IMU1,2,Pin_2*%
%TO.N,GND*%
X187223000Y-70114000D03*
%TO.P,IMU1,3,Pin_3*%
%TO.N,/IMU_SCL*%
X187223000Y-72654000D03*
%TO.P,IMU1,4,Pin_4*%
%TO.N,/IMU_SDA*%
X187223000Y-75194000D03*
%TD*%
D10*
%TO.P,Servo1,1,PWM*%
%TO.N,/SV1*%
X176149000Y-83693000D03*
D11*
%TO.P,Servo1,2,+*%
%TO.N,+5V*%
X176149000Y-86233000D03*
%TO.P,Servo1,3,-*%
%TO.N,GND*%
X176149000Y-88773000D03*
%TD*%
D12*
%TO.P,Laser1,1,Pin_1*%
%TO.N,/LSR*%
X162941000Y-69342000D03*
D13*
%TO.P,Laser1,2,Pin_2*%
%TO.N,GND*%
X162941000Y-73942000D03*
%TD*%
D14*
%TO.P,UNO1,1,NC*%
%TO.N,unconnected-(UNO1-NC-Pad1)*%
X165989000Y-96012000D03*
D15*
%TO.P,UNO1,2,IOREF*%
%TO.N,unconnected-(UNO1-IOREF-Pad2)*%
X168529000Y-96012000D03*
%TO.P,UNO1,3,~{RESET}*%
%TO.N,unconnected-(UNO1-~{RESET}-Pad3)*%
X171069000Y-96012000D03*
%TO.P,UNO1,4,3V3*%
%TO.N,unconnected-(UNO1-3V3-Pad4)*%
X173609000Y-96012000D03*
%TO.P,UNO1,5,+5V*%
%TO.N,+5V*%
X176149000Y-96012000D03*
%TO.P,UNO1,6,GND*%
%TO.N,GND*%
X178689000Y-96012000D03*
%TO.P,UNO1,7,GND*%
X181229000Y-96012000D03*
%TO.P,UNO1,8,VIN*%
%TO.N,unconnected-(UNO1-VIN-Pad8)*%
X183769000Y-96012000D03*
%TO.P,UNO1,9,A0*%
%TO.N,unconnected-(UNO1-A0-Pad9)*%
X188849000Y-96012000D03*
%TO.P,UNO1,10,A1*%
%TO.N,unconnected-(UNO1-A1-Pad10)*%
X191389000Y-96012000D03*
%TO.P,UNO1,11,A2*%
%TO.N,unconnected-(UNO1-A2-Pad11)*%
X193929000Y-96012000D03*
%TO.P,UNO1,12,A3*%
%TO.N,unconnected-(UNO1-A3-Pad12)*%
X196469000Y-96012000D03*
%TO.P,UNO1,13,SDA/A4*%
%TO.N,/IMU_SDA*%
X199009000Y-96012000D03*
%TO.P,UNO1,14,SCL/A5*%
%TO.N,/IMU_SCL*%
X201549000Y-96012000D03*
%TO.P,UNO1,15,D0/RX*%
%TO.N,unconnected-(UNO1-D0{slash}RX-Pad15)*%
X201549000Y-47752000D03*
%TO.P,UNO1,16,D1/TX*%
%TO.N,unconnected-(UNO1-D1{slash}TX-Pad16)*%
X199009000Y-47752000D03*
%TO.P,UNO1,17,D2*%
%TO.N,unconnected-(UNO1-D2-Pad17)*%
X196469000Y-47752000D03*
%TO.P,UNO1,18,D3*%
%TO.N,unconnected-(UNO1-D3-Pad18)*%
X193929000Y-47752000D03*
%TO.P,UNO1,19,D4*%
%TO.N,unconnected-(UNO1-D4-Pad19)*%
X191389000Y-47752000D03*
%TO.P,UNO1,20,D5*%
%TO.N,/SV1*%
X188849000Y-47752000D03*
%TO.P,UNO1,21,D6*%
%TO.N,/SV2*%
X186309000Y-47752000D03*
%TO.P,UNO1,22,D7*%
%TO.N,/LSR*%
X183769000Y-47752000D03*
%TO.P,UNO1,23,D8*%
%TO.N,unconnected-(UNO1-D8-Pad23)*%
X179709000Y-47752000D03*
%TO.P,UNO1,24,D9*%
%TO.N,unconnected-(UNO1-D9-Pad24)*%
X177169000Y-47752000D03*
%TO.P,UNO1,25,D10*%
%TO.N,unconnected-(UNO1-D10-Pad25)*%
X174629000Y-47752000D03*
%TO.P,UNO1,26,D11*%
%TO.N,unconnected-(UNO1-D11-Pad26)*%
X172089000Y-47752000D03*
%TO.P,UNO1,27,D12*%
%TO.N,unconnected-(UNO1-D12-Pad27)*%
X169549000Y-47752000D03*
%TO.P,UNO1,28,D13*%
%TO.N,unconnected-(UNO1-D13-Pad28)*%
X167009000Y-47752000D03*
%TO.P,UNO1,29,GND*%
%TO.N,GND*%
X164469000Y-47752000D03*
%TO.P,UNO1,30,AREF*%
%TO.N,unconnected-(UNO1-AREF-Pad30)*%
X161929000Y-47752000D03*
%TO.P,UNO1,31,SDA/A4*%
%TO.N,unconnected-(UNO1-SDA{slash}A4-Pad31)*%
X159389000Y-47752000D03*
%TO.P,UNO1,32,SCL/A5*%
%TO.N,unconnected-(UNO1-SCL{slash}A5-Pad32)*%
X156849000Y-47752000D03*
%TD*%
%TA.AperFunction,Conductor*%
%TO.N,GND*%
G36*
X180763075Y-95819007D02*
G01*
X180729000Y-95946174D01*
X180729000Y-96077826D01*
X180763075Y-96204993D01*
X180795988Y-96262000D01*
X179122012Y-96262000D01*
X179154925Y-96204993D01*
X179189000Y-96077826D01*
X179189000Y-95946174D01*
X179154925Y-95819007D01*
X179122012Y-95762000D01*
X180795988Y-95762000D01*
X180763075Y-95819007D01*
G37*
%TD.AperFunction*%
%TA.AperFunction,Conductor*%
G36*
X206706539Y-44208185D02*
G01*
X206752294Y-44260989D01*
X206763500Y-44312500D01*
X206763500Y-100975500D01*
X206743815Y-101042539D01*
X206691011Y-101088294D01*
X206639500Y-101099500D01*
X153786500Y-101099500D01*
X153719461Y-101079815D01*
X153673706Y-101027011D01*
X153662500Y-100975500D01*
X153662500Y-95164135D01*
X164688500Y-95164135D01*
X164688500Y-96859870D01*
X164688501Y-96859876D01*
X164694908Y-96919483D01*
X164745202Y-97054328D01*
X164745206Y-97054335D01*
X164831452Y-97169544D01*
X164831455Y-97169547D01*
X164946664Y-97255793D01*
X164946671Y-97255797D01*
X165081517Y-97306091D01*
X165081516Y-97306091D01*
X165088444Y-97306835D01*
X165141127Y-97312500D01*
X166836872Y-97312499D01*
X166896483Y-97306091D01*
X167031331Y-97255796D01*
X167146546Y-97169546D01*
X167232796Y-97054331D01*
X167283091Y-96919483D01*
X167286862Y-96884401D01*
X167313599Y-96819855D01*
X167370990Y-96780006D01*
X167440816Y-96777511D01*
X167500905Y-96813163D01*
X167511726Y-96826536D01*
X167528956Y-96851143D01*
X167689858Y-97012045D01*
X167689861Y-97012047D01*
X167876266Y-97142568D01*
X168082504Y-97238739D01*
X168302308Y-97297635D01*
X168464230Y-97311801D01*
X168528998Y-97317468D01*
X168529000Y-97317468D01*
X168529002Y-97317468D01*
X168585807Y-97312498D01*
X168755692Y-97297635D01*
X168975496Y-97238739D01*
X169181734Y-97142568D01*
X169368139Y-97012047D01*
X169529047Y-96851139D01*
X169659568Y-96664734D01*
X169686618Y-96606724D01*
X169732790Y-96554285D01*
X169799983Y-96535133D01*
X169866865Y-96555348D01*
X169911382Y-96606725D01*
X169938429Y-96664728D01*
X169938432Y-96664734D01*
X170068954Y-96851141D01*
X170229858Y-97012045D01*
X170229861Y-97012047D01*
X170416266Y-97142568D01*
X170622504Y-97238739D01*
X170842308Y-97297635D01*
X171004230Y-97311801D01*
X171068998Y-97317468D01*
X171069000Y-97317468D01*
X171069002Y-97317468D01*
X171125807Y-97312498D01*
X171295692Y-97297635D01*
X171515496Y-97238739D01*
X171721734Y-97142568D01*
X171908139Y-97012047D01*
X172069047Y-96851139D01*
X172199568Y-96664734D01*
X172226618Y-96606724D01*
X172272790Y-96554285D01*
X172339983Y-96535133D01*
X172406865Y-96555348D01*
X172451382Y-96606725D01*
X172478429Y-96664728D01*
X172478432Y-96664734D01*
X172608954Y-96851141D01*
X172769858Y-97012045D01*
X172769861Y-97012047D01*
X172956266Y-97142568D01*
X173162504Y-97238739D01*
X173382308Y-97297635D01*
X173544230Y-97311801D01*
X173608998Y-97317468D01*
X173609000Y-97317468D01*
X173609002Y-97317468D01*
X173665807Y-97312498D01*
X173835692Y-97297635D01*
X174055496Y-97238739D01*
X174261734Y-97142568D01*
X174448139Y-97012047D01*
X174609047Y-96851139D01*
X174739568Y-96664734D01*
X174766618Y-96606724D01*
X174812790Y-96554285D01*
X174879983Y-96535133D01*
X174946865Y-96555348D01*
X174991382Y-96606725D01*
X175018429Y-96664728D01*
X175018432Y-96664734D01*
X175148954Y-96851141D01*
X175309858Y-97012045D01*
X175309861Y-97012047D01*
X175496266Y-97142568D01*
X175702504Y-97238739D01*
X175922308Y-97297635D01*
X176084230Y-97311801D01*
X176148998Y-97317468D01*
X176149000Y-97317468D01*
X176149002Y-97317468D01*
X176205807Y-97312498D01*
X176375692Y-97297635D01*
X176595496Y-97238739D01*
X176801734Y-97142568D01*
X176988139Y-97012047D01*
X177149047Y-96851139D01*
X177279568Y-96664734D01*
X177306895Y-96606129D01*
X177353064Y-96553695D01*
X177420257Y-96534542D01*
X177487139Y-96554757D01*
X177531657Y-96606133D01*
X177558865Y-96664482D01*
X177689342Y-96850820D01*
X177850179Y-97011657D01*
X178036517Y-97142134D01*
X178242673Y-97238265D01*
X178242682Y-97238269D01*
X178438999Y-97290872D01*
X178439000Y-97290871D01*
X178439000Y-96445012D01*
X178496007Y-96477925D01*
X178623174Y-96512000D01*
X178754826Y-96512000D01*
X178881993Y-96477925D01*
X178939000Y-96445012D01*
X178939000Y-97290872D01*
X179135317Y-97238269D01*
X179135326Y-97238265D01*
X179341482Y-97142134D01*
X179527820Y-97011657D01*
X179688657Y-96850820D01*
X179819134Y-96664481D01*
X179819135Y-96664479D01*
X179846618Y-96605543D01*
X179892790Y-96553103D01*
X179959983Y-96533951D01*
X180026864Y-96554166D01*
X180071382Y-96605543D01*
X180098864Y-96664479D01*
X180098865Y-96664481D01*
X180229342Y-96850820D01*
X180390179Y-97011657D01*
X180576517Y-97142134D01*
X180782673Y-97238265D01*
X180782682Y-97238269D01*
X180978999Y-97290872D01*
X180979000Y-97290871D01*
X180979000Y-96445012D01*
X181036007Y-96477925D01*
X181163174Y-96512000D01*
X181294826Y-96512000D01*
X181421993Y-96477925D01*
X181479000Y-96445012D01*
X181479000Y-97290872D01*
X181675317Y-97238269D01*
X181675326Y-97238265D01*
X181881482Y-97142134D01*
X182067820Y-97011657D01*
X182228657Y-96850820D01*
X182359132Y-96664484D01*
X182386341Y-96606134D01*
X182432513Y-96553695D01*
X182499707Y-96534542D01*
X182566588Y-96554757D01*
X182611106Y-96606133D01*
X182638431Y-96664732D01*
X182638432Y-96664734D01*
X182768954Y-96851141D01*
X182929858Y-97012045D01*
X182929861Y-97012047D01*
X183116266Y-97142568D01*
X183322504Y-97238739D01*
X183542308Y-97297635D01*
X183704230Y-97311801D01*
X183768998Y-97317468D01*
X183769000Y-97317468D01*
X183769002Y-97317468D01*
X183825807Y-97312498D01*
X183995692Y-97297635D01*
X184215496Y-97238739D01*
X184421734Y-97142568D01*
X184608139Y-97012047D01*
X184769047Y-96851139D01*
X184899568Y-96664734D01*
X184995739Y-96458496D01*
X185054635Y-96238692D01*
X185074468Y-96012000D01*
X185074468Y-96011998D01*
X187543532Y-96011998D01*
X187543532Y-96012001D01*
X187563364Y-96238686D01*
X187563366Y-96238697D01*
X187622258Y-96458488D01*
X187622261Y-96458497D01*
X187718431Y-96664732D01*
X187718432Y-96664734D01*
X187848954Y-96851141D01*
X188009858Y-97012045D01*
X188009861Y-97012047D01*
X188196266Y-97142568D01*
X188402504Y-97238739D01*
X188622308Y-97297635D01*
X188784230Y-97311801D01*
X188848998Y-97317468D01*
X188849000Y-97317468D01*
X188849002Y-97317468D01*
X188905807Y-97312498D01*
X189075692Y-97297635D01*
X189295496Y-97238739D01*
X189501734Y-97142568D01*
X189688139Y-97012047D01*
X189849047Y-96851139D01*
X189979568Y-96664734D01*
X190006618Y-96606724D01*
X190052790Y-96554285D01*
X190119983Y-96535133D01*
X190186865Y-96555348D01*
X190231382Y-96606725D01*
X190258429Y-96664728D01*
X190258432Y-96664734D01*
X190388954Y-96851141D01*
X190549858Y-97012045D01*
X190549861Y-97012047D01*
X190736266Y-97142568D01*
X190942504Y-97238739D01*
X191162308Y-97297635D01*
X191324230Y-97311801D01*
X191388998Y-97317468D01*
X191389000Y-97317468D01*
X191389002Y-97317468D01*
X191445807Y-97312498D01*
X191615692Y-97297635D01*
X191835496Y-97238739D01*
X192041734Y-97142568D01*
X192228139Y-97012047D01*
X192389047Y-96851139D01*
X192519568Y-96664734D01*
X192546618Y-96606724D01*
X192592790Y-96554285D01*
X192659983Y-96535133D01*
X192726865Y-96555348D01*
X192771382Y-96606725D01*
X192798429Y-96664728D01*
X192798432Y-96664734D01*
X192928954Y-96851141D01*
X193089858Y-97012045D01*
X193089861Y-97012047D01*
X193276266Y-97142568D01*
X193482504Y-97238739D01*
X193702308Y-97297635D01*
X193864230Y-97311801D01*
X193928998Y-97317468D01*
X193929000Y-97317468D01*
X193929002Y-97317468D01*
X193985807Y-97312498D01*
X194155692Y-97297635D01*
X194375496Y-97238739D01*
X194581734Y-97142568D01*
X194768139Y-97012047D01*
X194929047Y-96851139D01*
X195059568Y-96664734D01*
X195086618Y-96606724D01*
X195132790Y-96554285D01*
X195199983Y-96535133D01*
X195266865Y-96555348D01*
X195311382Y-96606725D01*
X195338429Y-96664728D01*
X195338432Y-96664734D01*
X195468954Y-96851141D01*
X195629858Y-97012045D01*
X195629861Y-97012047D01*
X195816266Y-97142568D01*
X196022504Y-97238739D01*
X196242308Y-97297635D01*
X196404230Y-97311801D01*
X196468998Y-97317468D01*
X196469000Y-97317468D01*
X196469002Y-97317468D01*
X196525807Y-97312498D01*
X196695692Y-97297635D01*
X196915496Y-97238739D01*
X197121734Y-97142568D01*
X197308139Y-97012047D01*
X197469047Y-96851139D01*
X197599568Y-96664734D01*
X197626618Y-96606724D01*
X197672790Y-96554285D01*
X197739983Y-96535133D01*
X197806865Y-96555348D01*
X197851382Y-96606725D01*
X197878429Y-96664728D01*
X197878432Y-96664734D01*
X198008954Y-96851141D01*
X198169858Y-97012045D01*
X198169861Y-97012047D01*
X198356266Y-97142568D01*
X198562504Y-97238739D01*
X198782308Y-97297635D01*
X198944230Y-97311801D01*
X199008998Y-97317468D01*
X199009000Y-97317468D01*
X199009002Y-97317468D01*
X199065807Y-97312498D01*
X199235692Y-97297635D01*
X199455496Y-97238739D01*
X199661734Y-97142568D01*
X199848139Y-97012047D01*
X200009047Y-96851139D01*
X200139568Y-96664734D01*
X200166618Y-96606724D01*
X200212790Y-96554285D01*
X200279983Y-96535133D01*
X200346865Y-96555348D01*
X200391382Y-96606725D01*
X200418429Y-96664728D01*
X200418432Y-96664734D01*
X200548954Y-96851141D01*
X200709858Y-97012045D01*
X200709861Y-97012047D01*
X200896266Y-97142568D01*
X201102504Y-97238739D01*
X201322308Y-97297635D01*
X201484230Y-97311801D01*
X201548998Y-97317468D01*
X201549000Y-97317468D01*
X201549002Y-97317468D01*
X201605807Y-97312498D01*
X201775692Y-97297635D01*
X201995496Y-97238739D01*
X202201734Y-97142568D01*
X202388139Y-97012047D01*
X202549047Y-96851139D01*
X202679568Y-96664734D01*
X202775739Y-96458496D01*
X202834635Y-96238692D01*
X202854468Y-96012000D01*
X202834635Y-95785308D01*
X202775739Y-95565504D01*
X202679568Y-95359266D01*
X202549047Y-95172861D01*
X202549045Y-95172858D01*
X202388141Y-95011954D01*
X202201734Y-94881432D01*
X202201732Y-94881431D01*
X201995497Y-94785261D01*
X201995488Y-94785258D01*
X201775697Y-94726366D01*
X201775693Y-94726365D01*
X201775692Y-94726365D01*
X201775691Y-94726364D01*
X201775686Y-94726364D01*
X201549002Y-94706532D01*
X201548998Y-94706532D01*
X201322313Y-94726364D01*
X201322302Y-94726366D01*
X201102511Y-94785258D01*
X201102502Y-94785261D01*
X200896267Y-94881431D01*
X200896265Y-94881432D01*
X200709858Y-95011954D01*
X200548954Y-95172858D01*
X200418432Y-95359265D01*
X200418431Y-95359267D01*
X200391382Y-95417275D01*
X200345209Y-95469714D01*
X200278016Y-95488866D01*
X200211135Y-95468650D01*
X200166618Y-95417275D01*
X200139686Y-95359520D01*
X200139568Y-95359266D01*
X200009047Y-95172861D01*
X200009045Y-95172858D01*
X199848141Y-95011954D01*
X199661734Y-94881432D01*
X199661732Y-94881431D01*
X199455497Y-94785261D01*
X199455488Y-94785258D01*
X199235697Y-94726366D01*
X199235693Y-94726365D01*
X199235692Y-94726365D01*
X199235691Y-94726364D01*
X199235686Y-94726364D01*
X199009002Y-94706532D01*
X199008998Y-94706532D01*
X198782313Y-94726364D01*
X198782302Y-94726366D01*
X198562511Y-94785258D01*
X198562502Y-94785261D01*
X198356267Y-94881431D01*
X198356265Y-94881432D01*
X198169858Y-95011954D01*
X198008954Y-95172858D01*
X197878432Y-95359265D01*
X197878431Y-95359267D01*
X197851382Y-95417275D01*
X197805209Y-95469714D01*
X197738016Y-95488866D01*
X197671135Y-95468650D01*
X197626618Y-95417275D01*
X197599686Y-95359520D01*
X197599568Y-95359266D01*
X197469047Y-95172861D01*
X197469045Y-95172858D01*
X197308141Y-95011954D01*
X197121734Y-94881432D01*
X197121732Y-94881431D01*
X196915497Y-94785261D01*
X196915488Y-94785258D01*
X196695697Y-94726366D01*
X196695693Y-94726365D01*
X196695692Y-94726365D01*
X196695691Y-94726364D01*
X196695686Y-94726364D01*
X196469002Y-94706532D01*
X196468998Y-94706532D01*
X196242313Y-94726364D01*
X196242302Y-94726366D01*
X196022511Y-94785258D01*
X196022502Y-94785261D01*
X195816267Y-94881431D01*
X195816265Y-94881432D01*
X195629858Y-95011954D01*
X195468954Y-95172858D01*
X195338432Y-95359265D01*
X195338431Y-95359267D01*
X195311382Y-95417275D01*
X195265209Y-95469714D01*
X195198016Y-95488866D01*
X195131135Y-95468650D01*
X195086618Y-95417275D01*
X195059686Y-95359520D01*
X195059568Y-95359266D01*
X194929047Y-95172861D01*
X194929045Y-95172858D01*
X194768141Y-95011954D01*
X194581734Y-94881432D01*
X194581732Y-94881431D01*
X194375497Y-94785261D01*
X194375488Y-94785258D01*
X194155697Y-94726366D01*
X194155693Y-94726365D01*
X194155692Y-94726365D01*
X194155691Y-94726364D01*
X194155686Y-94726364D01*
X193929002Y-94706532D01*
X193928998Y-94706532D01*
X193702313Y-94726364D01*
X193702302Y-94726366D01*
X193482511Y-94785258D01*
X193482502Y-94785261D01*
X193276267Y-94881431D01*
X193276265Y-94881432D01*
X193089858Y-95011954D01*
X192928954Y-95172858D01*
X192798432Y-95359265D01*
X192798431Y-95359267D01*
X192771382Y-95417275D01*
X192725209Y-95469714D01*
X192658016Y-95488866D01*
X192591135Y-95468650D01*
X192546618Y-95417275D01*
X192519686Y-95359520D01*
X192519568Y-95359266D01*
X192389047Y-95172861D01*
X192389045Y-95172858D01*
X192228141Y-95011954D01*
X192041734Y-94881432D01*
X192041732Y-94881431D01*
X191835497Y-94785261D01*
X191835488Y-94785258D01*
X191615697Y-94726366D01*
X191615693Y-94726365D01*
X191615692Y-94726365D01*
X191615691Y-94726364D01*
X191615686Y-94726364D01*
X191389002Y-94706532D01*
X191388998Y-94706532D01*
X191162313Y-94726364D01*
X191162302Y-94726366D01*
X190942511Y-94785258D01*
X190942502Y-94785261D01*
X190736267Y-94881431D01*
X190736265Y-94881432D01*
X190549858Y-95011954D01*
X190388954Y-95172858D01*
X190258432Y-95359265D01*
X190258431Y-95359267D01*
X190231382Y-95417275D01*
X190185209Y-95469714D01*
X190118016Y-95488866D01*
X190051135Y-95468650D01*
X190006618Y-95417275D01*
X189979686Y-95359520D01*
X189979568Y-95359266D01*
X189849047Y-95172861D01*
X189849045Y-95172858D01*
X189688141Y-95011954D01*
X189501734Y-94881432D01*
X189501732Y-94881431D01*
X189295497Y-94785261D01*
X189295488Y-94785258D01*
X189075697Y-94726366D01*
X189075693Y-94726365D01*
X189075692Y-94726365D01*
X189075691Y-94726364D01*
X189075686Y-94726364D01*
X188849002Y-94706532D01*
X188848998Y-94706532D01*
X188622313Y-94726364D01*
X188622302Y-94726366D01*
X188402511Y-94785258D01*
X188402502Y-94785261D01*
X188196267Y-94881431D01*
X188196265Y-94881432D01*
X188009858Y-95011954D01*
X187848954Y-95172858D01*
X187718432Y-95359265D01*
X187718431Y-95359267D01*
X187622261Y-95565502D01*
X187622258Y-95565511D01*
X187563366Y-95785302D01*
X187563364Y-95785313D01*
X187543532Y-96011998D01*
X185074468Y-96011998D01*
X185054635Y-95785308D01*
X184995739Y-95565504D01*
X184899568Y-95359266D01*
X184769047Y-95172861D01*
X184769045Y-95172858D01*
X184608141Y-95011954D01*
X184421734Y-94881432D01*
X184421732Y-94881431D01*
X184215497Y-94785261D01*
X184215488Y-94785258D01*
X183995697Y-94726366D01*
X183995693Y-94726365D01*
X183995692Y-94726365D01*
X183995691Y-94726364D01*
X183995686Y-94726364D01*
X183769002Y-94706532D01*
X183768998Y-94706532D01*
X183542313Y-94726364D01*
X183542302Y-94726366D01*
X183322511Y-94785258D01*
X183322502Y-94785261D01*
X183116267Y-94881431D01*
X183116265Y-94881432D01*
X182929858Y-95011954D01*
X182768954Y-95172858D01*
X182638433Y-95359264D01*
X182638432Y-95359266D01*
X182638315Y-95359518D01*
X182611106Y-95417867D01*
X182564933Y-95470306D01*
X182497739Y-95489457D01*
X182430858Y-95469241D01*
X182386342Y-95417865D01*
X182359135Y-95359520D01*
X182359134Y-95359518D01*
X182228657Y-95173179D01*
X182067820Y-95012342D01*
X181881482Y-94881865D01*
X181675328Y-94785734D01*
X181479000Y-94733127D01*
X181479000Y-95578988D01*
X181421993Y-95546075D01*
X181294826Y-95512000D01*
X181163174Y-95512000D01*
X181036007Y-95546075D01*
X180979000Y-95578988D01*
X180979000Y-94733127D01*
X180782671Y-94785734D01*
X180576517Y-94881865D01*
X180390179Y-95012342D01*
X180229342Y-95173179D01*
X180098865Y-95359517D01*
X180071382Y-95418457D01*
X180025210Y-95470896D01*
X179958016Y-95490048D01*
X179891135Y-95469832D01*
X179846618Y-95418457D01*
X179819134Y-95359517D01*
X179688657Y-95173179D01*
X179527820Y-95012342D01*
X179341482Y-94881865D01*
X179135328Y-94785734D01*
X178939000Y-94733127D01*
X178939000Y-95578988D01*
X178881993Y-95546075D01*
X178754826Y-95512000D01*
X178623174Y-95512000D01*
X178496007Y-95546075D01*
X178439000Y-95578988D01*
X178439000Y-94733127D01*
X178242671Y-94785734D01*
X178036517Y-94881865D01*
X177850179Y-95012342D01*
X177689342Y-95173179D01*
X177558867Y-95359515D01*
X177531657Y-95417867D01*
X177485484Y-95470306D01*
X177418290Y-95489457D01*
X177351409Y-95469241D01*
X177306893Y-95417865D01*
X177279685Y-95359518D01*
X177279568Y-95359266D01*
X177149047Y-95172861D01*
X177149045Y-95172858D01*
X176988141Y-95011954D01*
X176801734Y-94881432D01*
X176801732Y-94881431D01*
X176595497Y-94785261D01*
X176595488Y-94785258D01*
X176375697Y-94726366D01*
X176375693Y-94726365D01*
X176375692Y-94726365D01*
X176375691Y-94726364D01*
X176375686Y-94726364D01*
X176149002Y-94706532D01*
X176148998Y-94706532D01*
X175922313Y-94726364D01*
X175922302Y-94726366D01*
X175702511Y-94785258D01*
X175702502Y-94785261D01*
X175496267Y-94881431D01*
X175496265Y-94881432D01*
X175309858Y-95011954D01*
X175148954Y-95172858D01*
X175018432Y-95359265D01*
X175018431Y-95359267D01*
X174991382Y-95417275D01*
X174945209Y-95469714D01*
X174878016Y-95488866D01*
X174811135Y-95468650D01*
X174766618Y-95417275D01*
X174739686Y-95359520D01*
X174739568Y-95359266D01*
X174609047Y-95172861D01*
X174609045Y-95172858D01*
X174448141Y-95011954D01*
X174261734Y-94881432D01*
X174261732Y-94881431D01*
X174055497Y-94785261D01*
X174055488Y-94785258D01*
X173835697Y-94726366D01*
X173835693Y-94726365D01*
X173835692Y-94726365D01*
X173835691Y-94726364D01*
X173835686Y-94726364D01*
X173609002Y-94706532D01*
X173608998Y-94706532D01*
X173382313Y-94726364D01*
X173382302Y-94726366D01*
X173162511Y-94785258D01*
X173162502Y-94785261D01*
X172956267Y-94881431D01*
X172956265Y-94881432D01*
X172769858Y-95011954D01*
X172608954Y-95172858D01*
X172478432Y-95359265D01*
X172478431Y-95359267D01*
X172451382Y-95417275D01*
X172405209Y-95469714D01*
X172338016Y-95488866D01*
X172271135Y-95468650D01*
X172226618Y-95417275D01*
X172199686Y-95359520D01*
X172199568Y-95359266D01*
X172069047Y-95172861D01*
X172069045Y-95172858D01*
X171908141Y-95011954D01*
X171721734Y-94881432D01*
X171721732Y-94881431D01*
X171515497Y-94785261D01*
X171515488Y-94785258D01*
X171295697Y-94726366D01*
X171295693Y-94726365D01*
X171295692Y-94726365D01*
X171295691Y-94726364D01*
X171295686Y-94726364D01*
X171069002Y-94706532D01*
X171068998Y-94706532D01*
X170842313Y-94726364D01*
X170842302Y-94726366D01*
X170622511Y-94785258D01*
X170622502Y-94785261D01*
X170416267Y-94881431D01*
X170416265Y-94881432D01*
X170229858Y-95011954D01*
X170068954Y-95172858D01*
X169938432Y-95359265D01*
X169938431Y-95359267D01*
X169911382Y-95417275D01*
X169865209Y-95469714D01*
X169798016Y-95488866D01*
X169731135Y-95468650D01*
X169686618Y-95417275D01*
X169659686Y-95359520D01*
X169659568Y-95359266D01*
X169529047Y-95172861D01*
X169529045Y-95172858D01*
X169368141Y-95011954D01*
X169181734Y-94881432D01*
X169181732Y-94881431D01*
X168975497Y-94785261D01*
X168975488Y-94785258D01*
X168755697Y-94726366D01*
X168755693Y-94726365D01*
X168755692Y-94726365D01*
X168755691Y-94726364D01*
X168755686Y-94726364D01*
X168529002Y-94706532D01*
X168528998Y-94706532D01*
X168302313Y-94726364D01*
X168302302Y-94726366D01*
X168082511Y-94785258D01*
X168082502Y-94785261D01*
X167876267Y-94881431D01*
X167876265Y-94881432D01*
X167689858Y-95011954D01*
X167528954Y-95172858D01*
X167511725Y-95197464D01*
X167457147Y-95241088D01*
X167387648Y-95248280D01*
X167325294Y-95216757D01*
X167289882Y-95156526D01*
X167286861Y-95139591D01*
X167283091Y-95104516D01*
X167232797Y-94969671D01*
X167232793Y-94969664D01*
X167146547Y-94854455D01*
X167146544Y-94854452D01*
X167031335Y-94768206D01*
X167031328Y-94768202D01*
X166896482Y-94717908D01*
X166896483Y-94717908D01*
X166836883Y-94711501D01*
X166836881Y-94711500D01*
X166836873Y-94711500D01*
X166836864Y-94711500D01*
X165141129Y-94711500D01*
X165141123Y-94711501D01*
X165081516Y-94717908D01*
X164946671Y-94768202D01*
X164946664Y-94768206D01*
X164831455Y-94854452D01*
X164831452Y-94854455D01*
X164745206Y-94969664D01*
X164745202Y-94969671D01*
X164694908Y-95104517D01*
X164688501Y-95164116D01*
X164688500Y-95164135D01*
X153662500Y-95164135D01*
X153662500Y-86232999D01*
X174793341Y-86232999D01*
X174793341Y-86233000D01*
X174813936Y-86468403D01*
X174813938Y-86468413D01*
X174875094Y-86696655D01*
X174875096Y-86696659D01*
X174875097Y-86696663D01*
X174974965Y-86910830D01*
X174974967Y-86910834D01*
X175110501Y-87104395D01*
X175110506Y-87104402D01*
X175277597Y-87271493D01*
X175277603Y-87271498D01*
X175463594Y-87401730D01*
X175507219Y-87456307D01*
X175514413Y-87525805D01*
X175482890Y-87588160D01*
X175463595Y-87604880D01*
X175277922Y-87734890D01*
X175277920Y-87734891D01*
X175110891Y-87901920D01*
X175110886Y-87901926D01*
X174975400Y-88095420D01*
X174975399Y-88095422D01*
X174875570Y-88309507D01*
X174875567Y-88309513D01*
X174818364Y-88522999D01*
X174818364Y-88523000D01*
X175715988Y-88523000D01*
X175683075Y-88580007D01*
X175649000Y-88707174D01*
X175649000Y-88838826D01*
X175683075Y-88965993D01*
X175715988Y-89023000D01*
X174818364Y-89023000D01*
X174875567Y-89236486D01*
X174875570Y-89236492D01*
X174975399Y-89450578D01*
X175110894Y-89644082D01*
X175277917Y-89811105D01*
X175471421Y-89946600D01*
X175685507Y-90046429D01*
X175685516Y-90046433D01*
X175899000Y-90103634D01*
X175899000Y-89206012D01*
X175956007Y-89238925D01*
X176083174Y-89273000D01*
X176214826Y-89273000D01*
X176341993Y-89238925D01*
X176399000Y-89206012D01*
X176399000Y-90103633D01*
X176612483Y-90046433D01*
X176612492Y-90046429D01*
X176826578Y-89946600D01*
X177020082Y-89811105D01*
X177187105Y-89644082D01*
X177322600Y-89450578D01*
X177422429Y-89236492D01*
X177422432Y-89236486D01*
X177479636Y-89023000D01*
X176582012Y-89023000D01*
X176614925Y-88965993D01*
X176649000Y-88838826D01*
X176649000Y-88707174D01*
X176614925Y-88580007D01*
X176582012Y-88523000D01*
X177479636Y-88523000D01*
X177479635Y-88522999D01*
X177422432Y-88309513D01*
X177422429Y-88309507D01*
X177322600Y-88095422D01*
X177322599Y-88095420D01*
X177187113Y-87901926D01*
X177187108Y-87901920D01*
X177020078Y-87734890D01*
X176834405Y-87604879D01*
X176790780Y-87550302D01*
X176783588Y-87480804D01*
X176815110Y-87418449D01*
X176834406Y-87401730D01*
X177020401Y-87271495D01*
X177187495Y-87104401D01*
X177323035Y-86910830D01*
X177422903Y-86696663D01*
X177484063Y-86468408D01*
X177504659Y-86233000D01*
X177484063Y-85997592D01*
X177422903Y-85769337D01*
X177323035Y-85555171D01*
X177187495Y-85361599D01*
X177065567Y-85239671D01*
X177032084Y-85178351D01*
X177037068Y-85108659D01*
X177078939Y-85052725D01*
X177109915Y-85035810D01*
X177241331Y-84986796D01*
X177356546Y-84900546D01*
X177442796Y-84785331D01*
X177493091Y-84650483D01*
X177499500Y-84590873D01*
X177499499Y-82795128D01*
X177493091Y-82735517D01*
X177442796Y-82600669D01*
X177442795Y-82600668D01*
X177442793Y-82600664D01*
X177356547Y-82485455D01*
X177356544Y-82485452D01*
X177241335Y-82399206D01*
X177241328Y-82399202D01*
X177106482Y-82348908D01*
X177106483Y-82348908D01*
X177046883Y-82342501D01*
X177046881Y-82342500D01*
X177046873Y-82342500D01*
X177046864Y-82342500D01*
X175251129Y-82342500D01*
X175251123Y-82342501D01*
X175191516Y-82348908D01*
X175056671Y-82399202D01*
X175056664Y-82399206D01*
X174941455Y-82485452D01*
X174941452Y-82485455D01*
X174855206Y-82600664D01*
X174855202Y-82600671D01*
X174804908Y-82735517D01*
X174798501Y-82795116D01*
X174798501Y-82795123D01*
X174798500Y-82795135D01*
X174798500Y-84590870D01*
X174798501Y-84590876D01*
X174804908Y-84650483D01*
X174855202Y-84785328D01*
X174855206Y-84785335D01*
X174941452Y-84900544D01*
X174941455Y-84900547D01*
X175056664Y-84986793D01*
X175056671Y-84986797D01*
X175188081Y-85035810D01*
X175244015Y-85077681D01*
X175268432Y-85143145D01*
X175253580Y-85211418D01*
X175232430Y-85239673D01*
X175110503Y-85361600D01*
X174974965Y-85555169D01*
X174974964Y-85555171D01*
X174875098Y-85769335D01*
X174875094Y-85769344D01*
X174813938Y-85997586D01*
X174813936Y-85997596D01*
X174793341Y-86232999D01*
X153662500Y-86232999D01*
X153662500Y-73942000D01*
X161386207Y-73942000D01*
X161405348Y-74185219D01*
X161462303Y-74422457D01*
X161555668Y-74647861D01*
X161679504Y-74849941D01*
X162417212Y-74112233D01*
X162428482Y-74154292D01*
X162500890Y-74279708D01*
X162603292Y-74382110D01*
X162728708Y-74454518D01*
X162770765Y-74465787D01*
X162033057Y-75203494D01*
X162235138Y-75327331D01*
X162460542Y-75420696D01*
X162697780Y-75477651D01*
X162697779Y-75477651D01*
X162941000Y-75496792D01*
X163184219Y-75477651D01*
X163421457Y-75420696D01*
X163646861Y-75327331D01*
X163848941Y-75203495D01*
X163848941Y-75203494D01*
X163111235Y-74465787D01*
X163153292Y-74454518D01*
X163278708Y-74382110D01*
X163381110Y-74279708D01*
X163453518Y-74154292D01*
X163464787Y-74112234D01*
X164202494Y-74849941D01*
X164202495Y-74849941D01*
X164326331Y-74647861D01*
X164419696Y-74422457D01*
X164476651Y-74185219D01*
X164495792Y-73942000D01*
X164486189Y-73819973D01*
X173990500Y-73819973D01*
X173990500Y-74064026D01*
X174027170Y-74295553D01*
X174028679Y-74305076D01*
X174104096Y-74537185D01*
X174202515Y-74730344D01*
X174214896Y-74754642D01*
X174358339Y-74952076D01*
X174358343Y-74952081D01*
X174530918Y-75124656D01*
X174530923Y-75124660D01*
X174639430Y-75203494D01*
X174728361Y-75268106D01*
X174945815Y-75378904D01*
X175177924Y-75454321D01*
X175418973Y-75492500D01*
X175418974Y-75492500D01*
X175663026Y-75492500D01*
X175663027Y-75492500D01*
X175904076Y-75454321D01*
X176136185Y-75378904D01*
X176353639Y-75268106D01*
X176551083Y-75124655D01*
X176723655Y-74952083D01*
X176867106Y-74754639D01*
X176977904Y-74537185D01*
X177053321Y-74305076D01*
X177091500Y-74064027D01*
X177091500Y-73819973D01*
X177053321Y-73578924D01*
X176977904Y-73346815D01*
X176867106Y-73129361D01*
X176797864Y-73034057D01*
X176723660Y-72931923D01*
X176723656Y-72931918D01*
X176551081Y-72759343D01*
X176551076Y-72759339D01*
X176406087Y-72653999D01*
X185867341Y-72653999D01*
X185867341Y-72654000D01*
X185887936Y-72889403D01*
X185887938Y-72889413D01*
X185949094Y-73117655D01*
X185949096Y-73117659D01*
X185949097Y-73117663D01*
X185954552Y-73129361D01*
X186048965Y-73331830D01*
X186048967Y-73331834D01*
X186184501Y-73525395D01*
X186184506Y-73525402D01*
X186351597Y-73692493D01*
X186351603Y-73692498D01*
X186537158Y-73822425D01*
X186580783Y-73877002D01*
X186587977Y-73946500D01*
X186556454Y-74008855D01*
X186537158Y-74025575D01*
X186351597Y-74155505D01*
X186184505Y-74322597D01*
X186048965Y-74516169D01*
X186048964Y-74516171D01*
X185949098Y-74730335D01*
X185949094Y-74730344D01*
X185887938Y-74958586D01*
X185887936Y-74958596D01*
X185867341Y-75193999D01*
X185867341Y-75194000D01*
X185887936Y-75429403D01*
X185887938Y-75429413D01*
X185949094Y-75657655D01*
X185949096Y-75657659D01*
X185949097Y-75657663D01*
X186048965Y-75871830D01*
X186048967Y-75871834D01*
X186157281Y-76026521D01*
X186184505Y-76065401D01*
X186351599Y-76232495D01*
X186448384Y-76300265D01*
X186545165Y-76368032D01*
X186545167Y-76368033D01*
X186545170Y-76368035D01*
X186759337Y-76467903D01*
X186987592Y-76529063D01*
X187175918Y-76545539D01*
X187222999Y-76549659D01*
X187223000Y-76549659D01*
X187223001Y-76549659D01*
X187262234Y-76546226D01*
X187458408Y-76529063D01*
X187686663Y-76467903D01*
X187900830Y-76368035D01*
X188094401Y-76232495D01*
X188261495Y-76065401D01*
X188397035Y-75871830D01*
X188496903Y-75657663D01*
X188558063Y-75429408D01*
X188578659Y-75194000D01*
X188558063Y-74958592D01*
X188496903Y-74730337D01*
X188397035Y-74516171D01*
X188380111Y-74492000D01*
X188261494Y-74322597D01*
X188094402Y-74155506D01*
X188094396Y-74155501D01*
X187908842Y-74025575D01*
X187865217Y-73970998D01*
X187858023Y-73901500D01*
X187889546Y-73839145D01*
X187908842Y-73822425D01*
X188041255Y-73729708D01*
X188094401Y-73692495D01*
X188261495Y-73525401D01*
X188397035Y-73331830D01*
X188496903Y-73117663D01*
X188558063Y-72889408D01*
X188578659Y-72654000D01*
X188558063Y-72418592D01*
X188496903Y-72190337D01*
X188397035Y-71976171D01*
X188261495Y-71782599D01*
X188261494Y-71782597D01*
X188094402Y-71615506D01*
X188094401Y-71615505D01*
X187908405Y-71485269D01*
X187864781Y-71430692D01*
X187857588Y-71361193D01*
X187889110Y-71298839D01*
X187908405Y-71282119D01*
X188094082Y-71152105D01*
X188261105Y-70985082D01*
X188396600Y-70791578D01*
X188496429Y-70577492D01*
X188496432Y-70577486D01*
X188553636Y-70364000D01*
X187656012Y-70364000D01*
X187688925Y-70306993D01*
X187723000Y-70179826D01*
X187723000Y-70048174D01*
X187688925Y-69921007D01*
X187656012Y-69864000D01*
X188553636Y-69864000D01*
X188553635Y-69863999D01*
X188496432Y-69650513D01*
X188496429Y-69650507D01*
X188396600Y-69436422D01*
X188396599Y-69436420D01*
X188261113Y-69242926D01*
X188261108Y-69242920D01*
X188139053Y-69120865D01*
X188105568Y-69059542D01*
X188110552Y-68989850D01*
X188152424Y-68933917D01*
X188183400Y-68917002D01*
X188315331Y-68867796D01*
X188430546Y-68781546D01*
X188516796Y-68666331D01*
X188567091Y-68531483D01*
X188573500Y-68471873D01*
X188573499Y-66676128D01*
X188567091Y-66616517D01*
X188516796Y-66481669D01*
X188516795Y-66481668D01*
X188516793Y-66481664D01*
X188430547Y-66366455D01*
X188430544Y-66366452D01*
X188315335Y-66280206D01*
X188315328Y-66280202D01*
X188180482Y-66229908D01*
X188180483Y-66229908D01*
X188120883Y-66223501D01*
X188120881Y-66223500D01*
X188120873Y-66223500D01*
X188120864Y-66223500D01*
X186325129Y-66223500D01*
X186325123Y-66223501D01*
X186265516Y-66229908D01*
X186130671Y-66280202D01*
X186130664Y-66280206D01*
X186015455Y-66366452D01*
X186015452Y-66366455D01*
X185929206Y-66481664D01*
X185929202Y-66481671D01*
X185878908Y-66616517D01*
X185872501Y-66676116D01*
X185872501Y-66676123D01*
X185872500Y-66676135D01*
X185872500Y-68471870D01*
X185872501Y-68471876D01*
X185878908Y-68531483D01*
X185929202Y-68666328D01*
X185929206Y-68666335D01*
X186015452Y-68781544D01*
X186015455Y-68781547D01*
X186130664Y-68867793D01*
X186130671Y-68867797D01*
X186130674Y-68867798D01*
X186262598Y-68917002D01*
X186318531Y-68958873D01*
X186342949Y-69024337D01*
X186328098Y-69092610D01*
X186306947Y-69120865D01*
X186184886Y-69242926D01*
X186049400Y-69436420D01*
X186049399Y-69436422D01*
X185949570Y-69650507D01*
X185949567Y-69650513D01*
X185892364Y-69863999D01*
X185892364Y-69864000D01*
X186789988Y-69864000D01*
X186757075Y-69921007D01*
X186723000Y-70048174D01*
X186723000Y-70179826D01*
X186757075Y-70306993D01*
X186789988Y-70364000D01*
X185892364Y-70364000D01*
X185949567Y-70577486D01*
X185949570Y-70577492D01*
X186049399Y-70791578D01*
X186184894Y-70985082D01*
X186351917Y-71152105D01*
X186537595Y-71282119D01*
X186581219Y-71336696D01*
X186588412Y-71406195D01*
X186556890Y-71468549D01*
X186537595Y-71485269D01*
X186351594Y-71615508D01*
X186184505Y-71782597D01*
X186048965Y-71976169D01*
X186048964Y-71976171D01*
X185949098Y-72190335D01*
X185949094Y-72190344D01*
X185887938Y-72418586D01*
X185887936Y-72418596D01*
X185867341Y-72653999D01*
X176406087Y-72653999D01*
X176353642Y-72615896D01*
X176353641Y-72615895D01*
X176353639Y-72615894D01*
X176136185Y-72505096D01*
X175904076Y-72429679D01*
X175904074Y-72429678D01*
X175904072Y-72429678D01*
X175735769Y-72403021D01*
X175663027Y-72391500D01*
X175418973Y-72391500D01*
X175363093Y-72400350D01*
X175177927Y-72429678D01*
X174945812Y-72505097D01*
X174728357Y-72615896D01*
X174530923Y-72759339D01*
X174530918Y-72759343D01*
X174358343Y-72931918D01*
X174358339Y-72931923D01*
X174214896Y-73129357D01*
X174104097Y-73346812D01*
X174028678Y-73578927D01*
X173990500Y-73819973D01*
X164486189Y-73819973D01*
X164476651Y-73698780D01*
X164419696Y-73461542D01*
X164326331Y-73236138D01*
X164202494Y-73034057D01*
X163464787Y-73771764D01*
X163453518Y-73729708D01*
X163381110Y-73604292D01*
X163278708Y-73501890D01*
X163153292Y-73429482D01*
X163111234Y-73418212D01*
X163848941Y-72680504D01*
X163646861Y-72556668D01*
X163421457Y-72463303D01*
X163184219Y-72406348D01*
X163184220Y-72406348D01*
X162941000Y-72387207D01*
X162697780Y-72406348D01*
X162460542Y-72463303D01*
X162235138Y-72556668D01*
X162033057Y-72680504D01*
X162770766Y-73418212D01*
X162728708Y-73429482D01*
X162603292Y-73501890D01*
X162500890Y-73604292D01*
X162428482Y-73729708D01*
X162417212Y-73771765D01*
X161679504Y-73034057D01*
X161555668Y-73236138D01*
X161462303Y-73461542D01*
X161405348Y-73698780D01*
X161386207Y-73942000D01*
X153662500Y-73942000D01*
X153662500Y-68491984D01*
X161390500Y-68491984D01*
X161390500Y-70192015D01*
X161401000Y-70294795D01*
X161401001Y-70294797D01*
X161419983Y-70352081D01*
X161456186Y-70461335D01*
X161456187Y-70461337D01*
X161548286Y-70610651D01*
X161548289Y-70610655D01*
X161672344Y-70734710D01*
X161672348Y-70734713D01*
X161821662Y-70826812D01*
X161821664Y-70826813D01*
X161821666Y-70826814D01*
X161988203Y-70881999D01*
X162090992Y-70892500D01*
X162090997Y-70892500D01*
X163791003Y-70892500D01*
X163791008Y-70892500D01*
X163893797Y-70881999D01*
X164060334Y-70826814D01*
X164209655Y-70734711D01*
X164333711Y-70610655D01*
X164425814Y-70461334D01*
X164480999Y-70294797D01*
X164491500Y-70192008D01*
X164491500Y-69219973D01*
X173990500Y-69219973D01*
X173990500Y-69464027D01*
X174028679Y-69705076D01*
X174098839Y-69921007D01*
X174104097Y-69937187D01*
X174214896Y-70154642D01*
X174358339Y-70352076D01*
X174358343Y-70352081D01*
X174530918Y-70524656D01*
X174530923Y-70524660D01*
X174649286Y-70610655D01*
X174728361Y-70668106D01*
X174945815Y-70778904D01*
X175177924Y-70854321D01*
X175418973Y-70892500D01*
X175418974Y-70892500D01*
X175663026Y-70892500D01*
X175663027Y-70892500D01*
X175904076Y-70854321D01*
X176136185Y-70778904D01*
X176353639Y-70668106D01*
X176551083Y-70524655D01*
X176723655Y-70352083D01*
X176867106Y-70154639D01*
X176977904Y-69937185D01*
X177053321Y-69705076D01*
X177091500Y-69464027D01*
X177091500Y-69219973D01*
X177053321Y-68978924D01*
X176977904Y-68746815D01*
X176867106Y-68529361D01*
X176825338Y-68471872D01*
X176723660Y-68331923D01*
X176723656Y-68331918D01*
X176551081Y-68159343D01*
X176551076Y-68159339D01*
X176353642Y-68015896D01*
X176353641Y-68015895D01*
X176353639Y-68015894D01*
X176136185Y-67905096D01*
X175904076Y-67829679D01*
X175904074Y-67829678D01*
X175904072Y-67829678D01*
X175729320Y-67802000D01*
X175663027Y-67791500D01*
X175418973Y-67791500D01*
X175363093Y-67800350D01*
X175177927Y-67829678D01*
X174945812Y-67905097D01*
X174728357Y-68015896D01*
X174530923Y-68159339D01*
X174530918Y-68159343D01*
X174358343Y-68331918D01*
X174358339Y-68331923D01*
X174214896Y-68529357D01*
X174104097Y-68746812D01*
X174028678Y-68978927D01*
X174006197Y-69120865D01*
X173990500Y-69219973D01*
X164491500Y-69219973D01*
X164491500Y-68491992D01*
X164480999Y-68389203D01*
X164425814Y-68222666D01*
X164333711Y-68073345D01*
X164209655Y-67949289D01*
X164209651Y-67949286D01*
X164060337Y-67857187D01*
X164060335Y-67857186D01*
X163977065Y-67829593D01*
X163893797Y-67802001D01*
X163893795Y-67802000D01*
X163791015Y-67791500D01*
X163791008Y-67791500D01*
X162090992Y-67791500D01*
X162090984Y-67791500D01*
X161988204Y-67802000D01*
X161988203Y-67802001D01*
X161821664Y-67857186D01*
X161821662Y-67857187D01*
X161672348Y-67949286D01*
X161672344Y-67949289D01*
X161548289Y-68073344D01*
X161548286Y-68073348D01*
X161456187Y-68222662D01*
X161456186Y-68222664D01*
X161401001Y-68389203D01*
X161401000Y-68389204D01*
X161390500Y-68491984D01*
X153662500Y-68491984D01*
X153662500Y-57403999D01*
X174539341Y-57403999D01*
X174539341Y-57404000D01*
X174559936Y-57639403D01*
X174559938Y-57639413D01*
X174621094Y-57867655D01*
X174621096Y-57867659D01*
X174621097Y-57867663D01*
X174720965Y-58081830D01*
X174720967Y-58081834D01*
X174856501Y-58275395D01*
X174856506Y-58275402D01*
X175023597Y-58442493D01*
X175023603Y-58442498D01*
X175209594Y-58572730D01*
X175253219Y-58627307D01*
X175260413Y-58696805D01*
X175228890Y-58759160D01*
X175209595Y-58775880D01*
X175023922Y-58905890D01*
X175023920Y-58905891D01*
X174856891Y-59072920D01*
X174856886Y-59072926D01*
X174721400Y-59266420D01*
X174721399Y-59266422D01*
X174621570Y-59480507D01*
X174621567Y-59480513D01*
X174564364Y-59693999D01*
X174564364Y-59694000D01*
X175461988Y-59694000D01*
X175429075Y-59751007D01*
X175395000Y-59878174D01*
X175395000Y-60009826D01*
X175429075Y-60136993D01*
X175461988Y-60194000D01*
X174564364Y-60194000D01*
X174621567Y-60407486D01*
X174621570Y-60407492D01*
X174721399Y-60621578D01*
X174856894Y-60815082D01*
X175023917Y-60982105D01*
X175217421Y-61117600D01*
X175431507Y-61217429D01*
X175431516Y-61217433D01*
X175645000Y-61274634D01*
X175645000Y-60377012D01*
X175702007Y-60409925D01*
X175829174Y-60444000D01*
X175960826Y-60444000D01*
X176087993Y-60409925D01*
X176145000Y-60377012D01*
X176145000Y-61274633D01*
X176358483Y-61217433D01*
X176358492Y-61217429D01*
X176572578Y-61117600D01*
X176766082Y-60982105D01*
X176933105Y-60815082D01*
X177068600Y-60621578D01*
X177168429Y-60407492D01*
X177168432Y-60407486D01*
X177225636Y-60194000D01*
X176328012Y-60194000D01*
X176360925Y-60136993D01*
X176395000Y-60009826D01*
X176395000Y-59878174D01*
X176360925Y-59751007D01*
X176328012Y-59694000D01*
X177225636Y-59694000D01*
X177225635Y-59693999D01*
X177168432Y-59480513D01*
X177168429Y-59480507D01*
X177068600Y-59266422D01*
X177068599Y-59266420D01*
X176933113Y-59072926D01*
X176933108Y-59072920D01*
X176766078Y-58905890D01*
X176580405Y-58775879D01*
X176536780Y-58721302D01*
X176529588Y-58651804D01*
X176561110Y-58589449D01*
X176580406Y-58572730D01*
X176766401Y-58442495D01*
X176933495Y-58275401D01*
X177069035Y-58081830D01*
X177168903Y-57867663D01*
X177230063Y-57639408D01*
X177250659Y-57404000D01*
X177230063Y-57168592D01*
X177168903Y-56940337D01*
X177069035Y-56726171D01*
X176933495Y-56532599D01*
X176811567Y-56410671D01*
X176778084Y-56349351D01*
X176783068Y-56279659D01*
X176824939Y-56223725D01*
X176855915Y-56206810D01*
X176987331Y-56157796D01*
X177102546Y-56071546D01*
X177188796Y-55956331D01*
X177239091Y-55821483D01*
X177245500Y-55761873D01*
X177245499Y-53966128D01*
X177239091Y-53906517D01*
X177188796Y-53771669D01*
X177188795Y-53771668D01*
X177188793Y-53771664D01*
X177102547Y-53656455D01*
X177102544Y-53656452D01*
X176987335Y-53570206D01*
X176987328Y-53570202D01*
X176852482Y-53519908D01*
X176852483Y-53519908D01*
X176792883Y-53513501D01*
X176792881Y-53513500D01*
X176792873Y-53513500D01*
X176792864Y-53513500D01*
X174997129Y-53513500D01*
X174997123Y-53513501D01*
X174937516Y-53519908D01*
X174802671Y-53570202D01*
X174802664Y-53570206D01*
X174687455Y-53656452D01*
X174687452Y-53656455D01*
X174601206Y-53771664D01*
X174601202Y-53771671D01*
X174550908Y-53906517D01*
X174544501Y-53966116D01*
X174544501Y-53966123D01*
X174544500Y-53966135D01*
X174544500Y-55761870D01*
X174544501Y-55761876D01*
X174550908Y-55821483D01*
X174601202Y-55956328D01*
X174601206Y-55956335D01*
X174687452Y-56071544D01*
X174687455Y-56071547D01*
X174802664Y-56157793D01*
X174802671Y-56157797D01*
X174934081Y-56206810D01*
X174990015Y-56248681D01*
X175014432Y-56314145D01*
X174999580Y-56382418D01*
X174978430Y-56410673D01*
X174856503Y-56532600D01*
X174720965Y-56726169D01*
X174720964Y-56726171D01*
X174621098Y-56940335D01*
X174621094Y-56940344D01*
X174559938Y-57168586D01*
X174559936Y-57168596D01*
X174539341Y-57403999D01*
X153662500Y-57403999D01*
X153662500Y-47751998D01*
X155543532Y-47751998D01*
X155543532Y-47752001D01*
X155563364Y-47978686D01*
X155563366Y-47978697D01*
X155622258Y-48198488D01*
X155622261Y-48198497D01*
X155718431Y-48404732D01*
X155718432Y-48404734D01*
X155848954Y-48591141D01*
X156009858Y-48752045D01*
X156009861Y-48752047D01*
X156196266Y-48882568D01*
X156402504Y-48978739D01*
X156622308Y-49037635D01*
X156784230Y-49051801D01*
X156848998Y-49057468D01*
X156849000Y-49057468D01*
X156849002Y-49057468D01*
X156905673Y-49052509D01*
X157075692Y-49037635D01*
X157295496Y-48978739D01*
X157501734Y-48882568D01*
X157688139Y-48752047D01*
X157849047Y-48591139D01*
X157979568Y-48404734D01*
X158006618Y-48346724D01*
X158052790Y-48294285D01*
X158119983Y-48275133D01*
X158186865Y-48295348D01*
X158231382Y-48346725D01*
X158258429Y-48404728D01*
X158258432Y-48404734D01*
X158388954Y-48591141D01*
X158549858Y-48752045D01*
X158549861Y-48752047D01*
X158736266Y-48882568D01*
X158942504Y-48978739D01*
X159162308Y-49037635D01*
X159324230Y-49051801D01*
X159388998Y-49057468D01*
X159389000Y-49057468D01*
X159389002Y-49057468D01*
X159445673Y-49052509D01*
X159615692Y-49037635D01*
X159835496Y-48978739D01*
X160041734Y-48882568D01*
X160228139Y-48752047D01*
X160389047Y-48591139D01*
X160519568Y-48404734D01*
X160546618Y-48346724D01*
X160592790Y-48294285D01*
X160659983Y-48275133D01*
X160726865Y-48295348D01*
X160771382Y-48346725D01*
X160798429Y-48404728D01*
X160798432Y-48404734D01*
X160928954Y-48591141D01*
X161089858Y-48752045D01*
X161089861Y-48752047D01*
X161276266Y-48882568D01*
X161482504Y-48978739D01*
X161702308Y-49037635D01*
X161864230Y-49051801D01*
X161928998Y-49057468D01*
X161929000Y-49057468D01*
X161929002Y-49057468D01*
X161985673Y-49052509D01*
X162155692Y-49037635D01*
X162375496Y-48978739D01*
X162581734Y-48882568D01*
X162768139Y-48752047D01*
X162929047Y-48591139D01*
X163059568Y-48404734D01*
X163086895Y-48346129D01*
X163133064Y-48293695D01*
X163200257Y-48274542D01*
X163267139Y-48294757D01*
X163311657Y-48346133D01*
X163338865Y-48404482D01*
X163469342Y-48590820D01*
X163630179Y-48751657D01*
X163816517Y-48882134D01*
X164022673Y-48978265D01*
X164022682Y-48978269D01*
X164218999Y-49030872D01*
X164219000Y-49030871D01*
X164219000Y-48185012D01*
X164276007Y-48217925D01*
X164403174Y-48252000D01*
X164534826Y-48252000D01*
X164661993Y-48217925D01*
X164719000Y-48185012D01*
X164719000Y-49030872D01*
X164915317Y-48978269D01*
X164915326Y-48978265D01*
X165121482Y-48882134D01*
X165307820Y-48751657D01*
X165468657Y-48590820D01*
X165599132Y-48404484D01*
X165626341Y-48346134D01*
X165672513Y-48293695D01*
X165739707Y-48274542D01*
X165806588Y-48294757D01*
X165851106Y-48346133D01*
X165878431Y-48404732D01*
X165878432Y-48404734D01*
X166008954Y-48591141D01*
X166169858Y-48752045D01*
X166169861Y-48752047D01*
X166356266Y-48882568D01*
X166562504Y-48978739D01*
X166782308Y-49037635D01*
X166944230Y-49051801D01*
X167008998Y-49057468D01*
X167009000Y-49057468D01*
X167009002Y-49057468D01*
X167065673Y-49052509D01*
X167235692Y-49037635D01*
X167455496Y-48978739D01*
X167661734Y-48882568D01*
X167848139Y-48752047D01*
X168009047Y-48591139D01*
X168139568Y-48404734D01*
X168166618Y-48346724D01*
X168212790Y-48294285D01*
X168279983Y-48275133D01*
X168346865Y-48295348D01*
X168391382Y-48346725D01*
X168418429Y-48404728D01*
X168418432Y-48404734D01*
X168548954Y-48591141D01*
X168709858Y-48752045D01*
X168709861Y-48752047D01*
X168896266Y-48882568D01*
X169102504Y-48978739D01*
X169322308Y-49037635D01*
X169484230Y-49051801D01*
X169548998Y-49057468D01*
X169549000Y-49057468D01*
X169549002Y-49057468D01*
X169605673Y-49052509D01*
X169775692Y-49037635D01*
X169995496Y-48978739D01*
X170201734Y-48882568D01*
X170388139Y-48752047D01*
X170549047Y-48591139D01*
X170679568Y-48404734D01*
X170706618Y-48346724D01*
X170752790Y-48294285D01*
X170819983Y-48275133D01*
X170886865Y-48295348D01*
X170931382Y-48346725D01*
X170958429Y-48404728D01*
X170958432Y-48404734D01*
X171088954Y-48591141D01*
X171249858Y-48752045D01*
X171249861Y-48752047D01*
X171436266Y-48882568D01*
X171642504Y-48978739D01*
X171862308Y-49037635D01*
X172024230Y-49051801D01*
X172088998Y-49057468D01*
X172089000Y-49057468D01*
X172089002Y-49057468D01*
X172145673Y-49052509D01*
X172315692Y-49037635D01*
X172535496Y-48978739D01*
X172741734Y-48882568D01*
X172928139Y-48752047D01*
X173089047Y-48591139D01*
X173219568Y-48404734D01*
X173246618Y-48346724D01*
X173292790Y-48294285D01*
X173359983Y-48275133D01*
X173426865Y-48295348D01*
X173471382Y-48346725D01*
X173498429Y-48404728D01*
X173498432Y-48404734D01*
X173628954Y-48591141D01*
X173789858Y-48752045D01*
X173789861Y-48752047D01*
X173976266Y-48882568D01*
X174182504Y-48978739D01*
X174402308Y-49037635D01*
X174564230Y-49051801D01*
X174628998Y-49057468D01*
X174629000Y-49057468D01*
X174629002Y-49057468D01*
X174685673Y-49052509D01*
X174855692Y-49037635D01*
X175075496Y-48978739D01*
X175281734Y-48882568D01*
X175468139Y-48752047D01*
X175629047Y-48591139D01*
X175759568Y-48404734D01*
X175786618Y-48346724D01*
X175832790Y-48294285D01*
X175899983Y-48275133D01*
X175966865Y-48295348D01*
X176011382Y-48346725D01*
X176038429Y-48404728D01*
X176038432Y-48404734D01*
X176168954Y-48591141D01*
X176329858Y-48752045D01*
X176329861Y-48752047D01*
X176516266Y-48882568D01*
X176722504Y-48978739D01*
X176942308Y-49037635D01*
X177104230Y-49051801D01*
X177168998Y-49057468D01*
X177169000Y-49057468D01*
X177169002Y-49057468D01*
X177225673Y-49052509D01*
X177395692Y-49037635D01*
X177615496Y-48978739D01*
X177821734Y-48882568D01*
X178008139Y-48752047D01*
X178169047Y-48591139D01*
X178299568Y-48404734D01*
X178326618Y-48346724D01*
X178372790Y-48294285D01*
X178439983Y-48275133D01*
X178506865Y-48295348D01*
X178551382Y-48346725D01*
X178578429Y-48404728D01*
X178578432Y-48404734D01*
X178708954Y-48591141D01*
X178869858Y-48752045D01*
X178869861Y-48752047D01*
X179056266Y-48882568D01*
X179262504Y-48978739D01*
X179482308Y-49037635D01*
X179644230Y-49051801D01*
X179708998Y-49057468D01*
X179709000Y-49057468D01*
X179709002Y-49057468D01*
X179765673Y-49052509D01*
X179935692Y-49037635D01*
X180155496Y-48978739D01*
X180361734Y-48882568D01*
X180548139Y-48752047D01*
X180709047Y-48591139D01*
X180839568Y-48404734D01*
X180935739Y-48198496D01*
X180994635Y-47978692D01*
X181014468Y-47752000D01*
X181014468Y-47751998D01*
X182463532Y-47751998D01*
X182463532Y-47752001D01*
X182483364Y-47978686D01*
X182483366Y-47978697D01*
X182542258Y-48198488D01*
X182542261Y-48198497D01*
X182638431Y-48404732D01*
X182638432Y-48404734D01*
X182768954Y-48591141D01*
X182929858Y-48752045D01*
X182929861Y-48752047D01*
X183116266Y-48882568D01*
X183322504Y-48978739D01*
X183542308Y-49037635D01*
X183704230Y-49051801D01*
X183768998Y-49057468D01*
X183769000Y-49057468D01*
X183769002Y-49057468D01*
X183825673Y-49052509D01*
X183995692Y-49037635D01*
X184215496Y-48978739D01*
X184421734Y-48882568D01*
X184608139Y-48752047D01*
X184769047Y-48591139D01*
X184899568Y-48404734D01*
X184926618Y-48346724D01*
X184972790Y-48294285D01*
X185039983Y-48275133D01*
X185106865Y-48295348D01*
X185151382Y-48346725D01*
X185178429Y-48404728D01*
X185178432Y-48404734D01*
X185308954Y-48591141D01*
X185469858Y-48752045D01*
X185469861Y-48752047D01*
X185656266Y-48882568D01*
X185862504Y-48978739D01*
X186082308Y-49037635D01*
X186244230Y-49051801D01*
X186308998Y-49057468D01*
X186309000Y-49057468D01*
X186309002Y-49057468D01*
X186365673Y-49052509D01*
X186535692Y-49037635D01*
X186755496Y-48978739D01*
X186961734Y-48882568D01*
X187148139Y-48752047D01*
X187309047Y-48591139D01*
X187439568Y-48404734D01*
X187466618Y-48346724D01*
X187512790Y-48294285D01*
X187579983Y-48275133D01*
X187646865Y-48295348D01*
X187691382Y-48346725D01*
X187718429Y-48404728D01*
X187718432Y-48404734D01*
X187848954Y-48591141D01*
X188009858Y-48752045D01*
X188009861Y-48752047D01*
X188196266Y-48882568D01*
X188402504Y-48978739D01*
X188622308Y-49037635D01*
X188784230Y-49051801D01*
X188848998Y-49057468D01*
X188849000Y-49057468D01*
X188849002Y-49057468D01*
X188905673Y-49052509D01*
X189075692Y-49037635D01*
X189295496Y-48978739D01*
X189501734Y-48882568D01*
X189688139Y-48752047D01*
X189849047Y-48591139D01*
X189979568Y-48404734D01*
X190006618Y-48346724D01*
X190052790Y-48294285D01*
X190119983Y-48275133D01*
X190186865Y-48295348D01*
X190231382Y-48346725D01*
X190258429Y-48404728D01*
X190258432Y-48404734D01*
X190388954Y-48591141D01*
X190549858Y-48752045D01*
X190549861Y-48752047D01*
X190736266Y-48882568D01*
X190942504Y-48978739D01*
X191162308Y-49037635D01*
X191324230Y-49051801D01*
X191388998Y-49057468D01*
X191389000Y-49057468D01*
X191389002Y-49057468D01*
X191445673Y-49052509D01*
X191615692Y-49037635D01*
X191835496Y-48978739D01*
X192041734Y-48882568D01*
X192228139Y-48752047D01*
X192389047Y-48591139D01*
X192519568Y-48404734D01*
X192546618Y-48346724D01*
X192592790Y-48294285D01*
X192659983Y-48275133D01*
X192726865Y-48295348D01*
X192771382Y-48346725D01*
X192798429Y-48404728D01*
X192798432Y-48404734D01*
X192928954Y-48591141D01*
X193089858Y-48752045D01*
X193089861Y-48752047D01*
X193276266Y-48882568D01*
X193482504Y-48978739D01*
X193702308Y-49037635D01*
X193864230Y-49051801D01*
X193928998Y-49057468D01*
X193929000Y-49057468D01*
X193929002Y-49057468D01*
X193985673Y-49052509D01*
X194155692Y-49037635D01*
X194375496Y-48978739D01*
X194581734Y-48882568D01*
X194768139Y-48752047D01*
X194929047Y-48591139D01*
X195059568Y-48404734D01*
X195086618Y-48346724D01*
X195132790Y-48294285D01*
X195199983Y-48275133D01*
X195266865Y-48295348D01*
X195311382Y-48346725D01*
X195338429Y-48404728D01*
X195338432Y-48404734D01*
X195468954Y-48591141D01*
X195629858Y-48752045D01*
X195629861Y-48752047D01*
X195816266Y-48882568D01*
X196022504Y-48978739D01*
X196242308Y-49037635D01*
X196404230Y-49051801D01*
X196468998Y-49057468D01*
X196469000Y-49057468D01*
X196469002Y-49057468D01*
X196525673Y-49052509D01*
X196695692Y-49037635D01*
X196915496Y-48978739D01*
X197121734Y-48882568D01*
X197308139Y-48752047D01*
X197469047Y-48591139D01*
X197599568Y-48404734D01*
X197626618Y-48346724D01*
X197672790Y-48294285D01*
X197739983Y-48275133D01*
X197806865Y-48295348D01*
X197851382Y-48346725D01*
X197878429Y-48404728D01*
X197878432Y-48404734D01*
X198008954Y-48591141D01*
X198169858Y-48752045D01*
X198169861Y-48752047D01*
X198356266Y-48882568D01*
X198562504Y-48978739D01*
X198782308Y-49037635D01*
X198944230Y-49051801D01*
X199008998Y-49057468D01*
X199009000Y-49057468D01*
X199009002Y-49057468D01*
X199065673Y-49052509D01*
X199235692Y-49037635D01*
X199455496Y-48978739D01*
X199661734Y-48882568D01*
X199848139Y-48752047D01*
X200009047Y-48591139D01*
X200139568Y-48404734D01*
X200166618Y-48346724D01*
X200212790Y-48294285D01*
X200279983Y-48275133D01*
X200346865Y-48295348D01*
X200391382Y-48346725D01*
X200418429Y-48404728D01*
X200418432Y-48404734D01*
X200548954Y-48591141D01*
X200709858Y-48752045D01*
X200709861Y-48752047D01*
X200896266Y-48882568D01*
X201102504Y-48978739D01*
X201322308Y-49037635D01*
X201484230Y-49051801D01*
X201548998Y-49057468D01*
X201549000Y-49057468D01*
X201549002Y-49057468D01*
X201605673Y-49052509D01*
X201775692Y-49037635D01*
X201995496Y-48978739D01*
X202201734Y-48882568D01*
X202388139Y-48752047D01*
X202549047Y-48591139D01*
X202679568Y-48404734D01*
X202775739Y-48198496D01*
X202834635Y-47978692D01*
X202854468Y-47752000D01*
X202834635Y-47525308D01*
X202775739Y-47305504D01*
X202679568Y-47099266D01*
X202549047Y-46912861D01*
X202549045Y-46912858D01*
X202388141Y-46751954D01*
X202201734Y-46621432D01*
X202201732Y-46621431D01*
X201995497Y-46525261D01*
X201995488Y-46525258D01*
X201775697Y-46466366D01*
X201775693Y-46466365D01*
X201775692Y-46466365D01*
X201775691Y-46466364D01*
X201775686Y-46466364D01*
X201549002Y-46446532D01*
X201548998Y-46446532D01*
X201322313Y-46466364D01*
X201322302Y-46466366D01*
X201102511Y-46525258D01*
X201102502Y-46525261D01*
X200896267Y-46621431D01*
X200896265Y-46621432D01*
X200709858Y-46751954D01*
X200548954Y-46912858D01*
X200418432Y-47099265D01*
X200418431Y-47099267D01*
X200391382Y-47157275D01*
X200345209Y-47209714D01*
X200278016Y-47228866D01*
X200211135Y-47208650D01*
X200166618Y-47157275D01*
X200139686Y-47099520D01*
X200139568Y-47099266D01*
X200009047Y-46912861D01*
X200009045Y-46912858D01*
X199848141Y-46751954D01*
X199661734Y-46621432D01*
X199661732Y-46621431D01*
X199455497Y-46525261D01*
X199455488Y-46525258D01*
X199235697Y-46466366D01*
X199235693Y-46466365D01*
X199235692Y-46466365D01*
X199235691Y-46466364D01*
X199235686Y-46466364D01*
X199009002Y-46446532D01*
X199008998Y-46446532D01*
X198782313Y-46466364D01*
X198782302Y-46466366D01*
X198562511Y-46525258D01*
X198562502Y-46525261D01*
X198356267Y-46621431D01*
X198356265Y-46621432D01*
X198169858Y-46751954D01*
X198008954Y-46912858D01*
X197878432Y-47099265D01*
X197878431Y-47099267D01*
X197851382Y-47157275D01*
X197805209Y-47209714D01*
X197738016Y-47228866D01*
X197671135Y-47208650D01*
X197626618Y-47157275D01*
X197599686Y-47099520D01*
X197599568Y-47099266D01*
X197469047Y-46912861D01*
X197469045Y-46912858D01*
X197308141Y-46751954D01*
X197121734Y-46621432D01*
X197121732Y-46621431D01*
X196915497Y-46525261D01*
X196915488Y-46525258D01*
X196695697Y-46466366D01*
X196695693Y-46466365D01*
X196695692Y-46466365D01*
X196695691Y-46466364D01*
X196695686Y-46466364D01*
X196469002Y-46446532D01*
X196468998Y-46446532D01*
X196242313Y-46466364D01*
X196242302Y-46466366D01*
X196022511Y-46525258D01*
X196022502Y-46525261D01*
X195816267Y-46621431D01*
X195816265Y-46621432D01*
X195629858Y-46751954D01*
X195468954Y-46912858D01*
X195338432Y-47099265D01*
X195338431Y-47099267D01*
X195311382Y-47157275D01*
X195265209Y-47209714D01*
X195198016Y-47228866D01*
X195131135Y-47208650D01*
X195086618Y-47157275D01*
X195059686Y-47099520D01*
X195059568Y-47099266D01*
X194929047Y-46912861D01*
X194929045Y-46912858D01*
X194768141Y-46751954D01*
X194581734Y-46621432D01*
X194581732Y-46621431D01*
X194375497Y-46525261D01*
X194375488Y-46525258D01*
X194155697Y-46466366D01*
X194155693Y-46466365D01*
X194155692Y-46466365D01*
X194155691Y-46466364D01*
X194155686Y-46466364D01*
X193929002Y-46446532D01*
X193928998Y-46446532D01*
X193702313Y-46466364D01*
X193702302Y-46466366D01*
X193482511Y-46525258D01*
X193482502Y-46525261D01*
X193276267Y-46621431D01*
X193276265Y-46621432D01*
X193089858Y-46751954D01*
X192928954Y-46912858D01*
X192798432Y-47099265D01*
X192798431Y-47099267D01*
X192771382Y-47157275D01*
X192725209Y-47209714D01*
X192658016Y-47228866D01*
X192591135Y-47208650D01*
X192546618Y-47157275D01*
X192519686Y-47099520D01*
X192519568Y-47099266D01*
X192389047Y-46912861D01*
X192389045Y-46912858D01*
X192228141Y-46751954D01*
X192041734Y-46621432D01*
X192041732Y-46621431D01*
X191835497Y-46525261D01*
X191835488Y-46525258D01*
X191615697Y-46466366D01*
X191615693Y-46466365D01*
X191615692Y-46466365D01*
X191615691Y-46466364D01*
X191615686Y-46466364D01*
X191389002Y-46446532D01*
X191388998Y-46446532D01*
X191162313Y-46466364D01*
X191162302Y-46466366D01*
X190942511Y-46525258D01*
X190942502Y-46525261D01*
X190736267Y-46621431D01*
X190736265Y-46621432D01*
X190549858Y-46751954D01*
X190388954Y-46912858D01*
X190258432Y-47099265D01*
X190258431Y-47099267D01*
X190231382Y-47157275D01*
X190185209Y-47209714D01*
X190118016Y-47228866D01*
X190051135Y-47208650D01*
X190006618Y-47157275D01*
X189979686Y-47099520D01*
X189979568Y-47099266D01*
X189849047Y-46912861D01*
X189849045Y-46912858D01*
X189688141Y-46751954D01*
X189501734Y-46621432D01*
X189501732Y-46621431D01*
X189295497Y-46525261D01*
X189295488Y-46525258D01*
X189075697Y-46466366D01*
X189075693Y-46466365D01*
X189075692Y-46466365D01*
X189075691Y-46466364D01*
X189075686Y-46466364D01*
X188849002Y-46446532D01*
X188848998Y-46446532D01*
X188622313Y-46466364D01*
X188622302Y-46466366D01*
X188402511Y-46525258D01*
X188402502Y-46525261D01*
X188196267Y-46621431D01*
X188196265Y-46621432D01*
X188009858Y-46751954D01*
X187848954Y-46912858D01*
X187718432Y-47099265D01*
X187718431Y-47099267D01*
X187691382Y-47157275D01*
X187645209Y-47209714D01*
X187578016Y-47228866D01*
X187511135Y-47208650D01*
X187466618Y-47157275D01*
X187439686Y-47099520D01*
X187439568Y-47099266D01*
X187309047Y-46912861D01*
X187309045Y-46912858D01*
X187148141Y-46751954D01*
X186961734Y-46621432D01*
X186961732Y-46621431D01*
X186755497Y-46525261D01*
X186755488Y-46525258D01*
X186535697Y-46466366D01*
X186535693Y-46466365D01*
X186535692Y-46466365D01*
X186535691Y-46466364D01*
X186535686Y-46466364D01*
X186309002Y-46446532D01*
X186308998Y-46446532D01*
X186082313Y-46466364D01*
X186082302Y-46466366D01*
X185862511Y-46525258D01*
X185862502Y-46525261D01*
X185656267Y-46621431D01*
X185656265Y-46621432D01*
X185469858Y-46751954D01*
X185308954Y-46912858D01*
X185178432Y-47099265D01*
X185178431Y-47099267D01*
X185151382Y-47157275D01*
X185105209Y-47209714D01*
X185038016Y-47228866D01*
X184971135Y-47208650D01*
X184926618Y-47157275D01*
X184899686Y-47099520D01*
X184899568Y-47099266D01*
X184769047Y-46912861D01*
X184769045Y-46912858D01*
X184608141Y-46751954D01*
X184421734Y-46621432D01*
X184421732Y-46621431D01*
X184215497Y-46525261D01*
X184215488Y-46525258D01*
X183995697Y-46466366D01*
X183995693Y-46466365D01*
X183995692Y-46466365D01*
X183995691Y-46466364D01*
X183995686Y-46466364D01*
X183769002Y-46446532D01*
X183768998Y-46446532D01*
X183542313Y-46466364D01*
X183542302Y-46466366D01*
X183322511Y-46525258D01*
X183322502Y-46525261D01*
X183116267Y-46621431D01*
X183116265Y-46621432D01*
X182929858Y-46751954D01*
X182768954Y-46912858D01*
X182638432Y-47099265D01*
X182638431Y-47099267D01*
X182542261Y-47305502D01*
X182542258Y-47305511D01*
X182483366Y-47525302D01*
X182483364Y-47525313D01*
X182463532Y-47751998D01*
X181014468Y-47751998D01*
X180994635Y-47525308D01*
X180935739Y-47305504D01*
X180839568Y-47099266D01*
X180709047Y-46912861D01*
X180709045Y-46912858D01*
X180548141Y-46751954D01*
X180361734Y-46621432D01*
X180361732Y-46621431D01*
X180155497Y-46525261D01*
X180155488Y-46525258D01*
X179935697Y-46466366D01*
X179935693Y-46466365D01*
X179935692Y-46466365D01*
X179935691Y-46466364D01*
X179935686Y-46466364D01*
X179709002Y-46446532D01*
X179708998Y-46446532D01*
X179482313Y-46466364D01*
X179482302Y-46466366D01*
X179262511Y-46525258D01*
X179262502Y-46525261D01*
X179056267Y-46621431D01*
X179056265Y-46621432D01*
X178869858Y-46751954D01*
X178708954Y-46912858D01*
X178578432Y-47099265D01*
X178578431Y-47099267D01*
X178551382Y-47157275D01*
X178505209Y-47209714D01*
X178438016Y-47228866D01*
X178371135Y-47208650D01*
X178326618Y-47157275D01*
X178299686Y-47099520D01*
X178299568Y-47099266D01*
X178169047Y-46912861D01*
X178169045Y-46912858D01*
X178008141Y-46751954D01*
X177821734Y-46621432D01*
X177821732Y-46621431D01*
X177615497Y-46525261D01*
X177615488Y-46525258D01*
X177395697Y-46466366D01*
X177395693Y-46466365D01*
X177395692Y-46466365D01*
X177395691Y-46466364D01*
X177395686Y-46466364D01*
X177169002Y-46446532D01*
X177168998Y-46446532D01*
X176942313Y-46466364D01*
X176942302Y-46466366D01*
X176722511Y-46525258D01*
X176722502Y-46525261D01*
X176516267Y-46621431D01*
X176516265Y-46621432D01*
X176329858Y-46751954D01*
X176168954Y-46912858D01*
X176038432Y-47099265D01*
X176038431Y-47099267D01*
X176011382Y-47157275D01*
X175965209Y-47209714D01*
X175898016Y-47228866D01*
X175831135Y-47208650D01*
X175786618Y-47157275D01*
X175759686Y-47099520D01*
X175759568Y-47099266D01*
X175629047Y-46912861D01*
X175629045Y-46912858D01*
X175468141Y-46751954D01*
X175281734Y-46621432D01*
X175281732Y-46621431D01*
X175075497Y-46525261D01*
X175075488Y-46525258D01*
X174855697Y-46466366D01*
X174855693Y-46466365D01*
X174855692Y-46466365D01*
X174855691Y-46466364D01*
X174855686Y-46466364D01*
X174629002Y-46446532D01*
X174628998Y-46446532D01*
X174402313Y-46466364D01*
X174402302Y-46466366D01*
X174182511Y-46525258D01*
X174182502Y-46525261D01*
X173976267Y-46621431D01*
X173976265Y-46621432D01*
X173789858Y-46751954D01*
X173628954Y-46912858D01*
X173498432Y-47099265D01*
X173498431Y-47099267D01*
X173471382Y-47157275D01*
X173425209Y-47209714D01*
X173358016Y-47228866D01*
X173291135Y-47208650D01*
X173246618Y-47157275D01*
X173219686Y-47099520D01*
X173219568Y-47099266D01*
X173089047Y-46912861D01*
X173089045Y-46912858D01*
X172928141Y-46751954D01*
X172741734Y-46621432D01*
X172741732Y-46621431D01*
X172535497Y-46525261D01*
X172535488Y-46525258D01*
X172315697Y-46466366D01*
X172315693Y-46466365D01*
X172315692Y-46466365D01*
X172315691Y-46466364D01*
X172315686Y-46466364D01*
X172089002Y-46446532D01*
X172088998Y-46446532D01*
X171862313Y-46466364D01*
X171862302Y-46466366D01*
X171642511Y-46525258D01*
X171642502Y-46525261D01*
X171436267Y-46621431D01*
X171436265Y-46621432D01*
X171249858Y-46751954D01*
X171088954Y-46912858D01*
X170958432Y-47099265D01*
X170958431Y-47099267D01*
X170931382Y-47157275D01*
X170885209Y-47209714D01*
X170818016Y-47228866D01*
X170751135Y-47208650D01*
X170706618Y-47157275D01*
X170679686Y-47099520D01*
X170679568Y-47099266D01*
X170549047Y-46912861D01*
X170549045Y-46912858D01*
X170388141Y-46751954D01*
X170201734Y-46621432D01*
X170201732Y-46621431D01*
X169995497Y-46525261D01*
X169995488Y-46525258D01*
X169775697Y-46466366D01*
X169775693Y-46466365D01*
X169775692Y-46466365D01*
X169775691Y-46466364D01*
X169775686Y-46466364D01*
X169549002Y-46446532D01*
X169548998Y-46446532D01*
X169322313Y-46466364D01*
X169322302Y-46466366D01*
X169102511Y-46525258D01*
X169102502Y-46525261D01*
X168896267Y-46621431D01*
X168896265Y-46621432D01*
X168709858Y-46751954D01*
X168548954Y-46912858D01*
X168418432Y-47099265D01*
X168418431Y-47099267D01*
X168391382Y-47157275D01*
X168345209Y-47209714D01*
X168278016Y-47228866D01*
X168211135Y-47208650D01*
X168166618Y-47157275D01*
X168139686Y-47099520D01*
X168139568Y-47099266D01*
X168009047Y-46912861D01*
X168009045Y-46912858D01*
X167848141Y-46751954D01*
X167661734Y-46621432D01*
X167661732Y-46621431D01*
X167455497Y-46525261D01*
X167455488Y-46525258D01*
X167235697Y-46466366D01*
X167235693Y-46466365D01*
X167235692Y-46466365D01*
X167235691Y-46466364D01*
X167235686Y-46466364D01*
X167009002Y-46446532D01*
X167008998Y-46446532D01*
X166782313Y-46466364D01*
X166782302Y-46466366D01*
X166562511Y-46525258D01*
X166562502Y-46525261D01*
X166356267Y-46621431D01*
X166356265Y-46621432D01*
X166169858Y-46751954D01*
X166008954Y-46912858D01*
X165878433Y-47099264D01*
X165878432Y-47099266D01*
X165878315Y-47099518D01*
X165851106Y-47157867D01*
X165804933Y-47210306D01*
X165737739Y-47229457D01*
X165670858Y-47209241D01*
X165626342Y-47157865D01*
X165599135Y-47099520D01*
X165599134Y-47099518D01*
X165468657Y-46913179D01*
X165307820Y-46752342D01*
X165121482Y-46621865D01*
X164915328Y-46525734D01*
X164719000Y-46473127D01*
X164719000Y-47318988D01*
X164661993Y-47286075D01*
X164534826Y-47252000D01*
X164403174Y-47252000D01*
X164276007Y-47286075D01*
X164219000Y-47318988D01*
X164219000Y-46473127D01*
X164022671Y-46525734D01*
X163816517Y-46621865D01*
X163630179Y-46752342D01*
X163469342Y-46913179D01*
X163338867Y-47099515D01*
X163311657Y-47157867D01*
X163265484Y-47210306D01*
X163198290Y-47229457D01*
X163131409Y-47209241D01*
X163086893Y-47157865D01*
X163059685Y-47099518D01*
X163059568Y-47099266D01*
X162929047Y-46912861D01*
X162929045Y-46912858D01*
X162768141Y-46751954D01*
X162581734Y-46621432D01*
X162581732Y-46621431D01*
X162375497Y-46525261D01*
X162375488Y-46525258D01*
X162155697Y-46466366D01*
X162155693Y-46466365D01*
X162155692Y-46466365D01*
X162155691Y-46466364D01*
X162155686Y-46466364D01*
X161929002Y-46446532D01*
X161928998Y-46446532D01*
X161702313Y-46466364D01*
X161702302Y-46466366D01*
X161482511Y-46525258D01*
X161482502Y-46525261D01*
X161276267Y-46621431D01*
X161276265Y-46621432D01*
X161089858Y-46751954D01*
X160928954Y-46912858D01*
X160798432Y-47099265D01*
X160798431Y-47099267D01*
X160771382Y-47157275D01*
X160725209Y-47209714D01*
X160658016Y-47228866D01*
X160591135Y-47208650D01*
X160546618Y-47157275D01*
X160519686Y-47099520D01*
X160519568Y-47099266D01*
X160389047Y-46912861D01*
X160389045Y-46912858D01*
X160228141Y-46751954D01*
X160041734Y-46621432D01*
X160041732Y-46621431D01*
X159835497Y-46525261D01*
X159835488Y-46525258D01*
X159615697Y-46466366D01*
X159615693Y-46466365D01*
X159615692Y-46466365D01*
X159615691Y-46466364D01*
X159615686Y-46466364D01*
X159389002Y-46446532D01*
X159388998Y-46446532D01*
X159162313Y-46466364D01*
X159162302Y-46466366D01*
X158942511Y-46525258D01*
X158942502Y-46525261D01*
X158736267Y-46621431D01*
X158736265Y-46621432D01*
X158549858Y-46751954D01*
X158388954Y-46912858D01*
X158258432Y-47099265D01*
X158258431Y-47099267D01*
X158231382Y-47157275D01*
X158185209Y-47209714D01*
X158118016Y-47228866D01*
X158051135Y-47208650D01*
X158006618Y-47157275D01*
X157979686Y-47099520D01*
X157979568Y-47099266D01*
X157849047Y-46912861D01*
X157849045Y-46912858D01*
X157688141Y-46751954D01*
X157501734Y-46621432D01*
X157501732Y-46621431D01*
X157295497Y-46525261D01*
X157295488Y-46525258D01*
X157075697Y-46466366D01*
X157075693Y-46466365D01*
X157075692Y-46466365D01*
X157075691Y-46466364D01*
X157075686Y-46466364D01*
X156849002Y-46446532D01*
X156848998Y-46446532D01*
X156622313Y-46466364D01*
X156622302Y-46466366D01*
X156402511Y-46525258D01*
X156402502Y-46525261D01*
X156196267Y-46621431D01*
X156196265Y-46621432D01*
X156009858Y-46751954D01*
X155848954Y-46912858D01*
X155718432Y-47099265D01*
X155718431Y-47099267D01*
X155622261Y-47305502D01*
X155622258Y-47305511D01*
X155563366Y-47525302D01*
X155563364Y-47525313D01*
X155543532Y-47751998D01*
X153662500Y-47751998D01*
X153662500Y-44312500D01*
X153682185Y-44245461D01*
X153734989Y-44199706D01*
X153786500Y-44188500D01*
X206639500Y-44188500D01*
X206706539Y-44208185D01*
G37*
%TD.AperFunction*%
%TD*%
M02*
