M48
; DRILL file {KiCad 8.0.6} date 2025-01-14T17:08:36+0100
; FORMAT={-:-/ absolute / metric / decimal}
; #@! TF.CreationDate,2025-01-14T17:08:36+01:00
; #@! TF.GenerationSoftware,Kicad,Pcbnew,8.0.6
; #@! TF.FileFunction,Plated,1,2,PTH
FMAT,2
METRIC
; #@! TA.AperFunction,Plated,PTH,ComponentDrill
T1C1.000
; #@! TA.AperFunction,Plated,PTH,ComponentDrill
T2C1.100
%
G90
G05
T1
X156.849Y-47.752
X159.389Y-47.752
X161.929Y-47.752
X164.469Y-47.752
X165.989Y-96.012
X167.009Y-47.752
X168.529Y-96.012
X169.549Y-47.752
X171.069Y-96.012
X172.089Y-47.752
X173.609Y-96.012
X174.629Y-47.752
X175.895Y-54.864
X175.895Y-57.404
X175.895Y-59.944
X176.149Y-83.693
X176.149Y-86.233
X176.149Y-88.773
X176.149Y-96.012
X177.169Y-47.752
X178.689Y-96.012
X179.709Y-47.752
X181.229Y-96.012
X183.769Y-47.752
X183.769Y-96.012
X186.309Y-47.752
X187.223Y-67.574
X187.223Y-70.114
X187.223Y-72.654
X187.223Y-75.194
X188.849Y-47.752
X188.849Y-96.012
X191.389Y-47.752
X191.389Y-96.012
X193.929Y-47.752
X193.929Y-96.012
X196.469Y-47.752
X196.469Y-96.012
X199.009Y-47.752
X199.009Y-96.012
X201.549Y-47.752
X201.549Y-96.012
T2
X162.941Y-69.342
X162.941Y-73.942
M30
