%TF.GenerationSoftware,KiCad,Pcbnew,8.0.6*%
%TF.CreationDate,2025-01-14T16:55:08+01:00*%
%TF.ProjectId,Receptor Laser,52656365-7074-46f7-9220-4c617365722e,rev?*%
%TF.SameCoordinates,Original*%
%TF.FileFunction,Copper,L1,Top*%
%TF.FilePolarity,Positive*%
%FSLAX46Y46*%
G04 Gerber Fmt 4.6, Leading zero omitted, Abs format (unit mm)*
G04 Created by KiCad (PCBNEW 8.0.6) date 2025-01-14 16:55:08*
%MOMM*%
%LPD*%
G01*
G04 APERTURE LIST*
G04 Aperture macros list*
%AMRoundRect*
0 Rectangle with rounded corners*
0 $1 Rounding radius*
0 $2 $3 $4 $5 $6 $7 $8 $9 X,Y pos of 4 corners*
0 Add a 4 corners polygon primitive as box body*
4,1,4,$2,$3,$4,$5,$6,$7,$8,$9,$2,$3,0*
0 Add four circle primitives for the rounded corners*
1,1,$1+$1,$2,$3*
1,1,$1+$1,$4,$5*
1,1,$1+$1,$6,$7*
1,1,$1+$1,$8,$9*
0 Add four rect primitives between the rounded corners*
20,1,$1+$1,$2,$3,$4,$5,0*
20,1,$1+$1,$4,$5,$6,$7,0*
20,1,$1+$1,$6,$7,$8,$9,0*
20,1,$1+$1,$8,$9,$2,$3,0*%
G04 Aperture macros list end*
%TA.AperFunction,ComponentPad*%
%ADD10R,2.000000X2.000000*%
%TD*%
%TA.AperFunction,ComponentPad*%
%ADD11C,2.000000*%
%TD*%
%TA.AperFunction,SMDPad,CuDef*%
%ADD12R,0.990000X1.380000*%
%TD*%
%TA.AperFunction,SMDPad,CuDef*%
%ADD13RoundRect,0.150000X-0.825000X-0.150000X0.825000X-0.150000X0.825000X0.150000X-0.825000X0.150000X0*%
%TD*%
%TA.AperFunction,SMDPad,CuDef*%
%ADD14RoundRect,0.150000X0.825000X0.150000X-0.825000X0.150000X-0.825000X-0.150000X0.825000X-0.150000X0*%
%TD*%
%TA.AperFunction,ComponentPad*%
%ADD15C,1.400000*%
%TD*%
%TA.AperFunction,ComponentPad*%
%ADD16R,1.600000X1.600000*%
%TD*%
%TA.AperFunction,ComponentPad*%
%ADD17O,1.600000X1.600000*%
%TD*%
%TA.AperFunction,ViaPad*%
%ADD18C,1.016000*%
%TD*%
%TA.AperFunction,Conductor*%
%ADD19C,0.508000*%
%TD*%
%TA.AperFunction,Conductor*%
%ADD20C,1.016000*%
%TD*%
G04 APERTURE END LIST*
D10*
%TO.P,BZ1,1,-*%
%TO.N,/BUZZ*%
X52334000Y-72644000D03*
D11*
%TO.P,BZ1,2,+*%
%TO.N,GND*%
X59934000Y-72644000D03*
%TD*%
D12*
%TO.P,PH43,A*%
%TO.N,/PH-43*%
X75585000Y-112282000D03*
%TO.P,PH43,C*%
%TO.N,+5V*%
X73655000Y-112282000D03*
%TD*%
%TO.P,PH40,A*%
%TO.N,/PH-40*%
X75585000Y-106282000D03*
%TO.P,PH40,C*%
%TO.N,+5V*%
X73655000Y-106282000D03*
%TD*%
%TO.P,PH11,A*%
%TO.N,/PH-11*%
X70155000Y-103282000D03*
%TO.P,PH11,C*%
%TO.N,+5V*%
X72085000Y-103282000D03*
%TD*%
%TO.P,PH8,A*%
%TO.N,/PH-8*%
X70155000Y-109282000D03*
%TO.P,PH8,C*%
%TO.N,+5V*%
X72085000Y-109282000D03*
%TD*%
%TO.P,PH2,A*%
%TO.N,/PH-2*%
X70155000Y-121282000D03*
%TO.P,PH2,C*%
%TO.N,+5V*%
X72085000Y-121282000D03*
%TD*%
%TO.P,PH10,A*%
%TO.N,/PH-10*%
X70155000Y-105282000D03*
%TO.P,PH10,C*%
%TO.N,+5V*%
X72085000Y-105282000D03*
%TD*%
%TO.P,PH27,A*%
%TO.N,/PH-27*%
X75585000Y-80282000D03*
%TO.P,PH27,C*%
%TO.N,+5V*%
X73655000Y-80282000D03*
%TD*%
%TO.P,PH31,A*%
%TO.N,/PH-31*%
X75585000Y-88282000D03*
%TO.P,PH31,C*%
%TO.N,+5V*%
X73655000Y-88282000D03*
%TD*%
%TO.P,PH34,A*%
%TO.N,/PH-34*%
X75585000Y-94282000D03*
%TO.P,PH34,C*%
%TO.N,+5V*%
X73655000Y-94282000D03*
%TD*%
%TO.P,PH29,A*%
%TO.N,/PH-29*%
X75585000Y-84282000D03*
%TO.P,PH29,C*%
%TO.N,+5V*%
X73655000Y-84282000D03*
%TD*%
%TO.P,PH20,A*%
%TO.N,/PH-20*%
X70155000Y-85282000D03*
%TO.P,PH20,C*%
%TO.N,+5V*%
X72085000Y-85282000D03*
%TD*%
%TO.P,PH30,A*%
%TO.N,/PH-30*%
X75585000Y-86282000D03*
%TO.P,PH30,C*%
%TO.N,+5V*%
X73655000Y-86282000D03*
%TD*%
%TO.P,PH17,A*%
%TO.N,/PH-17*%
X70155000Y-91282000D03*
%TO.P,PH17,C*%
%TO.N,+5V*%
X72085000Y-91282000D03*
%TD*%
%TO.P,PH1,A*%
%TO.N,/PH-1*%
X70155000Y-123282000D03*
%TO.P,PH1,C*%
%TO.N,+5V*%
X72085000Y-123282000D03*
%TD*%
D13*
%TO.P,ADC5,1,CH0*%
%TO.N,/PH-33*%
X78645000Y-94837000D03*
%TO.P,ADC5,2,CH1*%
%TO.N,/PH-34*%
X78645000Y-96107000D03*
%TO.P,ADC5,3,CH2*%
%TO.N,/PH-35*%
X78645000Y-97377000D03*
%TO.P,ADC5,4,CH3*%
%TO.N,/PH-36*%
X78645000Y-98647000D03*
%TO.P,ADC5,5,CH4*%
%TO.N,/PH-37*%
X78645000Y-99917000D03*
%TO.P,ADC5,6,CH5*%
%TO.N,/PH-38*%
X78645000Y-101187000D03*
%TO.P,ADC5,7,CH6*%
%TO.N,/PH-39*%
X78645000Y-102457000D03*
%TO.P,ADC5,8,CH7*%
%TO.N,/PH-40*%
X78645000Y-103727000D03*
%TO.P,ADC5,9,DGND*%
%TO.N,GND*%
X83595000Y-103727000D03*
%TO.P,ADC5,10,~{CS}/SHDN*%
%TO.N,/CS5*%
X83595000Y-102457000D03*
%TO.P,ADC5,11,Din*%
%TO.N,/MOSI*%
X83595000Y-101187000D03*
%TO.P,ADC5,12,Dout*%
%TO.N,/MISO*%
X83595000Y-99917000D03*
%TO.P,ADC5,13,CLK*%
%TO.N,/CLK*%
X83595000Y-98647000D03*
%TO.P,ADC5,14,AGND*%
%TO.N,GND*%
X83595000Y-97377000D03*
%TO.P,ADC5,15,Vref*%
%TO.N,+5V*%
X83595000Y-96107000D03*
%TO.P,ADC5,16,Vdd*%
X83595000Y-94837000D03*
%TD*%
D12*
%TO.P,PH4,A*%
%TO.N,/PH-4*%
X70155000Y-117282000D03*
%TO.P,PH4,C*%
%TO.N,+5V*%
X72085000Y-117282000D03*
%TD*%
%TO.P,PH39,A*%
%TO.N,/PH-39*%
X75585000Y-104282000D03*
%TO.P,PH39,C*%
%TO.N,+5V*%
X73655000Y-104282000D03*
%TD*%
%TO.P,PH47,A*%
%TO.N,/PH-47*%
X75585000Y-120282000D03*
%TO.P,PH47,C*%
%TO.N,+5V*%
X73655000Y-120282000D03*
%TD*%
%TO.P,PH36,A*%
%TO.N,/PH-36*%
X75585000Y-98282000D03*
%TO.P,PH36,C*%
%TO.N,+5V*%
X73655000Y-98282000D03*
%TD*%
%TO.P,PH28,A*%
%TO.N,/PH-28*%
X75585000Y-82282000D03*
%TO.P,PH28,C*%
%TO.N,+5V*%
X73655000Y-82282000D03*
%TD*%
%TO.P,PH3,A*%
%TO.N,/PH-3*%
X70155000Y-119282000D03*
%TO.P,PH3,C*%
%TO.N,+5V*%
X72085000Y-119282000D03*
%TD*%
%TO.P,PH26,A*%
%TO.N,/PH-26*%
X75550000Y-78282000D03*
%TO.P,PH26,C*%
%TO.N,+5V*%
X73620000Y-78282000D03*
%TD*%
%TO.P,PH12,A*%
%TO.N,/PH-12*%
X70155000Y-101282000D03*
%TO.P,PH12,C*%
%TO.N,+5V*%
X72085000Y-101282000D03*
%TD*%
D14*
%TO.P,ADC1,1,CH0*%
%TO.N,/PH-1*%
X67095000Y-120727000D03*
%TO.P,ADC1,2,CH1*%
%TO.N,/PH-2*%
X67095000Y-119457000D03*
%TO.P,ADC1,3,CH2*%
%TO.N,/PH-3*%
X67095000Y-118187000D03*
%TO.P,ADC1,4,CH3*%
%TO.N,/PH-4*%
X67095000Y-116917000D03*
%TO.P,ADC1,5,CH4*%
%TO.N,/PH-5*%
X67095000Y-115647000D03*
%TO.P,ADC1,6,CH5*%
%TO.N,/PH-6*%
X67095000Y-114377000D03*
%TO.P,ADC1,7,CH6*%
%TO.N,/PH-7*%
X67095000Y-113107000D03*
%TO.P,ADC1,8,CH7*%
%TO.N,/PH-8*%
X67095000Y-111837000D03*
%TO.P,ADC1,9,DGND*%
%TO.N,GND*%
X62145000Y-111837000D03*
%TO.P,ADC1,10,~{CS}/SHDN*%
%TO.N,/CS1*%
X62145000Y-113107000D03*
%TO.P,ADC1,11,Din*%
%TO.N,/MOSI*%
X62145000Y-114377000D03*
%TO.P,ADC1,12,Dout*%
%TO.N,/MISO*%
X62145000Y-115647000D03*
%TO.P,ADC1,13,CLK*%
%TO.N,/CLK*%
X62145000Y-116917000D03*
%TO.P,ADC1,14,AGND*%
%TO.N,GND*%
X62145000Y-118187000D03*
%TO.P,ADC1,15,Vref*%
%TO.N,+5V*%
X62145000Y-119457000D03*
%TO.P,ADC1,16,Vdd*%
X62145000Y-120727000D03*
%TD*%
D12*
%TO.P,PH13,A*%
%TO.N,/PH-13*%
X70155000Y-99282000D03*
%TO.P,PH13,C*%
%TO.N,+5V*%
X72085000Y-99282000D03*
%TD*%
%TO.P,PH6,A*%
%TO.N,/PH-6*%
X70155000Y-113282000D03*
%TO.P,PH6,C*%
%TO.N,+5V*%
X72085000Y-113282000D03*
%TD*%
%TO.P,PH32,A*%
%TO.N,/PH-32*%
X75585000Y-90282000D03*
%TO.P,PH32,C*%
%TO.N,+5V*%
X73655000Y-90282000D03*
%TD*%
%TO.P,PH24,A*%
%TO.N,/PH-24*%
X70155000Y-77282000D03*
%TO.P,PH24,C*%
%TO.N,+5V*%
X72085000Y-77282000D03*
%TD*%
%TO.P,PH5,A*%
%TO.N,/PH-5*%
X70155000Y-115282000D03*
%TO.P,PH5,C*%
%TO.N,+5V*%
X72085000Y-115282000D03*
%TD*%
%TO.P,PH19,A*%
%TO.N,/PH-19*%
X70155000Y-87282000D03*
%TO.P,PH19,C*%
%TO.N,+5V*%
X72085000Y-87282000D03*
%TD*%
%TO.P,PH14,A*%
%TO.N,/PH-14*%
X70155000Y-97282000D03*
%TO.P,PH14,C*%
%TO.N,+5V*%
X72085000Y-97282000D03*
%TD*%
%TO.P,PH16,A*%
%TO.N,/PH-16*%
X70155000Y-93282000D03*
%TO.P,PH16,C*%
%TO.N,+5V*%
X72085000Y-93282000D03*
%TD*%
D13*
%TO.P,ADC6,1,CH0*%
%TO.N,/PH-41*%
X78620000Y-110782000D03*
%TO.P,ADC6,2,CH1*%
%TO.N,/PH-42*%
X78620000Y-112052000D03*
%TO.P,ADC6,3,CH2*%
%TO.N,/PH-43*%
X78620000Y-113322000D03*
%TO.P,ADC6,4,CH3*%
%TO.N,/PH-44*%
X78620000Y-114592000D03*
%TO.P,ADC6,5,CH4*%
%TO.N,/PH-45*%
X78620000Y-115862000D03*
%TO.P,ADC6,6,CH5*%
%TO.N,/PH-46*%
X78620000Y-117132000D03*
%TO.P,ADC6,7,CH6*%
%TO.N,/PH-47*%
X78620000Y-118402000D03*
%TO.P,ADC6,8,CH7*%
%TO.N,/PH-48*%
X78620000Y-119672000D03*
%TO.P,ADC6,9,DGND*%
%TO.N,GND*%
X83570000Y-119672000D03*
%TO.P,ADC6,10,~{CS}/SHDN*%
%TO.N,/CS6*%
X83570000Y-118402000D03*
%TO.P,ADC6,11,Din*%
%TO.N,/MOSI*%
X83570000Y-117132000D03*
%TO.P,ADC6,12,Dout*%
%TO.N,/MISO*%
X83570000Y-115862000D03*
%TO.P,ADC6,13,CLK*%
%TO.N,/CLK*%
X83570000Y-114592000D03*
%TO.P,ADC6,14,AGND*%
%TO.N,GND*%
X83570000Y-113322000D03*
%TO.P,ADC6,15,Vref*%
%TO.N,+5V*%
X83570000Y-112052000D03*
%TO.P,ADC6,16,Vdd*%
X83570000Y-110782000D03*
%TD*%
D12*
%TO.P,PH42,A*%
%TO.N,/PH-42*%
X75585000Y-110282000D03*
%TO.P,PH42,C*%
%TO.N,+5V*%
X73655000Y-110282000D03*
%TD*%
D13*
%TO.P,ADC4,1,CH0*%
%TO.N,/PH-25*%
X78645000Y-78837000D03*
%TO.P,ADC4,2,CH1*%
%TO.N,/PH-26*%
X78645000Y-80107000D03*
%TO.P,ADC4,3,CH2*%
%TO.N,/PH-27*%
X78645000Y-81377000D03*
%TO.P,ADC4,4,CH3*%
%TO.N,/PH-28*%
X78645000Y-82647000D03*
%TO.P,ADC4,5,CH4*%
%TO.N,/PH-29*%
X78645000Y-83917000D03*
%TO.P,ADC4,6,CH5*%
%TO.N,/PH-30*%
X78645000Y-85187000D03*
%TO.P,ADC4,7,CH6*%
%TO.N,/PH-31*%
X78645000Y-86457000D03*
%TO.P,ADC4,8,CH7*%
%TO.N,/PH-32*%
X78645000Y-87727000D03*
%TO.P,ADC4,9,DGND*%
%TO.N,GND*%
X83595000Y-87727000D03*
%TO.P,ADC4,10,~{CS}/SHDN*%
%TO.N,/CS4*%
X83595000Y-86457000D03*
%TO.P,ADC4,11,Din*%
%TO.N,/MOSI*%
X83595000Y-85187000D03*
%TO.P,ADC4,12,Dout*%
%TO.N,/MISO*%
X83595000Y-83917000D03*
%TO.P,ADC4,13,CLK*%
%TO.N,/CLK*%
X83595000Y-82647000D03*
%TO.P,ADC4,14,AGND*%
%TO.N,GND*%
X83595000Y-81377000D03*
%TO.P,ADC4,15,Vref*%
%TO.N,+5V*%
X83595000Y-80107000D03*
%TO.P,ADC4,16,Vdd*%
X83595000Y-78837000D03*
%TD*%
D12*
%TO.P,PH35,A*%
%TO.N,/PH-35*%
X75585000Y-96282000D03*
%TO.P,PH35,C*%
%TO.N,+5V*%
X73655000Y-96282000D03*
%TD*%
%TO.P,PH48,A*%
%TO.N,/PH-48*%
X75585000Y-122282000D03*
%TO.P,PH48,C*%
%TO.N,+5V*%
X73655000Y-122282000D03*
%TD*%
%TO.P,PH41,A*%
%TO.N,/PH-41*%
X75585000Y-108282000D03*
%TO.P,PH41,C*%
%TO.N,+5V*%
X73655000Y-108282000D03*
%TD*%
%TO.P,PH38,A*%
%TO.N,/PH-38*%
X75585000Y-102282000D03*
%TO.P,PH38,C*%
%TO.N,+5V*%
X73655000Y-102282000D03*
%TD*%
%TO.P,PH25,A*%
%TO.N,/PH-25*%
X75585000Y-76282000D03*
%TO.P,PH25,C*%
%TO.N,+5V*%
X73655000Y-76282000D03*
%TD*%
%TO.P,PH21,A*%
%TO.N,/PH-21*%
X70155000Y-83282000D03*
%TO.P,PH21,C*%
%TO.N,+5V*%
X72085000Y-83282000D03*
%TD*%
%TO.P,PH15,A*%
%TO.N,/PH-15*%
X70155000Y-95282000D03*
%TO.P,PH15,C*%
%TO.N,+5V*%
X72085000Y-95282000D03*
%TD*%
D14*
%TO.P,ADC3,1,CH0*%
%TO.N,/PH-17*%
X67120000Y-88727000D03*
%TO.P,ADC3,2,CH1*%
%TO.N,/PH-18*%
X67120000Y-87457000D03*
%TO.P,ADC3,3,CH2*%
%TO.N,/PH-19*%
X67120000Y-86187000D03*
%TO.P,ADC3,4,CH3*%
%TO.N,/PH-20*%
X67120000Y-84917000D03*
%TO.P,ADC3,5,CH4*%
%TO.N,/PH-21*%
X67120000Y-83647000D03*
%TO.P,ADC3,6,CH5*%
%TO.N,/PH-22*%
X67120000Y-82377000D03*
%TO.P,ADC3,7,CH6*%
%TO.N,/PH-23*%
X67120000Y-81107000D03*
%TO.P,ADC3,8,CH7*%
%TO.N,/PH-24*%
X67120000Y-79837000D03*
%TO.P,ADC3,9,DGND*%
%TO.N,GND*%
X62170000Y-79837000D03*
%TO.P,ADC3,10,~{CS}/SHDN*%
%TO.N,/CS3*%
X62170000Y-81107000D03*
%TO.P,ADC3,11,Din*%
%TO.N,/MOSI*%
X62170000Y-82377000D03*
%TO.P,ADC3,12,Dout*%
%TO.N,/MISO*%
X62170000Y-83647000D03*
%TO.P,ADC3,13,CLK*%
%TO.N,/CLK*%
X62170000Y-84917000D03*
%TO.P,ADC3,14,AGND*%
%TO.N,GND*%
X62170000Y-86187000D03*
%TO.P,ADC3,15,Vref*%
%TO.N,+5V*%
X62170000Y-87457000D03*
%TO.P,ADC3,16,Vdd*%
X62170000Y-88727000D03*
%TD*%
D12*
%TO.P,PH44,A*%
%TO.N,/PH-44*%
X75585000Y-114282000D03*
%TO.P,PH44,C*%
%TO.N,+5V*%
X73655000Y-114282000D03*
%TD*%
%TO.P,PH7,A*%
%TO.N,/PH-7*%
X70155000Y-111282000D03*
%TO.P,PH7,C*%
%TO.N,+5V*%
X72085000Y-111282000D03*
%TD*%
%TO.P,PH18,A*%
%TO.N,/PH-18*%
X70155000Y-89282000D03*
%TO.P,PH18,C*%
%TO.N,+5V*%
X72085000Y-89282000D03*
%TD*%
%TO.P,PH37,A*%
%TO.N,/PH-37*%
X75585000Y-100282000D03*
%TO.P,PH37,C*%
%TO.N,+5V*%
X73655000Y-100282000D03*
%TD*%
%TO.P,PH46,A*%
%TO.N,/PH-46*%
X75585000Y-118282000D03*
%TO.P,PH46,C*%
%TO.N,+5V*%
X73655000Y-118282000D03*
%TD*%
%TO.P,PH22,A*%
%TO.N,/PH-22*%
X70155000Y-81282000D03*
%TO.P,PH22,C*%
%TO.N,+5V*%
X72085000Y-81282000D03*
%TD*%
%TO.P,PH23,A*%
%TO.N,/PH-23*%
X70155000Y-79282000D03*
%TO.P,PH23,C*%
%TO.N,+5V*%
X72085000Y-79282000D03*
%TD*%
%TO.P,PH9,A*%
%TO.N,/PH-9*%
X70155000Y-107282000D03*
%TO.P,PH9,C*%
%TO.N,+5V*%
X72085000Y-107282000D03*
%TD*%
%TO.P,PH45,A*%
%TO.N,/PH-45*%
X75550000Y-116282000D03*
%TO.P,PH45,C*%
%TO.N,+5V*%
X73620000Y-116282000D03*
%TD*%
%TO.P,PH33,A*%
%TO.N,/PH-33*%
X75585000Y-92282000D03*
%TO.P,PH33,C*%
%TO.N,+5V*%
X73655000Y-92282000D03*
%TD*%
D15*
%TO.P,OLED1,1,SDA*%
%TO.N,/DISP_SDA*%
X51054000Y-118364000D03*
%TO.P,OLED1,2,SCL*%
%TO.N,/DISP_SCL*%
X53594000Y-118364000D03*
%TO.P,OLED1,3,VCC*%
%TO.N,+5V*%
X56134000Y-118364000D03*
%TO.P,OLED1,4,GND*%
%TO.N,GND*%
X58674000Y-118364000D03*
%TD*%
D14*
%TO.P,ADC2,1,CH0*%
%TO.N,/PH-9*%
X67095000Y-104727000D03*
%TO.P,ADC2,2,CH1*%
%TO.N,/PH-10*%
X67095000Y-103457000D03*
%TO.P,ADC2,3,CH2*%
%TO.N,/PH-11*%
X67095000Y-102187000D03*
%TO.P,ADC2,4,CH3*%
%TO.N,/PH-12*%
X67095000Y-100917000D03*
%TO.P,ADC2,5,CH4*%
%TO.N,/PH-13*%
X67095000Y-99647000D03*
%TO.P,ADC2,6,CH5*%
%TO.N,/PH-14*%
X67095000Y-98377000D03*
%TO.P,ADC2,7,CH6*%
%TO.N,/PH-15*%
X67095000Y-97107000D03*
%TO.P,ADC2,8,CH7*%
%TO.N,/PH-16*%
X67095000Y-95837000D03*
%TO.P,ADC2,9,DGND*%
%TO.N,GND*%
X62145000Y-95837000D03*
%TO.P,ADC2,10,~{CS}/SHDN*%
%TO.N,/CS2*%
X62145000Y-97107000D03*
%TO.P,ADC2,11,Din*%
%TO.N,/MOSI*%
X62145000Y-98377000D03*
%TO.P,ADC2,12,Dout*%
%TO.N,/MISO*%
X62145000Y-99647000D03*
%TO.P,ADC2,13,CLK*%
%TO.N,/CLK*%
X62145000Y-100917000D03*
%TO.P,ADC2,14,AGND*%
%TO.N,GND*%
X62145000Y-102187000D03*
%TO.P,ADC2,15,Vref*%
%TO.N,+5V*%
X62145000Y-103457000D03*
%TO.P,ADC2,16,Vdd*%
X62145000Y-104727000D03*
%TD*%
D16*
%TO.P,UNO1,1,NC*%
%TO.N,unconnected-(UNO1-NC-Pad1)*%
X96426000Y-106752000D03*
D17*
%TO.P,UNO1,2,IOREF*%
%TO.N,unconnected-(UNO1-IOREF-Pad2)*%
X96426000Y-104212000D03*
%TO.P,UNO1,3,~{RESET}*%
%TO.N,unconnected-(UNO1-~{RESET}-Pad3)*%
X96426000Y-101672000D03*
%TO.P,UNO1,4,3V3*%
%TO.N,unconnected-(UNO1-3V3-Pad4)*%
X96426000Y-99132000D03*
%TO.P,UNO1,5,+5V*%
%TO.N,+5V*%
X96426000Y-96592000D03*
%TO.P,UNO1,6,GND*%
%TO.N,GND*%
X96426000Y-94052000D03*
%TO.P,UNO1,7,GND*%
X96426000Y-91512000D03*
%TO.P,UNO1,8,VIN*%
%TO.N,unconnected-(UNO1-VIN-Pad8)*%
X96426000Y-88972000D03*
%TO.P,UNO1,9,A0*%
%TO.N,unconnected-(UNO1-A0-Pad9)*%
X96426000Y-83892000D03*
%TO.P,UNO1,10,A1*%
%TO.N,unconnected-(UNO1-A1-Pad10)*%
X96426000Y-81352000D03*
%TO.P,UNO1,11,A2*%
%TO.N,unconnected-(UNO1-A2-Pad11)*%
X96426000Y-78812000D03*
%TO.P,UNO1,12,A3*%
%TO.N,unconnected-(UNO1-A3-Pad12)*%
X96426000Y-76272000D03*
%TO.P,UNO1,13,SDA/A4*%
%TO.N,unconnected-(UNO1-SDA{slash}A4-Pad13)*%
X96426000Y-73732000D03*
%TO.P,UNO1,14,SCL/A5*%
%TO.N,unconnected-(UNO1-SCL{slash}A5-Pad14)*%
X96426000Y-71192000D03*
%TO.P,UNO1,15,D0/RX*%
%TO.N,unconnected-(UNO1-D0{slash}RX-Pad15)*%
X48166000Y-71192000D03*
%TO.P,UNO1,16,D1/TX*%
%TO.N,unconnected-(UNO1-D1{slash}TX-Pad16)*%
X48166000Y-73732000D03*
%TO.P,UNO1,17,D2*%
%TO.N,unconnected-(UNO1-D2-Pad17)*%
X48166000Y-76272000D03*
%TO.P,UNO1,18,D3*%
%TO.N,/BUZZ*%
X48166000Y-78812000D03*
%TO.P,UNO1,19,D4*%
%TO.N,unconnected-(UNO1-D4-Pad19)*%
X48166000Y-81352000D03*
%TO.P,UNO1,20,D5*%
%TO.N,/CS6*%
X48166000Y-83892000D03*
%TO.P,UNO1,21,D6*%
%TO.N,/CS5*%
X48166000Y-86432000D03*
%TO.P,UNO1,22,D7*%
%TO.N,/CS4*%
X48166000Y-88972000D03*
%TO.P,UNO1,23,D8*%
%TO.N,/CS3*%
X48166000Y-93032000D03*
%TO.P,UNO1,24,D9*%
%TO.N,/CS2*%
X48166000Y-95572000D03*
%TO.P,UNO1,25,D10*%
%TO.N,/CS1*%
X48166000Y-98112000D03*
%TO.P,UNO1,26,D11*%
%TO.N,/MOSI*%
X48166000Y-100652000D03*
%TO.P,UNO1,27,D12*%
%TO.N,/MISO*%
X48166000Y-103192000D03*
%TO.P,UNO1,28,D13*%
%TO.N,/CLK*%
X48166000Y-105732000D03*
%TO.P,UNO1,29,GND*%
%TO.N,GND*%
X48166000Y-108272000D03*
%TO.P,UNO1,30,AREF*%
%TO.N,unconnected-(UNO1-AREF-Pad30)*%
X48166000Y-110812000D03*
%TO.P,UNO1,31,SDA/A4*%
%TO.N,/DISP_SDA*%
X48166000Y-113352000D03*
%TO.P,UNO1,32,SCL/A5*%
%TO.N,/DISP_SCL*%
X48166000Y-115892000D03*
%TD*%
D18*
%TO.N,/MOSI*%
X85758000Y-85158000D03*
X55786000Y-111393000D03*
X55786000Y-82364000D03*
X55786000Y-98366000D03*
X60104000Y-98366000D03*
X90076000Y-85158000D03*
X85758000Y-101187000D03*
X60104000Y-114368000D03*
X54008000Y-100144000D03*
X60091000Y-82364000D03*
X90049000Y-101187000D03*
%TO.N,/MISO*%
X89060000Y-83888000D03*
X60104000Y-115638000D03*
X85758000Y-99917000D03*
X56802000Y-113860000D03*
X54008000Y-102430000D03*
X56802000Y-83634000D03*
X60104000Y-99636000D03*
X85758000Y-83888000D03*
X60117000Y-83647000D03*
X89033000Y-99917000D03*
X56802000Y-99636000D03*
%TO.N,/CS3*%
X60104000Y-81107000D03*
%TO.N,/CLK*%
X85758000Y-82618000D03*
X88044000Y-82618000D03*
X60104000Y-84917000D03*
X85758000Y-98647000D03*
X57818000Y-100906000D03*
X54008000Y-104716000D03*
X60104000Y-100906000D03*
X57818000Y-84904000D03*
X88017000Y-98647000D03*
%TO.N,GND*%
X78232000Y-107188000D03*
X67564000Y-92202000D03*
X78232000Y-91186000D03*
X67564000Y-123190000D03*
X67564000Y-108204000D03*
X78232000Y-122174000D03*
%TO.N,/CS5*%
X85758000Y-102457000D03*
%TO.N,/CS6*%
X85758000Y-118402000D03*
%TO.N,/CS1*%
X60104000Y-113107000D03*
%TO.N,/CS2*%
X60104000Y-97107000D03*
%TO.N,/CS4*%
X85758000Y-86457000D03*
%TD*%
D19*
%TO.N,/BUZZ*%
X50855000Y-78812000D02*
X48166000Y-78812000D01*
X52334000Y-77333000D02*
X50855000Y-78812000D01*
X52334000Y-76698000D02*
X52334000Y-77333000D01*
X52334000Y-76698000D02*
X52324000Y-76708000D01*
X52334000Y-72644000D02*
X52334000Y-76698000D01*
%TO.N,/MOSI*%
X90076000Y-79408000D02*
X90076000Y-85158000D01*
X82618000Y-71950000D02*
X90076000Y-79408000D01*
X63178000Y-71950000D02*
X82618000Y-71950000D01*
X55786000Y-79342000D02*
X63178000Y-71950000D01*
X55786000Y-82364000D02*
X55786000Y-79342000D01*
%TO.N,/CLK*%
X82110000Y-73982000D02*
X88044000Y-79916000D01*
X88044000Y-79916000D02*
X88044000Y-82618000D01*
X57818000Y-80104000D02*
X63940000Y-73982000D01*
X57818000Y-84904000D02*
X57818000Y-80104000D01*
X63940000Y-73982000D02*
X82110000Y-73982000D01*
%TO.N,/MISO*%
X82364000Y-72966000D02*
X89060000Y-79662000D01*
X63559000Y-72966000D02*
X82364000Y-72966000D01*
X89060000Y-79662000D02*
X89060000Y-83888000D01*
X56802000Y-79723000D02*
X63559000Y-72966000D01*
X56802000Y-83634000D02*
X56802000Y-79723000D01*
%TO.N,/MOSI*%
X55786000Y-82364000D02*
X55786000Y-98366000D01*
X85729000Y-85187000D02*
X83595000Y-85187000D01*
X55786000Y-98366000D02*
X55786000Y-111393000D01*
X60104000Y-114368000D02*
X60113000Y-114377000D01*
X60104000Y-82377000D02*
X62170000Y-82377000D01*
X60091000Y-82364000D02*
X60104000Y-82377000D01*
X86804000Y-117132000D02*
X83570000Y-117132000D01*
X90076000Y-101214000D02*
X90076000Y-113860000D01*
X62136000Y-114368000D02*
X62145000Y-114377000D01*
X85758000Y-85158000D02*
X85729000Y-85187000D01*
X60104000Y-114368000D02*
X62136000Y-114368000D01*
X53500000Y-100652000D02*
X54008000Y-100144000D01*
X85758000Y-101187000D02*
X83595000Y-101187000D01*
X90049000Y-101187000D02*
X90076000Y-101214000D01*
X48166000Y-100652000D02*
X53500000Y-100652000D01*
X62134000Y-98366000D02*
X62145000Y-98377000D01*
X90076000Y-101160000D02*
X90049000Y-101187000D01*
X90076000Y-85158000D02*
X90076000Y-101160000D01*
X90076000Y-113860000D02*
X86804000Y-117132000D01*
X60104000Y-98366000D02*
X62134000Y-98366000D01*
%TO.N,/MISO*%
X86550000Y-115862000D02*
X83570000Y-115862000D01*
X60104000Y-115638000D02*
X60113000Y-115647000D01*
X89060000Y-99890000D02*
X89033000Y-99917000D01*
X56802000Y-99636000D02*
X56802000Y-113860000D01*
X89060000Y-113352000D02*
X86550000Y-115862000D01*
X60104000Y-115638000D02*
X62136000Y-115638000D01*
X85729000Y-83917000D02*
X83595000Y-83917000D01*
X48166000Y-103192000D02*
X53246000Y-103192000D01*
X89033000Y-99917000D02*
X89060000Y-99944000D01*
X60104000Y-99636000D02*
X62134000Y-99636000D01*
X89060000Y-99944000D02*
X89060000Y-113352000D01*
X89060000Y-83888000D02*
X89060000Y-99890000D01*
X85758000Y-83888000D02*
X85729000Y-83917000D01*
X56802000Y-83634000D02*
X56802000Y-99636000D01*
X53246000Y-103192000D02*
X54008000Y-102430000D01*
X62134000Y-99636000D02*
X62145000Y-99647000D01*
X60117000Y-83647000D02*
X62170000Y-83647000D01*
X85758000Y-99917000D02*
X83595000Y-99917000D01*
X62136000Y-115638000D02*
X62145000Y-115647000D01*
%TO.N,/CS3*%
X60104000Y-81107000D02*
X62170000Y-81107000D01*
%TO.N,/CLK*%
X54008000Y-104716000D02*
X52992000Y-105732000D01*
X85758000Y-98647000D02*
X83595000Y-98647000D01*
X58843000Y-116917000D02*
X62145000Y-116917000D01*
X52992000Y-105732000D02*
X48166000Y-105732000D01*
X62134000Y-100906000D02*
X62145000Y-100917000D01*
X88044000Y-98620000D02*
X88017000Y-98647000D01*
X88044000Y-98674000D02*
X88044000Y-112844000D01*
X85758000Y-82618000D02*
X85729000Y-82647000D01*
X60104000Y-84917000D02*
X62170000Y-84917000D01*
X88044000Y-112844000D02*
X86296000Y-114592000D01*
X88017000Y-98647000D02*
X88044000Y-98674000D01*
X57818000Y-84904000D02*
X57818000Y-100906000D01*
X57818000Y-115892000D02*
X58843000Y-116917000D01*
X88044000Y-82618000D02*
X88044000Y-98620000D01*
X85729000Y-82647000D02*
X83595000Y-82647000D01*
X86296000Y-114592000D02*
X83570000Y-114592000D01*
X57818000Y-100906000D02*
X57818000Y-115892000D01*
X60104000Y-100906000D02*
X62134000Y-100906000D01*
%TO.N,/CS5*%
X83595000Y-102457000D02*
X85758000Y-102457000D01*
%TO.N,/CS6*%
X85758000Y-118402000D02*
X83570000Y-118402000D01*
%TO.N,/CS1*%
X60104000Y-113107000D02*
X62145000Y-113107000D01*
%TO.N,/CS2*%
X60104000Y-97107000D02*
X62145000Y-97107000D01*
D20*
%TO.N,+5V*%
X86614000Y-126746000D02*
X92964000Y-120396000D01*
X59690000Y-126746000D02*
X68164000Y-126746000D01*
X65024000Y-107606000D02*
X65024000Y-118618000D01*
X92964000Y-120396000D02*
X92964000Y-100054000D01*
X65024000Y-102616000D02*
X64183000Y-103457000D01*
X92964000Y-100054000D02*
X96426000Y-96592000D01*
X80772000Y-81026000D02*
X80772000Y-92014000D01*
X83595000Y-94837000D02*
X83595000Y-96107000D01*
X81693000Y-96107000D02*
X80772000Y-97028000D01*
X83595000Y-80107000D02*
X81691000Y-80107000D01*
X80772000Y-97028000D02*
X80772000Y-107984000D01*
X64183000Y-103457000D02*
X62145000Y-103457000D01*
X81691000Y-80107000D02*
X80772000Y-81026000D01*
X65024000Y-118618000D02*
X64185000Y-119457000D01*
X56134000Y-118364000D02*
X56134000Y-123190000D01*
X65024000Y-91581000D02*
X65024000Y-102616000D01*
X56134000Y-123190000D02*
X59690000Y-126746000D01*
X83595000Y-96107000D02*
X81693000Y-96107000D01*
X62145000Y-104727000D02*
X65024000Y-107606000D01*
X76454000Y-126746000D02*
X80772000Y-122428000D01*
X62145000Y-120727000D02*
X68164000Y-126746000D01*
X62145000Y-103457000D02*
X62145000Y-104727000D01*
X62170000Y-88727000D02*
X62170000Y-87457000D01*
X80772000Y-112776000D02*
X81496000Y-112052000D01*
X83570000Y-110782000D02*
X83570000Y-112052000D01*
X76454000Y-126746000D02*
X86614000Y-126746000D01*
X64185000Y-119457000D02*
X62145000Y-119457000D01*
X62145000Y-119457000D02*
X62145000Y-120727000D01*
X80772000Y-122428000D02*
X80772000Y-112776000D01*
X81496000Y-112052000D02*
X83570000Y-112052000D01*
X62170000Y-88727000D02*
X65024000Y-91581000D01*
X68164000Y-126746000D02*
X76454000Y-126746000D01*
X72898000Y-76200000D02*
X72898000Y-126746000D01*
X80772000Y-92014000D02*
X83595000Y-94837000D01*
X83595000Y-78837000D02*
X83595000Y-80107000D01*
X80772000Y-107984000D02*
X83570000Y-110782000D01*
D19*
%TO.N,/CS4*%
X85758000Y-86457000D02*
X83595000Y-86457000D01*
%TO.N,/PH-7*%
X67095000Y-113107000D02*
X68330000Y-113107000D01*
X68330000Y-113107000D02*
X70155000Y-111282000D01*
%TO.N,/PH-8*%
X67600000Y-111837000D02*
X70155000Y-109282000D01*
X67095000Y-111837000D02*
X67600000Y-111837000D01*
%TO.N,/PH-4*%
X67095000Y-116917000D02*
X69790000Y-116917000D01*
X69790000Y-116917000D02*
X70155000Y-117282000D01*
%TO.N,/PH-1*%
X67095000Y-120727000D02*
X67600000Y-120727000D01*
X67600000Y-120727000D02*
X70155000Y-123282000D01*
%TO.N,/PH-5*%
X67095000Y-115647000D02*
X69790000Y-115647000D01*
X69790000Y-115647000D02*
X70155000Y-115282000D01*
%TO.N,/PH-2*%
X68330000Y-119457000D02*
X70155000Y-121282000D01*
X67095000Y-119457000D02*
X68330000Y-119457000D01*
%TO.N,/PH-6*%
X69060000Y-114377000D02*
X70155000Y-113282000D01*
X67095000Y-114377000D02*
X69060000Y-114377000D01*
%TO.N,/PH-3*%
X67095000Y-118187000D02*
X69060000Y-118187000D01*
X69060000Y-118187000D02*
X70155000Y-119282000D01*
%TO.N,/PH-10*%
X68330000Y-103457000D02*
X70155000Y-105282000D01*
X67095000Y-103457000D02*
X68330000Y-103457000D01*
%TO.N,/PH-9*%
X67095000Y-104727000D02*
X67600000Y-104727000D01*
X67600000Y-104727000D02*
X70155000Y-107282000D01*
%TO.N,/PH-13*%
X67095000Y-99647000D02*
X69790000Y-99647000D01*
X69790000Y-99647000D02*
X70155000Y-99282000D01*
%TO.N,/PH-11*%
X67095000Y-102187000D02*
X69060000Y-102187000D01*
X69060000Y-102187000D02*
X70155000Y-103282000D01*
%TO.N,/PH-14*%
X67095000Y-98377000D02*
X69060000Y-98377000D01*
X69060000Y-98377000D02*
X70155000Y-97282000D01*
%TO.N,/PH-16*%
X67600000Y-95837000D02*
X70155000Y-93282000D01*
X67095000Y-95837000D02*
X67600000Y-95837000D01*
%TO.N,/PH-15*%
X68330000Y-97107000D02*
X70155000Y-95282000D01*
X67095000Y-97107000D02*
X68330000Y-97107000D01*
%TO.N,/PH-12*%
X67095000Y-100917000D02*
X69790000Y-100917000D01*
X69790000Y-100917000D02*
X70155000Y-101282000D01*
%TO.N,/PH-22*%
X69060000Y-82377000D02*
X70155000Y-81282000D01*
X67120000Y-82377000D02*
X69060000Y-82377000D01*
%TO.N,/PH-23*%
X68330000Y-81107000D02*
X70155000Y-79282000D01*
X67120000Y-81107000D02*
X68330000Y-81107000D01*
%TO.N,/PH-19*%
X69060000Y-86187000D02*
X70155000Y-87282000D01*
X67120000Y-86187000D02*
X69060000Y-86187000D01*
%TO.N,/PH-18*%
X67120000Y-87457000D02*
X68330000Y-87457000D01*
X68330000Y-87457000D02*
X70155000Y-89282000D01*
%TO.N,/PH-20*%
X67120000Y-84917000D02*
X69790000Y-84917000D01*
X69790000Y-84917000D02*
X70155000Y-85282000D01*
%TO.N,/PH-24*%
X67120000Y-79837000D02*
X67600000Y-79837000D01*
X67600000Y-79837000D02*
X70155000Y-77282000D01*
%TO.N,/PH-17*%
X67120000Y-88727000D02*
X67600000Y-88727000D01*
X67600000Y-88727000D02*
X70155000Y-91282000D01*
%TO.N,/PH-21*%
X69790000Y-83647000D02*
X70155000Y-83282000D01*
X67120000Y-83647000D02*
X69790000Y-83647000D01*
%TO.N,/PH-32*%
X78645000Y-87727000D02*
X78140000Y-87727000D01*
X78140000Y-87727000D02*
X75585000Y-90282000D01*
%TO.N,/PH-28*%
X75950000Y-82647000D02*
X75585000Y-82282000D01*
X78645000Y-82647000D02*
X75950000Y-82647000D01*
%TO.N,/PH-29*%
X75950000Y-83917000D02*
X75585000Y-84282000D01*
X78645000Y-83917000D02*
X75950000Y-83917000D01*
%TO.N,/PH-30*%
X78645000Y-85187000D02*
X76680000Y-85187000D01*
X76680000Y-85187000D02*
X75585000Y-86282000D01*
%TO.N,/PH-25*%
X78645000Y-78837000D02*
X78140000Y-78837000D01*
X78140000Y-78837000D02*
X75585000Y-76282000D01*
%TO.N,/PH-31*%
X77410000Y-86457000D02*
X75585000Y-88282000D01*
X78645000Y-86457000D02*
X77410000Y-86457000D01*
%TO.N,/PH-26*%
X78645000Y-80107000D02*
X77375000Y-80107000D01*
X77375000Y-80107000D02*
X75550000Y-78282000D01*
%TO.N,/PH-27*%
X76680000Y-81377000D02*
X75585000Y-80282000D01*
X78645000Y-81377000D02*
X76680000Y-81377000D01*
%TO.N,/PH-38*%
X76680000Y-101187000D02*
X75585000Y-102282000D01*
X78645000Y-101187000D02*
X76680000Y-101187000D01*
%TO.N,/PH-36*%
X78645000Y-98647000D02*
X75950000Y-98647000D01*
X75950000Y-98647000D02*
X75585000Y-98282000D01*
%TO.N,/PH-35*%
X76680000Y-97377000D02*
X75585000Y-96282000D01*
X78645000Y-97377000D02*
X76680000Y-97377000D01*
%TO.N,/PH-33*%
X78645000Y-94837000D02*
X78140000Y-94837000D01*
X78140000Y-94837000D02*
X75585000Y-92282000D01*
%TO.N,/PH-39*%
X77410000Y-102457000D02*
X75585000Y-104282000D01*
X78645000Y-102457000D02*
X77410000Y-102457000D01*
%TO.N,/PH-34*%
X77410000Y-96107000D02*
X75585000Y-94282000D01*
X78645000Y-96107000D02*
X77410000Y-96107000D01*
%TO.N,/PH-40*%
X78645000Y-103727000D02*
X78140000Y-103727000D01*
X78140000Y-103727000D02*
X75585000Y-106282000D01*
%TO.N,/PH-37*%
X78645000Y-99917000D02*
X75950000Y-99917000D01*
X75950000Y-99917000D02*
X75585000Y-100282000D01*
%TO.N,/PH-47*%
X78620000Y-118402000D02*
X77465000Y-118402000D01*
X77465000Y-118402000D02*
X75585000Y-120282000D01*
%TO.N,/PH-44*%
X78620000Y-114592000D02*
X75895000Y-114592000D01*
X75895000Y-114592000D02*
X75585000Y-114282000D01*
%TO.N,/PH-41*%
X78085000Y-110782000D02*
X75585000Y-108282000D01*
X78620000Y-110782000D02*
X78085000Y-110782000D01*
%TO.N,/PH-45*%
X78620000Y-115862000D02*
X75970000Y-115862000D01*
X75970000Y-115862000D02*
X75550000Y-116282000D01*
%TO.N,/PH-46*%
X78620000Y-117132000D02*
X76735000Y-117132000D01*
X76735000Y-117132000D02*
X75585000Y-118282000D01*
%TO.N,/PH-48*%
X78620000Y-119672000D02*
X78195000Y-119672000D01*
X78195000Y-119672000D02*
X75585000Y-122282000D01*
%TO.N,/PH-42*%
X77355000Y-112052000D02*
X75585000Y-110282000D01*
X78620000Y-112052000D02*
X77355000Y-112052000D01*
%TO.N,/PH-43*%
X78620000Y-113322000D02*
X76625000Y-113322000D01*
X76625000Y-113322000D02*
X75585000Y-112282000D01*
%TO.N,/DISP_SCL*%
X53281000Y-115892000D02*
X48166000Y-115892000D01*
X53594000Y-118364000D02*
X53594000Y-116205000D01*
X53594000Y-116205000D02*
X53281000Y-115892000D01*
%TO.N,/DISP_SDA*%
X47176000Y-113352000D02*
X48166000Y-113352000D01*
X51054000Y-118364000D02*
X47498000Y-118364000D01*
X47498000Y-118364000D02*
X46228000Y-117094000D01*
X46228000Y-117094000D02*
X46228000Y-114300000D01*
X46228000Y-114300000D02*
X47176000Y-113352000D01*
%TD*%
%TA.AperFunction,Conductor*%
%TO.N,GND*%
G36*
X65545782Y-119624964D02*
G01*
X65601716Y-119666835D01*
X65621525Y-119706551D01*
X65668254Y-119867393D01*
X65668255Y-119867396D01*
X65751917Y-120008862D01*
X65756702Y-120015031D01*
X65754256Y-120016927D01*
X65780857Y-120065642D01*
X65775873Y-120135334D01*
X65755069Y-120167703D01*
X65756702Y-120168969D01*
X65751917Y-120175137D01*
X65668255Y-120316603D01*
X65668254Y-120316606D01*
X65622402Y-120474426D01*
X65622401Y-120474432D01*
X65619500Y-120511298D01*
X65619500Y-120942701D01*
X65622401Y-120979567D01*
X65622402Y-120979573D01*
X65668254Y-121137393D01*
X65668255Y-121137396D01*
X65751917Y-121278862D01*
X65751923Y-121278870D01*
X65868129Y-121395076D01*
X65868133Y-121395079D01*
X65868135Y-121395081D01*
X66009602Y-121478744D01*
X66051224Y-121490836D01*
X66167426Y-121524597D01*
X66167429Y-121524597D01*
X66167431Y-121524598D01*
X66204306Y-121527500D01*
X67282113Y-121527500D01*
X67349152Y-121547185D01*
X67369794Y-121563819D01*
X69123181Y-123317205D01*
X69156666Y-123378528D01*
X69159500Y-123404886D01*
X69159500Y-124019870D01*
X69159501Y-124019876D01*
X69165908Y-124079483D01*
X69216202Y-124214328D01*
X69216206Y-124214335D01*
X69302452Y-124329544D01*
X69302455Y-124329547D01*
X69417664Y-124415793D01*
X69417671Y-124415797D01*
X69552517Y-124466091D01*
X69552516Y-124466091D01*
X69559444Y-124466835D01*
X69612127Y-124472500D01*
X70697872Y-124472499D01*
X70757483Y-124466091D01*
X70892331Y-124415796D01*
X71007546Y-124329546D01*
X71020733Y-124311929D01*
X71076666Y-124270058D01*
X71146358Y-124265074D01*
X71207681Y-124298558D01*
X71219267Y-124311930D01*
X71232454Y-124329546D01*
X71232455Y-124329547D01*
X71347664Y-124415793D01*
X71347671Y-124415797D01*
X71392618Y-124432561D01*
X71482517Y-124466091D01*
X71542127Y-124472500D01*
X71765500Y-124472499D01*
X71832539Y-124492183D01*
X71878294Y-124544987D01*
X71889500Y-124596499D01*
X71889500Y-125613500D01*
X71869815Y-125680539D01*
X71817011Y-125726294D01*
X71765500Y-125737500D01*
X68633096Y-125737500D01*
X68566057Y-125717815D01*
X68545415Y-125701181D01*
X63656819Y-120812585D01*
X63623334Y-120751262D01*
X63620500Y-120724904D01*
X63620500Y-120589500D01*
X63640185Y-120522461D01*
X63692989Y-120476706D01*
X63744500Y-120465500D01*
X64284330Y-120465500D01*
X64284331Y-120465499D01*
X64479169Y-120426744D01*
X64662704Y-120350721D01*
X64827881Y-120240353D01*
X64968353Y-120099881D01*
X65414770Y-119653463D01*
X65476091Y-119619980D01*
X65545782Y-119624964D01*
G37*
%TD.AperFunction*%
%TA.AperFunction,Conductor*%
G36*
X79674773Y-120453139D02*
G01*
X79733444Y-120491080D01*
X79762288Y-120554718D01*
X79763500Y-120572016D01*
X79763500Y-121958904D01*
X79743815Y-122025943D01*
X79727181Y-122046585D01*
X76072585Y-125701181D01*
X76011262Y-125734666D01*
X75984904Y-125737500D01*
X74030500Y-125737500D01*
X73963461Y-125717815D01*
X73917706Y-125665011D01*
X73906500Y-125613500D01*
X73906500Y-123596499D01*
X73926185Y-123529460D01*
X73978989Y-123483705D01*
X74030500Y-123472499D01*
X74197871Y-123472499D01*
X74197872Y-123472499D01*
X74257483Y-123466091D01*
X74392331Y-123415796D01*
X74507546Y-123329546D01*
X74520733Y-123311929D01*
X74576666Y-123270058D01*
X74646358Y-123265074D01*
X74707681Y-123298558D01*
X74719267Y-123311930D01*
X74732454Y-123329546D01*
X74732455Y-123329547D01*
X74847664Y-123415793D01*
X74847671Y-123415797D01*
X74982517Y-123466091D01*
X74982516Y-123466091D01*
X74989444Y-123466835D01*
X75042127Y-123472500D01*
X76127872Y-123472499D01*
X76187483Y-123466091D01*
X76322331Y-123415796D01*
X76437546Y-123329546D01*
X76523796Y-123214331D01*
X76574091Y-123079483D01*
X76580500Y-123019873D01*
X76580499Y-122404885D01*
X76600183Y-122337847D01*
X76616813Y-122317210D01*
X78425205Y-120508819D01*
X78486528Y-120475334D01*
X78512886Y-120472500D01*
X79510686Y-120472500D01*
X79510694Y-120472500D01*
X79547569Y-120469598D01*
X79604905Y-120452940D01*
X79674773Y-120453139D01*
G37*
%TD.AperFunction*%
%TA.AperFunction,Conductor*%
G36*
X54999005Y-105321444D02*
G01*
X55029721Y-105384200D01*
X55031500Y-105405127D01*
X55031500Y-110678284D01*
X55011815Y-110745323D01*
X55003353Y-110756949D01*
X54943405Y-110829994D01*
X54943401Y-110830001D01*
X54849760Y-111005191D01*
X54792091Y-111195300D01*
X54772620Y-111393000D01*
X54792091Y-111590699D01*
X54849760Y-111780808D01*
X54943401Y-111955998D01*
X54943405Y-111956005D01*
X55069431Y-112109568D01*
X55222994Y-112235594D01*
X55223001Y-112235598D01*
X55398191Y-112329239D01*
X55398193Y-112329239D01*
X55398196Y-112329241D01*
X55588299Y-112386908D01*
X55588298Y-112386908D01*
X55604970Y-112388550D01*
X55786000Y-112406380D01*
X55911346Y-112394034D01*
X55979992Y-112407053D01*
X56030702Y-112455117D01*
X56047500Y-112517437D01*
X56047500Y-113145284D01*
X56027815Y-113212323D01*
X56019353Y-113223949D01*
X55959405Y-113296994D01*
X55959401Y-113297001D01*
X55865760Y-113472191D01*
X55808091Y-113662300D01*
X55788620Y-113860000D01*
X55808091Y-114057699D01*
X55865760Y-114247808D01*
X55959401Y-114422998D01*
X55959405Y-114423005D01*
X56085431Y-114576568D01*
X56238994Y-114702594D01*
X56239001Y-114702598D01*
X56414191Y-114796239D01*
X56414193Y-114796239D01*
X56414196Y-114796241D01*
X56604299Y-114853908D01*
X56604298Y-114853908D01*
X56623770Y-114855825D01*
X56802000Y-114873380D01*
X56927346Y-114861034D01*
X56995992Y-114874053D01*
X57046702Y-114922117D01*
X57063500Y-114984437D01*
X57063500Y-115812552D01*
X57063499Y-115812578D01*
X57063499Y-115966313D01*
X57081618Y-116057397D01*
X57081618Y-116057399D01*
X57092493Y-116112073D01*
X57092495Y-116112080D01*
X57100201Y-116130684D01*
X57100202Y-116130688D01*
X57100203Y-116130688D01*
X57149366Y-116249381D01*
X57149372Y-116249392D01*
X57231942Y-116372968D01*
X57231943Y-116372969D01*
X58030668Y-117171693D01*
X58064153Y-117233016D01*
X58059169Y-117302707D01*
X58021082Y-117353584D01*
X58020671Y-117357119D01*
X58544590Y-117881037D01*
X58481007Y-117898075D01*
X58366993Y-117963901D01*
X58273901Y-118056993D01*
X58208075Y-118171007D01*
X58191037Y-118234590D01*
X57665138Y-117708691D01*
X57665137Y-117708691D01*
X57649368Y-117729574D01*
X57550239Y-117928651D01*
X57550237Y-117928655D01*
X57523525Y-118022540D01*
X57486246Y-118081633D01*
X57422936Y-118111190D01*
X57353697Y-118101828D01*
X57300510Y-118056518D01*
X57284994Y-118022541D01*
X57258229Y-117928472D01*
X57243093Y-117898075D01*
X57159061Y-117729316D01*
X57159056Y-117729308D01*
X57024979Y-117551761D01*
X56860562Y-117401876D01*
X56860560Y-117401874D01*
X56671404Y-117284754D01*
X56671398Y-117284752D01*
X56463940Y-117204382D01*
X56245243Y-117163500D01*
X56022757Y-117163500D01*
X55804060Y-117204382D01*
X55672864Y-117255207D01*
X55596601Y-117284752D01*
X55596595Y-117284754D01*
X55407439Y-117401874D01*
X55407437Y-117401876D01*
X55243020Y-117551761D01*
X55108943Y-117729308D01*
X55108938Y-117729316D01*
X55009775Y-117928461D01*
X55009769Y-117928476D01*
X54983266Y-118021627D01*
X54945987Y-118080721D01*
X54882677Y-118110278D01*
X54813438Y-118100916D01*
X54760251Y-118055606D01*
X54744734Y-118021627D01*
X54719947Y-117934511D01*
X54718229Y-117928472D01*
X54703093Y-117898075D01*
X54619061Y-117729316D01*
X54619056Y-117729308D01*
X54573320Y-117668744D01*
X54484981Y-117551764D01*
X54484978Y-117551761D01*
X54484974Y-117551757D01*
X54388961Y-117464228D01*
X54352680Y-117404517D01*
X54348500Y-117372592D01*
X54348500Y-116285446D01*
X54348501Y-116285425D01*
X54348501Y-116130685D01*
X54323378Y-116004390D01*
X54323378Y-116004389D01*
X54319505Y-115984920D01*
X54270694Y-115867080D01*
X54268880Y-115862701D01*
X54262633Y-115847618D01*
X54262632Y-115847617D01*
X54262630Y-115847611D01*
X54206072Y-115762966D01*
X54206072Y-115762965D01*
X54180060Y-115724035D01*
X54180054Y-115724028D01*
X54070655Y-115614629D01*
X54070634Y-115614610D01*
X53761966Y-115305941D01*
X53638389Y-115223370D01*
X53638386Y-115223368D01*
X53638385Y-115223368D01*
X53557955Y-115190053D01*
X53501080Y-115166495D01*
X53476894Y-115161684D01*
X53355314Y-115137499D01*
X53355312Y-115137499D01*
X53206688Y-115137499D01*
X53200574Y-115137499D01*
X53200554Y-115137500D01*
X49289862Y-115137500D01*
X49222823Y-115117815D01*
X49188287Y-115084623D01*
X49166045Y-115052858D01*
X49005141Y-114891954D01*
X48818734Y-114761432D01*
X48818728Y-114761429D01*
X48760725Y-114734382D01*
X48708285Y-114688210D01*
X48689133Y-114621017D01*
X48709348Y-114554135D01*
X48760725Y-114509618D01*
X48818734Y-114482568D01*
X49005139Y-114352047D01*
X49166047Y-114191139D01*
X49296568Y-114004734D01*
X49392739Y-113798496D01*
X49451635Y-113578692D01*
X49468634Y-113384384D01*
X49471468Y-113352001D01*
X49471468Y-113351998D01*
X49460265Y-113223949D01*
X49451635Y-113125308D01*
X49392739Y-112905504D01*
X49296568Y-112699266D01*
X49166047Y-112512861D01*
X49166045Y-112512858D01*
X49005141Y-112351954D01*
X48818734Y-112221432D01*
X48818728Y-112221429D01*
X48760725Y-112194382D01*
X48708285Y-112148210D01*
X48689133Y-112081017D01*
X48709348Y-112014135D01*
X48760725Y-111969618D01*
X48818734Y-111942568D01*
X49005139Y-111812047D01*
X49166047Y-111651139D01*
X49296568Y-111464734D01*
X49392739Y-111258496D01*
X49451635Y-111038692D01*
X49471468Y-110812000D01*
X49451635Y-110585308D01*
X49392739Y-110365504D01*
X49296568Y-110159266D01*
X49166047Y-109972861D01*
X49166045Y-109972858D01*
X49005141Y-109811954D01*
X48818734Y-109681432D01*
X48818732Y-109681431D01*
X48807275Y-109676088D01*
X48760132Y-109654105D01*
X48707694Y-109607934D01*
X48688542Y-109540740D01*
X48708758Y-109473859D01*
X48760134Y-109429341D01*
X48818484Y-109402132D01*
X49004820Y-109271657D01*
X49165657Y-109110820D01*
X49296134Y-108924482D01*
X49392265Y-108718326D01*
X49392269Y-108718317D01*
X49444872Y-108522000D01*
X48599012Y-108522000D01*
X48631925Y-108464993D01*
X48666000Y-108337826D01*
X48666000Y-108206174D01*
X48631925Y-108079007D01*
X48599012Y-108022000D01*
X49444872Y-108022000D01*
X49444872Y-108021999D01*
X49392269Y-107825682D01*
X49392265Y-107825673D01*
X49296134Y-107619517D01*
X49165657Y-107433179D01*
X49004820Y-107272342D01*
X48818482Y-107141865D01*
X48760133Y-107114657D01*
X48707694Y-107068484D01*
X48688542Y-107001291D01*
X48708758Y-106934410D01*
X48760129Y-106889895D01*
X48818734Y-106862568D01*
X49005139Y-106732047D01*
X49166047Y-106571139D01*
X49188287Y-106539377D01*
X49242863Y-106495752D01*
X49289862Y-106486500D01*
X52911554Y-106486500D01*
X52911574Y-106486501D01*
X52917688Y-106486501D01*
X53066313Y-106486501D01*
X53198707Y-106460165D01*
X53212080Y-106457505D01*
X53268955Y-106433946D01*
X53349389Y-106400630D01*
X53472966Y-106318059D01*
X54036133Y-105754890D01*
X54097454Y-105721407D01*
X54111652Y-105719170D01*
X54205701Y-105709908D01*
X54395804Y-105652241D01*
X54571004Y-105558595D01*
X54724568Y-105432568D01*
X54811646Y-105326462D01*
X54869392Y-105287128D01*
X54939237Y-105285257D01*
X54999005Y-105321444D01*
G37*
%TD.AperFunction*%
%TA.AperFunction,Conductor*%
G36*
X79674772Y-104515401D02*
G01*
X79733443Y-104553342D01*
X79762287Y-104616980D01*
X79763500Y-104634279D01*
X79763500Y-108083333D01*
X79802254Y-108278161D01*
X79802256Y-108278169D01*
X79834624Y-108356312D01*
X79878277Y-108461701D01*
X79878282Y-108461710D01*
X79988646Y-108626880D01*
X79988649Y-108626884D01*
X82058181Y-110696415D01*
X82091666Y-110757738D01*
X82094500Y-110784096D01*
X82094500Y-110919500D01*
X82074815Y-110986539D01*
X82022011Y-111032294D01*
X81970500Y-111043500D01*
X81396666Y-111043500D01*
X81201838Y-111082254D01*
X81201830Y-111082256D01*
X81149735Y-111103835D01*
X81149734Y-111103835D01*
X81018298Y-111158276D01*
X81018295Y-111158278D01*
X80853123Y-111268642D01*
X80853115Y-111268648D01*
X80292577Y-111829187D01*
X80231254Y-111862672D01*
X80161562Y-111857688D01*
X80105629Y-111815816D01*
X80085820Y-111776101D01*
X80046745Y-111641606D01*
X80046744Y-111641603D01*
X80046744Y-111641602D01*
X79963081Y-111500135D01*
X79963078Y-111500132D01*
X79958298Y-111493969D01*
X79960750Y-111492066D01*
X79934155Y-111443421D01*
X79939104Y-111373726D01*
X79959940Y-111341304D01*
X79958298Y-111340031D01*
X79963075Y-111333870D01*
X79963081Y-111333865D01*
X80046744Y-111192398D01*
X80091049Y-111039900D01*
X80092597Y-111034573D01*
X80092598Y-111034567D01*
X80093341Y-111025131D01*
X80095500Y-110997694D01*
X80095500Y-110566306D01*
X80092598Y-110529431D01*
X80046744Y-110371602D01*
X79963081Y-110230135D01*
X79963079Y-110230133D01*
X79963076Y-110230129D01*
X79846870Y-110113923D01*
X79846862Y-110113917D01*
X79705396Y-110030255D01*
X79705393Y-110030254D01*
X79547573Y-109984402D01*
X79547567Y-109984401D01*
X79510701Y-109981500D01*
X79510694Y-109981500D01*
X78402886Y-109981500D01*
X78335847Y-109961815D01*
X78315205Y-109945181D01*
X76616818Y-108246793D01*
X76583333Y-108185470D01*
X76580499Y-108159112D01*
X76580499Y-107544129D01*
X76580498Y-107544123D01*
X76580190Y-107541261D01*
X76574091Y-107484517D01*
X76574091Y-107484516D01*
X76523797Y-107349670D01*
X76519547Y-107341888D01*
X76522757Y-107340134D01*
X76504361Y-107291001D01*
X76519127Y-107222709D01*
X76519752Y-107221736D01*
X76523797Y-107214329D01*
X76555882Y-107128303D01*
X76574091Y-107079483D01*
X76580500Y-107019873D01*
X76580499Y-106404885D01*
X76600183Y-106337847D01*
X76616813Y-106317210D01*
X78370205Y-104563819D01*
X78431528Y-104530334D01*
X78457886Y-104527500D01*
X79535686Y-104527500D01*
X79535694Y-104527500D01*
X79572569Y-104524598D01*
X79604906Y-104515203D01*
X79674772Y-104515401D01*
G37*
%TD.AperFunction*%
%TA.AperFunction,Conductor*%
G36*
X65545332Y-103623414D02*
G01*
X65601265Y-103665286D01*
X65621074Y-103705001D01*
X65668253Y-103867393D01*
X65668255Y-103867396D01*
X65751917Y-104008862D01*
X65756702Y-104015031D01*
X65754256Y-104016927D01*
X65780857Y-104065642D01*
X65775873Y-104135334D01*
X65755069Y-104167703D01*
X65756702Y-104168969D01*
X65751917Y-104175137D01*
X65668255Y-104316603D01*
X65668254Y-104316606D01*
X65622402Y-104474426D01*
X65622401Y-104474432D01*
X65619500Y-104511298D01*
X65619500Y-104942701D01*
X65622401Y-104979567D01*
X65622402Y-104979573D01*
X65668254Y-105137393D01*
X65668255Y-105137396D01*
X65751917Y-105278862D01*
X65751923Y-105278870D01*
X65868129Y-105395076D01*
X65868133Y-105395079D01*
X65868135Y-105395081D01*
X66009602Y-105478744D01*
X66051224Y-105490836D01*
X66167426Y-105524597D01*
X66167429Y-105524597D01*
X66167431Y-105524598D01*
X66204306Y-105527500D01*
X67282113Y-105527500D01*
X67349152Y-105547185D01*
X67369794Y-105563819D01*
X69123181Y-107317205D01*
X69156666Y-107378528D01*
X69159500Y-107404886D01*
X69159500Y-108019870D01*
X69159501Y-108019876D01*
X69165908Y-108079483D01*
X69216202Y-108214328D01*
X69220454Y-108222114D01*
X69217280Y-108223846D01*
X69235659Y-108273302D01*
X69220725Y-108341557D01*
X69220117Y-108342502D01*
X69216202Y-108349671D01*
X69165908Y-108484517D01*
X69159501Y-108544116D01*
X69159500Y-108544135D01*
X69159500Y-109159113D01*
X69139815Y-109226152D01*
X69123181Y-109246794D01*
X67369794Y-111000181D01*
X67308471Y-111033666D01*
X67282113Y-111036500D01*
X66204293Y-111036500D01*
X66166226Y-111039496D01*
X66097850Y-111025131D01*
X66048094Y-110976078D01*
X66032500Y-110915878D01*
X66032500Y-107506670D01*
X66032499Y-107506666D01*
X66028093Y-107484516D01*
X65993744Y-107311831D01*
X65953358Y-107214331D01*
X65953357Y-107214329D01*
X65917725Y-107128303D01*
X65917724Y-107128302D01*
X65917722Y-107128296D01*
X65807354Y-106963119D01*
X65807351Y-106963115D01*
X63656819Y-104812583D01*
X63623334Y-104751260D01*
X63620500Y-104724902D01*
X63620500Y-104589500D01*
X63640185Y-104522461D01*
X63692989Y-104476706D01*
X63744500Y-104465500D01*
X64282330Y-104465500D01*
X64282331Y-104465499D01*
X64477169Y-104426744D01*
X64660704Y-104350721D01*
X64825881Y-104240353D01*
X64966353Y-104099881D01*
X65024912Y-104041322D01*
X65024924Y-104041308D01*
X65414320Y-103651912D01*
X65475640Y-103618430D01*
X65545332Y-103623414D01*
G37*
%TD.AperFunction*%
%TA.AperFunction,Conductor*%
G36*
X79674772Y-88515401D02*
G01*
X79733443Y-88553342D01*
X79762287Y-88616980D01*
X79763500Y-88634279D01*
X79763500Y-92113333D01*
X79802254Y-92308161D01*
X79802256Y-92308169D01*
X79837899Y-92394218D01*
X79878277Y-92491701D01*
X79878282Y-92491710D01*
X79988646Y-92656880D01*
X79988649Y-92656884D01*
X82083181Y-94751415D01*
X82116666Y-94812738D01*
X82119500Y-94839096D01*
X82119500Y-94974500D01*
X82099815Y-95041539D01*
X82047011Y-95087294D01*
X81995500Y-95098500D01*
X81593666Y-95098500D01*
X81398838Y-95137254D01*
X81398830Y-95137256D01*
X81323713Y-95168371D01*
X81215300Y-95213276D01*
X81215286Y-95213284D01*
X81050123Y-95323642D01*
X81050115Y-95323648D01*
X80332181Y-96041584D01*
X80270858Y-96075069D01*
X80201167Y-96070085D01*
X80145233Y-96028213D01*
X80120816Y-95962749D01*
X80120500Y-95953903D01*
X80120500Y-95891313D01*
X80120499Y-95891298D01*
X80117598Y-95854432D01*
X80117597Y-95854426D01*
X80071745Y-95696606D01*
X80071744Y-95696603D01*
X80071744Y-95696602D01*
X79988081Y-95555135D01*
X79988078Y-95555132D01*
X79983298Y-95548969D01*
X79985750Y-95547066D01*
X79959155Y-95498421D01*
X79964104Y-95428726D01*
X79984940Y-95396304D01*
X79983298Y-95395031D01*
X79988075Y-95388870D01*
X79988081Y-95388865D01*
X80071744Y-95247398D01*
X80117598Y-95089569D01*
X80120500Y-95052694D01*
X80120500Y-94621306D01*
X80117598Y-94584431D01*
X80071744Y-94426602D01*
X79988081Y-94285135D01*
X79988079Y-94285133D01*
X79988076Y-94285129D01*
X79871870Y-94168923D01*
X79871862Y-94168917D01*
X79730396Y-94085255D01*
X79730393Y-94085254D01*
X79572573Y-94039402D01*
X79572567Y-94039401D01*
X79535701Y-94036500D01*
X79535694Y-94036500D01*
X78457886Y-94036500D01*
X78390847Y-94016815D01*
X78370205Y-94000181D01*
X76616818Y-92246793D01*
X76583333Y-92185470D01*
X76580499Y-92159112D01*
X76580499Y-91544129D01*
X76580498Y-91544123D01*
X76574091Y-91484516D01*
X76523797Y-91349670D01*
X76519547Y-91341888D01*
X76522757Y-91340134D01*
X76504361Y-91291001D01*
X76519127Y-91222709D01*
X76519752Y-91221736D01*
X76523797Y-91214329D01*
X76558875Y-91120279D01*
X76574091Y-91079483D01*
X76580500Y-91019873D01*
X76580499Y-90404885D01*
X76600183Y-90337847D01*
X76616813Y-90317210D01*
X78370205Y-88563819D01*
X78431528Y-88530334D01*
X78457886Y-88527500D01*
X79535686Y-88527500D01*
X79535694Y-88527500D01*
X79572569Y-88524598D01*
X79604906Y-88515203D01*
X79674772Y-88515401D01*
G37*
%TD.AperFunction*%
%TA.AperFunction,Conductor*%
G36*
X96676000Y-93618988D02*
G01*
X96618993Y-93586075D01*
X96491826Y-93552000D01*
X96360174Y-93552000D01*
X96233007Y-93586075D01*
X96176000Y-93618988D01*
X96176000Y-91945012D01*
X96233007Y-91977925D01*
X96360174Y-92012000D01*
X96491826Y-92012000D01*
X96618993Y-91977925D01*
X96676000Y-91945012D01*
X96676000Y-93618988D01*
G37*
%TD.AperFunction*%
%TA.AperFunction,Conductor*%
G36*
X102192539Y-64270185D02*
G01*
X102238294Y-64322989D01*
X102249500Y-64374500D01*
X102249500Y-131625500D01*
X102229815Y-131692539D01*
X102177011Y-131738294D01*
X102125500Y-131749500D01*
X42874500Y-131749500D01*
X42807461Y-131729815D01*
X42761706Y-131677011D01*
X42750500Y-131625500D01*
X42750500Y-114225685D01*
X45473499Y-114225685D01*
X45473499Y-114380425D01*
X45473500Y-114380446D01*
X45473500Y-117014552D01*
X45473499Y-117014578D01*
X45473499Y-117168314D01*
X45493077Y-117266733D01*
X45497684Y-117289894D01*
X45500233Y-117302707D01*
X45502495Y-117314082D01*
X45517235Y-117349663D01*
X45517236Y-117349669D01*
X45517237Y-117349669D01*
X45559366Y-117451382D01*
X45559372Y-117451392D01*
X45641942Y-117574968D01*
X45641943Y-117574969D01*
X46907600Y-118840624D01*
X46907621Y-118840647D01*
X47017028Y-118950054D01*
X47017035Y-118950060D01*
X47140608Y-119032628D01*
X47140609Y-119032628D01*
X47140610Y-119032629D01*
X47277920Y-119089505D01*
X47402488Y-119114283D01*
X47423683Y-119118499D01*
X47423687Y-119118500D01*
X47423688Y-119118500D01*
X47572312Y-119118500D01*
X50057675Y-119118500D01*
X50124714Y-119138185D01*
X50156628Y-119167773D01*
X50163019Y-119176236D01*
X50163021Y-119176238D01*
X50163025Y-119176242D01*
X50327437Y-119326123D01*
X50327439Y-119326125D01*
X50516595Y-119443245D01*
X50516596Y-119443245D01*
X50516599Y-119443247D01*
X50724060Y-119523618D01*
X50942757Y-119564500D01*
X50942759Y-119564500D01*
X51165241Y-119564500D01*
X51165243Y-119564500D01*
X51383940Y-119523618D01*
X51591401Y-119443247D01*
X51780562Y-119326124D01*
X51920282Y-119198751D01*
X51944979Y-119176238D01*
X51959885Y-119156500D01*
X52079058Y-118998689D01*
X52178229Y-118799528D01*
X52204734Y-118706371D01*
X52242013Y-118647278D01*
X52305323Y-118617721D01*
X52374562Y-118627083D01*
X52427749Y-118672393D01*
X52443266Y-118706372D01*
X52469769Y-118799523D01*
X52469775Y-118799538D01*
X52568938Y-118998683D01*
X52568943Y-118998691D01*
X52703020Y-119176238D01*
X52867437Y-119326123D01*
X52867439Y-119326125D01*
X53056595Y-119443245D01*
X53056596Y-119443245D01*
X53056599Y-119443247D01*
X53264060Y-119523618D01*
X53482757Y-119564500D01*
X53482759Y-119564500D01*
X53705241Y-119564500D01*
X53705243Y-119564500D01*
X53923940Y-119523618D01*
X54131401Y-119443247D01*
X54320562Y-119326124D01*
X54460282Y-119198751D01*
X54484979Y-119176238D01*
X54499885Y-119156500D01*
X54619058Y-118998689D01*
X54718229Y-118799528D01*
X54744734Y-118706371D01*
X54782013Y-118647278D01*
X54845323Y-118617721D01*
X54914562Y-118627083D01*
X54967749Y-118672393D01*
X54983266Y-118706372D01*
X55009769Y-118799523D01*
X55009775Y-118799538D01*
X55111497Y-119003821D01*
X55109577Y-119004776D01*
X55125500Y-119060712D01*
X55125500Y-123289333D01*
X55164254Y-123484160D01*
X55164256Y-123484168D01*
X55240277Y-123667701D01*
X55240282Y-123667710D01*
X55350646Y-123832880D01*
X55350649Y-123832884D01*
X58906647Y-127388881D01*
X59047119Y-127529353D01*
X59047120Y-127529354D01*
X59212289Y-127639717D01*
X59212295Y-127639720D01*
X59212296Y-127639721D01*
X59395831Y-127715744D01*
X59590666Y-127754499D01*
X59590670Y-127754500D01*
X59590671Y-127754500D01*
X86713330Y-127754500D01*
X86713331Y-127754499D01*
X86908169Y-127715744D01*
X87091704Y-127639721D01*
X87256881Y-127529353D01*
X87397353Y-127388881D01*
X93747353Y-121038881D01*
X93857721Y-120873704D01*
X93933744Y-120690169D01*
X93972500Y-120495329D01*
X93972500Y-120296671D01*
X93972500Y-100523095D01*
X93992185Y-100456056D01*
X94008814Y-100435418D01*
X94976912Y-99467320D01*
X95038233Y-99433837D01*
X95107924Y-99438821D01*
X95163858Y-99480693D01*
X95184366Y-99522909D01*
X95199259Y-99578490D01*
X95199261Y-99578497D01*
X95295431Y-99784732D01*
X95295432Y-99784734D01*
X95425954Y-99971141D01*
X95586858Y-100132045D01*
X95586861Y-100132047D01*
X95773266Y-100262568D01*
X95814938Y-100282000D01*
X95831275Y-100289618D01*
X95883714Y-100335791D01*
X95902866Y-100402984D01*
X95882650Y-100469865D01*
X95831275Y-100514381D01*
X95820222Y-100519536D01*
X95773267Y-100541431D01*
X95773265Y-100541432D01*
X95586858Y-100671954D01*
X95425954Y-100832858D01*
X95295432Y-101019265D01*
X95295431Y-101019267D01*
X95199261Y-101225502D01*
X95199258Y-101225511D01*
X95140366Y-101445302D01*
X95140364Y-101445313D01*
X95120532Y-101671998D01*
X95120532Y-101672001D01*
X95140364Y-101898686D01*
X95140366Y-101898697D01*
X95199258Y-102118488D01*
X95199261Y-102118497D01*
X95295431Y-102324732D01*
X95295432Y-102324734D01*
X95425954Y-102511141D01*
X95586858Y-102672045D01*
X95586861Y-102672047D01*
X95773266Y-102802568D01*
X95831275Y-102829618D01*
X95883714Y-102875791D01*
X95902866Y-102942984D01*
X95882650Y-103009865D01*
X95831275Y-103054382D01*
X95773267Y-103081431D01*
X95773265Y-103081432D01*
X95586858Y-103211954D01*
X95425954Y-103372858D01*
X95295432Y-103559265D01*
X95295431Y-103559267D01*
X95199261Y-103765502D01*
X95199258Y-103765511D01*
X95140366Y-103985302D01*
X95140364Y-103985313D01*
X95120532Y-104211998D01*
X95120532Y-104212001D01*
X95140364Y-104438686D01*
X95140366Y-104438697D01*
X95199258Y-104658488D01*
X95199261Y-104658497D01*
X95295431Y-104864732D01*
X95295432Y-104864734D01*
X95425954Y-105051141D01*
X95586858Y-105212045D01*
X95611462Y-105229273D01*
X95655087Y-105283849D01*
X95662281Y-105353348D01*
X95630758Y-105415703D01*
X95570529Y-105451117D01*
X95553593Y-105454138D01*
X95518516Y-105457908D01*
X95383671Y-105508202D01*
X95383664Y-105508206D01*
X95268455Y-105594452D01*
X95268452Y-105594455D01*
X95182206Y-105709664D01*
X95182202Y-105709671D01*
X95131908Y-105844517D01*
X95125501Y-105904116D01*
X95125501Y-105904123D01*
X95125500Y-105904135D01*
X95125500Y-107599870D01*
X95125501Y-107599876D01*
X95131908Y-107659483D01*
X95182202Y-107794328D01*
X95182206Y-107794335D01*
X95268452Y-107909544D01*
X95268455Y-107909547D01*
X95383664Y-107995793D01*
X95383671Y-107995797D01*
X95518517Y-108046091D01*
X95518516Y-108046091D01*
X95525444Y-108046835D01*
X95578127Y-108052500D01*
X97273872Y-108052499D01*
X97333483Y-108046091D01*
X97468331Y-107995796D01*
X97583546Y-107909546D01*
X97669796Y-107794331D01*
X97720091Y-107659483D01*
X97726500Y-107599873D01*
X97726499Y-105904128D01*
X97720091Y-105844517D01*
X97678125Y-105732001D01*
X97669797Y-105709671D01*
X97669793Y-105709664D01*
X97583547Y-105594455D01*
X97583544Y-105594452D01*
X97468335Y-105508206D01*
X97468328Y-105508202D01*
X97333482Y-105457908D01*
X97333483Y-105457908D01*
X97298404Y-105454137D01*
X97233853Y-105427399D01*
X97194005Y-105370006D01*
X97191512Y-105300181D01*
X97227165Y-105240092D01*
X97240539Y-105229272D01*
X97265140Y-105212046D01*
X97426045Y-105051141D01*
X97426047Y-105051139D01*
X97556568Y-104864734D01*
X97652739Y-104658496D01*
X97711635Y-104438692D01*
X97731468Y-104212000D01*
X97711635Y-103985308D01*
X97652739Y-103765504D01*
X97556568Y-103559266D01*
X97426047Y-103372861D01*
X97426045Y-103372858D01*
X97265141Y-103211954D01*
X97078734Y-103081432D01*
X97078728Y-103081429D01*
X97020725Y-103054382D01*
X96968285Y-103008210D01*
X96949133Y-102941017D01*
X96969348Y-102874135D01*
X97020725Y-102829618D01*
X97078734Y-102802568D01*
X97265139Y-102672047D01*
X97426047Y-102511139D01*
X97556568Y-102324734D01*
X97652739Y-102118496D01*
X97711635Y-101898692D01*
X97731468Y-101672000D01*
X97711635Y-101445308D01*
X97652739Y-101225504D01*
X97556568Y-101019266D01*
X97458134Y-100878686D01*
X97426045Y-100832858D01*
X97265141Y-100671954D01*
X97078734Y-100541432D01*
X97078728Y-100541429D01*
X97031778Y-100519536D01*
X97020724Y-100514381D01*
X96968285Y-100468210D01*
X96949133Y-100401017D01*
X96969348Y-100334135D01*
X97020725Y-100289618D01*
X97078734Y-100262568D01*
X97265139Y-100132047D01*
X97426047Y-99971139D01*
X97556568Y-99784734D01*
X97652739Y-99578496D01*
X97711635Y-99358692D01*
X97731468Y-99132000D01*
X97711635Y-98905308D01*
X97652739Y-98685504D01*
X97556568Y-98479266D01*
X97426047Y-98292861D01*
X97426045Y-98292858D01*
X97265141Y-98131954D01*
X97078734Y-98001432D01*
X97078728Y-98001429D01*
X97030455Y-97978919D01*
X97020724Y-97974381D01*
X96968285Y-97928210D01*
X96949133Y-97861017D01*
X96969348Y-97794135D01*
X97020725Y-97749618D01*
X97078734Y-97722568D01*
X97265139Y-97592047D01*
X97426047Y-97431139D01*
X97556568Y-97244734D01*
X97652739Y-97038496D01*
X97711635Y-96818692D01*
X97731468Y-96592000D01*
X97711635Y-96365308D01*
X97652739Y-96145504D01*
X97556568Y-95939266D01*
X97426047Y-95752861D01*
X97426045Y-95752858D01*
X97265141Y-95591954D01*
X97078734Y-95461432D01*
X97078732Y-95461431D01*
X97067275Y-95456088D01*
X97020132Y-95434105D01*
X96967694Y-95387934D01*
X96948542Y-95320740D01*
X96968758Y-95253859D01*
X97020134Y-95209341D01*
X97078484Y-95182132D01*
X97264820Y-95051657D01*
X97425657Y-94890820D01*
X97556134Y-94704482D01*
X97652265Y-94498326D01*
X97652269Y-94498317D01*
X97704872Y-94302000D01*
X96859012Y-94302000D01*
X96891925Y-94244993D01*
X96926000Y-94117826D01*
X96926000Y-93986174D01*
X96891925Y-93859007D01*
X96859012Y-93802000D01*
X97704872Y-93802000D01*
X97704872Y-93801999D01*
X97652269Y-93605682D01*
X97652265Y-93605673D01*
X97556134Y-93399517D01*
X97425657Y-93213179D01*
X97264820Y-93052342D01*
X97078481Y-92921865D01*
X97078479Y-92921864D01*
X97019543Y-92894382D01*
X96967103Y-92848210D01*
X96947951Y-92781017D01*
X96968166Y-92714136D01*
X97019543Y-92669618D01*
X97078479Y-92642135D01*
X97078481Y-92642134D01*
X97264820Y-92511657D01*
X97425657Y-92350820D01*
X97556134Y-92164482D01*
X97652265Y-91958326D01*
X97652269Y-91958317D01*
X97704872Y-91762000D01*
X96859012Y-91762000D01*
X96891925Y-91704993D01*
X96926000Y-91577826D01*
X96926000Y-91446174D01*
X96891925Y-91319007D01*
X96859012Y-91262000D01*
X97704872Y-91262000D01*
X97704872Y-91261999D01*
X97652269Y-91065682D01*
X97652265Y-91065673D01*
X97556134Y-90859517D01*
X97425657Y-90673179D01*
X97264820Y-90512342D01*
X97078482Y-90381865D01*
X97020133Y-90354657D01*
X96967694Y-90308484D01*
X96948542Y-90241291D01*
X96968758Y-90174410D01*
X97020129Y-90129895D01*
X97078734Y-90102568D01*
X97265139Y-89972047D01*
X97426047Y-89811139D01*
X97556568Y-89624734D01*
X97652739Y-89418496D01*
X97711635Y-89198692D01*
X97728634Y-89004384D01*
X97731468Y-88972001D01*
X97731468Y-88971998D01*
X97714343Y-88776265D01*
X97711635Y-88745308D01*
X97652739Y-88525504D01*
X97556568Y-88319266D01*
X97426047Y-88132861D01*
X97426045Y-88132858D01*
X97265141Y-87971954D01*
X97078734Y-87841432D01*
X97078732Y-87841431D01*
X96872497Y-87745261D01*
X96872488Y-87745258D01*
X96652697Y-87686366D01*
X96652693Y-87686365D01*
X96652692Y-87686365D01*
X96652691Y-87686364D01*
X96652686Y-87686364D01*
X96426002Y-87666532D01*
X96425998Y-87666532D01*
X96199313Y-87686364D01*
X96199302Y-87686366D01*
X95979511Y-87745258D01*
X95979502Y-87745261D01*
X95773267Y-87841431D01*
X95773265Y-87841432D01*
X95586858Y-87971954D01*
X95425954Y-88132858D01*
X95295432Y-88319265D01*
X95295431Y-88319267D01*
X95199261Y-88525502D01*
X95199258Y-88525511D01*
X95140366Y-88745302D01*
X95140364Y-88745313D01*
X95120532Y-88971998D01*
X95120532Y-88972001D01*
X95140364Y-89198686D01*
X95140366Y-89198697D01*
X95199258Y-89418488D01*
X95199261Y-89418497D01*
X95295431Y-89624732D01*
X95295432Y-89624734D01*
X95425954Y-89811141D01*
X95586858Y-89972045D01*
X95586861Y-89972047D01*
X95773266Y-90102568D01*
X95831865Y-90129893D01*
X95884305Y-90176065D01*
X95903457Y-90243258D01*
X95883242Y-90310139D01*
X95831867Y-90354657D01*
X95773515Y-90381867D01*
X95587179Y-90512342D01*
X95426342Y-90673179D01*
X95295865Y-90859517D01*
X95199734Y-91065673D01*
X95199730Y-91065682D01*
X95147127Y-91261999D01*
X95147128Y-91262000D01*
X95992988Y-91262000D01*
X95960075Y-91319007D01*
X95926000Y-91446174D01*
X95926000Y-91577826D01*
X95960075Y-91704993D01*
X95992988Y-91762000D01*
X95147128Y-91762000D01*
X95199730Y-91958317D01*
X95199734Y-91958326D01*
X95295865Y-92164482D01*
X95426342Y-92350820D01*
X95587179Y-92511657D01*
X95773517Y-92642134D01*
X95832457Y-92669618D01*
X95884896Y-92715790D01*
X95904048Y-92782984D01*
X95883832Y-92849865D01*
X95832457Y-92894382D01*
X95773517Y-92921865D01*
X95587179Y-93052342D01*
X95426342Y-93213179D01*
X95295865Y-93399517D01*
X95199734Y-93605673D01*
X95199730Y-93605682D01*
X95147127Y-93801999D01*
X95147128Y-93802000D01*
X95992988Y-93802000D01*
X95960075Y-93859007D01*
X95926000Y-93986174D01*
X95926000Y-94117826D01*
X95960075Y-94244993D01*
X95992988Y-94302000D01*
X95147128Y-94302000D01*
X95199730Y-94498317D01*
X95199734Y-94498326D01*
X95295865Y-94704482D01*
X95426342Y-94890820D01*
X95587179Y-95051657D01*
X95773518Y-95182134D01*
X95773520Y-95182135D01*
X95831865Y-95209342D01*
X95884305Y-95255514D01*
X95903457Y-95322707D01*
X95883242Y-95389589D01*
X95831867Y-95434105D01*
X95773268Y-95461431D01*
X95773264Y-95461433D01*
X95586858Y-95591954D01*
X95425954Y-95752858D01*
X95295432Y-95939265D01*
X95295431Y-95939267D01*
X95199261Y-96145502D01*
X95199258Y-96145511D01*
X95140366Y-96365302D01*
X95140364Y-96365311D01*
X95136043Y-96414697D01*
X95110589Y-96479765D01*
X95100196Y-96491568D01*
X93007761Y-98584005D01*
X92321119Y-99270647D01*
X92283487Y-99308279D01*
X92180645Y-99411120D01*
X92070282Y-99576289D01*
X92070277Y-99576298D01*
X91994256Y-99759830D01*
X91994254Y-99759838D01*
X91955500Y-99954666D01*
X91955500Y-119926904D01*
X91935815Y-119993943D01*
X91919181Y-120014585D01*
X86232585Y-125701181D01*
X86171262Y-125734666D01*
X86144904Y-125737500D01*
X79188096Y-125737500D01*
X79121057Y-125717815D01*
X79075302Y-125665011D01*
X79065358Y-125595853D01*
X79094383Y-125532297D01*
X79100415Y-125525819D01*
X81555350Y-123070884D01*
X81555353Y-123070881D01*
X81665721Y-122905704D01*
X81741744Y-122722169D01*
X81780500Y-122527329D01*
X81780500Y-122328671D01*
X81780500Y-119922001D01*
X82097704Y-119922001D01*
X82097899Y-119924486D01*
X82143718Y-120082198D01*
X82227314Y-120223552D01*
X82227321Y-120223561D01*
X82343438Y-120339678D01*
X82343447Y-120339685D01*
X82484803Y-120423282D01*
X82484806Y-120423283D01*
X82642504Y-120469099D01*
X82642510Y-120469100D01*
X82679350Y-120471999D01*
X82679366Y-120472000D01*
X83320000Y-120472000D01*
X83820000Y-120472000D01*
X84460634Y-120472000D01*
X84460649Y-120471999D01*
X84497489Y-120469100D01*
X84497495Y-120469099D01*
X84655193Y-120423283D01*
X84655196Y-120423282D01*
X84796552Y-120339685D01*
X84796561Y-120339678D01*
X84912678Y-120223561D01*
X84912685Y-120223552D01*
X84996281Y-120082198D01*
X85042100Y-119924486D01*
X85042295Y-119922001D01*
X85042295Y-119922000D01*
X83820000Y-119922000D01*
X83820000Y-120472000D01*
X83320000Y-120472000D01*
X83320000Y-119922000D01*
X82097705Y-119922000D01*
X82097704Y-119922001D01*
X81780500Y-119922001D01*
X81780500Y-113245097D01*
X81800185Y-113178058D01*
X81816819Y-113157415D01*
X81877417Y-113096818D01*
X81938741Y-113063334D01*
X81965098Y-113060500D01*
X82032835Y-113060500D01*
X82071999Y-113072000D01*
X85042295Y-113072000D01*
X85042295Y-113071998D01*
X85042100Y-113069513D01*
X84996281Y-112911801D01*
X84912685Y-112770447D01*
X84907900Y-112764278D01*
X84910366Y-112762364D01*
X84883802Y-112713776D01*
X84888749Y-112644082D01*
X84909856Y-112611232D01*
X84908301Y-112610026D01*
X84913077Y-112603868D01*
X84913081Y-112603865D01*
X84996744Y-112462398D01*
X85042598Y-112304569D01*
X85045500Y-112267694D01*
X85045500Y-111836306D01*
X85042598Y-111799431D01*
X85037187Y-111780808D01*
X84996745Y-111641606D01*
X84996744Y-111641603D01*
X84996744Y-111641602D01*
X84913081Y-111500135D01*
X84913078Y-111500132D01*
X84908298Y-111493969D01*
X84910750Y-111492066D01*
X84884155Y-111443421D01*
X84889104Y-111373726D01*
X84909940Y-111341304D01*
X84908298Y-111340031D01*
X84913075Y-111333870D01*
X84913081Y-111333865D01*
X84996744Y-111192398D01*
X85041049Y-111039900D01*
X85042597Y-111034573D01*
X85042598Y-111034567D01*
X85043341Y-111025131D01*
X85045500Y-110997694D01*
X85045500Y-110566306D01*
X85042598Y-110529431D01*
X84996744Y-110371602D01*
X84913081Y-110230135D01*
X84913079Y-110230133D01*
X84913076Y-110230129D01*
X84796870Y-110113923D01*
X84796862Y-110113917D01*
X84655396Y-110030255D01*
X84655393Y-110030254D01*
X84497573Y-109984402D01*
X84497567Y-109984401D01*
X84460701Y-109981500D01*
X84460694Y-109981500D01*
X84247097Y-109981500D01*
X84180058Y-109961815D01*
X84159416Y-109945181D01*
X81816819Y-107602584D01*
X81783334Y-107541261D01*
X81780500Y-107514903D01*
X81780500Y-103977001D01*
X82122704Y-103977001D01*
X82122899Y-103979486D01*
X82168718Y-104137198D01*
X82252314Y-104278552D01*
X82252321Y-104278561D01*
X82368438Y-104394678D01*
X82368447Y-104394685D01*
X82509803Y-104478282D01*
X82509806Y-104478283D01*
X82667504Y-104524099D01*
X82667510Y-104524100D01*
X82704350Y-104526999D01*
X82704366Y-104527000D01*
X83345000Y-104527000D01*
X83845000Y-104527000D01*
X84485634Y-104527000D01*
X84485649Y-104526999D01*
X84522489Y-104524100D01*
X84522495Y-104524099D01*
X84680193Y-104478283D01*
X84680196Y-104478282D01*
X84821552Y-104394685D01*
X84821561Y-104394678D01*
X84937678Y-104278561D01*
X84937685Y-104278552D01*
X85021281Y-104137198D01*
X85067100Y-103979486D01*
X85067295Y-103977001D01*
X85067295Y-103977000D01*
X83845000Y-103977000D01*
X83845000Y-104527000D01*
X83345000Y-104527000D01*
X83345000Y-103977000D01*
X82122705Y-103977000D01*
X82122704Y-103977001D01*
X81780500Y-103977001D01*
X81780500Y-98431298D01*
X82119500Y-98431298D01*
X82119500Y-98862701D01*
X82122401Y-98899567D01*
X82122402Y-98899573D01*
X82168254Y-99057393D01*
X82168255Y-99057396D01*
X82168256Y-99057398D01*
X82175641Y-99069885D01*
X82251917Y-99198862D01*
X82256702Y-99205031D01*
X82254256Y-99206927D01*
X82280857Y-99255642D01*
X82275873Y-99325334D01*
X82255069Y-99357703D01*
X82256702Y-99358969D01*
X82251917Y-99365137D01*
X82168255Y-99506603D01*
X82168254Y-99506606D01*
X82122402Y-99664426D01*
X82122401Y-99664432D01*
X82119500Y-99701298D01*
X82119500Y-100132701D01*
X82122401Y-100169567D01*
X82122402Y-100169573D01*
X82168254Y-100327393D01*
X82168255Y-100327396D01*
X82168256Y-100327398D01*
X82177480Y-100342995D01*
X82251917Y-100468862D01*
X82256702Y-100475031D01*
X82254256Y-100476927D01*
X82280857Y-100525642D01*
X82275873Y-100595334D01*
X82255069Y-100627703D01*
X82256702Y-100628969D01*
X82251917Y-100635137D01*
X82168255Y-100776603D01*
X82168254Y-100776606D01*
X82122402Y-100934426D01*
X82122401Y-100934432D01*
X82119500Y-100971298D01*
X82119500Y-101402701D01*
X82122401Y-101439567D01*
X82122402Y-101439573D01*
X82168254Y-101597393D01*
X82168255Y-101597396D01*
X82168256Y-101597398D01*
X82185380Y-101626353D01*
X82251917Y-101738862D01*
X82256702Y-101745031D01*
X82254256Y-101746927D01*
X82280857Y-101795642D01*
X82275873Y-101865334D01*
X82255069Y-101897703D01*
X82256702Y-101898969D01*
X82251917Y-101905137D01*
X82168255Y-102046603D01*
X82168254Y-102046606D01*
X82122402Y-102204426D01*
X82122401Y-102204432D01*
X82119500Y-102241298D01*
X82119500Y-102672701D01*
X82122401Y-102709567D01*
X82122402Y-102709573D01*
X82168254Y-102867393D01*
X82168255Y-102867396D01*
X82168256Y-102867398D01*
X82205681Y-102930681D01*
X82251917Y-103008862D01*
X82256702Y-103015031D01*
X82254369Y-103016840D01*
X82281210Y-103065995D01*
X82276226Y-103135687D01*
X82255470Y-103168021D01*
X82257097Y-103169283D01*
X82252313Y-103175449D01*
X82168718Y-103316801D01*
X82122899Y-103474513D01*
X82122704Y-103476998D01*
X82122705Y-103477000D01*
X85067295Y-103477000D01*
X85067295Y-103476998D01*
X85067100Y-103474511D01*
X85067099Y-103474505D01*
X85065576Y-103469263D01*
X85065775Y-103399394D01*
X85103717Y-103340724D01*
X85167355Y-103311880D01*
X85236485Y-103322021D01*
X85243105Y-103325310D01*
X85370191Y-103393239D01*
X85370193Y-103393239D01*
X85370196Y-103393241D01*
X85560299Y-103450908D01*
X85560298Y-103450908D01*
X85578024Y-103452653D01*
X85758000Y-103470380D01*
X85955701Y-103450908D01*
X86145804Y-103393241D01*
X86183933Y-103372861D01*
X86279048Y-103322021D01*
X86321004Y-103299595D01*
X86474568Y-103173568D01*
X86600595Y-103020004D01*
X86694241Y-102844804D01*
X86751908Y-102654701D01*
X86771380Y-102457000D01*
X86751908Y-102259299D01*
X86694241Y-102069196D01*
X86694239Y-102069193D01*
X86694239Y-102069191D01*
X86600600Y-101894004D01*
X86598525Y-101890899D01*
X86597936Y-101889021D01*
X86597724Y-101888623D01*
X86597799Y-101888582D01*
X86577642Y-101824224D01*
X86596121Y-101756842D01*
X86598525Y-101753101D01*
X86600589Y-101750010D01*
X86600595Y-101750004D01*
X86682166Y-101597396D01*
X86694239Y-101574808D01*
X86694239Y-101574807D01*
X86694241Y-101574804D01*
X86751908Y-101384701D01*
X86771380Y-101187000D01*
X86751908Y-100989299D01*
X86694241Y-100799196D01*
X86694239Y-100799193D01*
X86694239Y-100799191D01*
X86600600Y-100624004D01*
X86598525Y-100620899D01*
X86597936Y-100619021D01*
X86597724Y-100618623D01*
X86597799Y-100618582D01*
X86577642Y-100554224D01*
X86596121Y-100486842D01*
X86598525Y-100483101D01*
X86600589Y-100480010D01*
X86600595Y-100480004D01*
X86605016Y-100471734D01*
X86694239Y-100304808D01*
X86694239Y-100304807D01*
X86694241Y-100304804D01*
X86751908Y-100114701D01*
X86771380Y-99917000D01*
X86751908Y-99719299D01*
X86694241Y-99529196D01*
X86694239Y-99529193D01*
X86694239Y-99529191D01*
X86600600Y-99354004D01*
X86598525Y-99350899D01*
X86597936Y-99349021D01*
X86597724Y-99348623D01*
X86597799Y-99348582D01*
X86577642Y-99284224D01*
X86596121Y-99216842D01*
X86598525Y-99213101D01*
X86600589Y-99210010D01*
X86600595Y-99210004D01*
X86601795Y-99207760D01*
X86694239Y-99034808D01*
X86694239Y-99034807D01*
X86694241Y-99034804D01*
X86751908Y-98844701D01*
X86764097Y-98720945D01*
X86790258Y-98656158D01*
X86801249Y-98648380D01*
X86797503Y-98646202D01*
X86765672Y-98584005D01*
X86764097Y-98573054D01*
X86754860Y-98479267D01*
X86751908Y-98449299D01*
X86694241Y-98259196D01*
X86694239Y-98259193D01*
X86694239Y-98259191D01*
X86600598Y-98084001D01*
X86600594Y-98083994D01*
X86474568Y-97930431D01*
X86321005Y-97804405D01*
X86320998Y-97804401D01*
X86145808Y-97710760D01*
X86032231Y-97676307D01*
X85955701Y-97653092D01*
X85955699Y-97653091D01*
X85955701Y-97653091D01*
X85758000Y-97633620D01*
X85560300Y-97653091D01*
X85370195Y-97710759D01*
X85243105Y-97778690D01*
X85174702Y-97792931D01*
X85109458Y-97767931D01*
X85068088Y-97711625D01*
X85063726Y-97641892D01*
X85065577Y-97634733D01*
X85067099Y-97629494D01*
X85067100Y-97629488D01*
X85067295Y-97627001D01*
X85067295Y-97627000D01*
X82122705Y-97627000D01*
X82122704Y-97627001D01*
X82122899Y-97629486D01*
X82168718Y-97787198D01*
X82252314Y-97928552D01*
X82257100Y-97934722D01*
X82254640Y-97936629D01*
X82281210Y-97985288D01*
X82276226Y-98054980D01*
X82255162Y-98087781D01*
X82256699Y-98088974D01*
X82251915Y-98095140D01*
X82168255Y-98236603D01*
X82168254Y-98236606D01*
X82122402Y-98394426D01*
X82122401Y-98394432D01*
X82119500Y-98431298D01*
X81780500Y-98431298D01*
X81780500Y-97497096D01*
X81800185Y-97430057D01*
X81816819Y-97409415D01*
X82062916Y-97163319D01*
X82124239Y-97129834D01*
X82150597Y-97127000D01*
X85067295Y-97127000D01*
X85067295Y-97126998D01*
X85067100Y-97124513D01*
X85021281Y-96966801D01*
X84937685Y-96825447D01*
X84932900Y-96819278D01*
X84935366Y-96817364D01*
X84908802Y-96768776D01*
X84913749Y-96699082D01*
X84934856Y-96666232D01*
X84933301Y-96665026D01*
X84938077Y-96658868D01*
X84938081Y-96658865D01*
X85021744Y-96517398D01*
X85065931Y-96365308D01*
X85067597Y-96359573D01*
X85067598Y-96359567D01*
X85070499Y-96322701D01*
X85070500Y-96322694D01*
X85070500Y-95891306D01*
X85067598Y-95854431D01*
X85051402Y-95798686D01*
X85021745Y-95696606D01*
X85021744Y-95696603D01*
X85021744Y-95696602D01*
X84938081Y-95555135D01*
X84938078Y-95555132D01*
X84933298Y-95548969D01*
X84935750Y-95547066D01*
X84909155Y-95498421D01*
X84914104Y-95428726D01*
X84934940Y-95396304D01*
X84933298Y-95395031D01*
X84938075Y-95388870D01*
X84938081Y-95388865D01*
X85021744Y-95247398D01*
X85067598Y-95089569D01*
X85070500Y-95052694D01*
X85070500Y-94621306D01*
X85067598Y-94584431D01*
X85021744Y-94426602D01*
X84938081Y-94285135D01*
X84938079Y-94285133D01*
X84938076Y-94285129D01*
X84821870Y-94168923D01*
X84821862Y-94168917D01*
X84680396Y-94085255D01*
X84680393Y-94085254D01*
X84522573Y-94039402D01*
X84522567Y-94039401D01*
X84485701Y-94036500D01*
X84485694Y-94036500D01*
X84272096Y-94036500D01*
X84205057Y-94016815D01*
X84184415Y-94000181D01*
X81816819Y-91632585D01*
X81783334Y-91571262D01*
X81780500Y-91544904D01*
X81780500Y-87977001D01*
X82122704Y-87977001D01*
X82122899Y-87979486D01*
X82168718Y-88137198D01*
X82252314Y-88278552D01*
X82252321Y-88278561D01*
X82368438Y-88394678D01*
X82368447Y-88394685D01*
X82509803Y-88478282D01*
X82509806Y-88478283D01*
X82667504Y-88524099D01*
X82667510Y-88524100D01*
X82704350Y-88526999D01*
X82704366Y-88527000D01*
X83345000Y-88527000D01*
X83845000Y-88527000D01*
X84485634Y-88527000D01*
X84485649Y-88526999D01*
X84522489Y-88524100D01*
X84522495Y-88524099D01*
X84680193Y-88478283D01*
X84680196Y-88478282D01*
X84821552Y-88394685D01*
X84821561Y-88394678D01*
X84937678Y-88278561D01*
X84937685Y-88278552D01*
X85021281Y-88137198D01*
X85067100Y-87979486D01*
X85067295Y-87977001D01*
X85067295Y-87977000D01*
X83845000Y-87977000D01*
X83845000Y-88527000D01*
X83345000Y-88527000D01*
X83345000Y-87977000D01*
X82122705Y-87977000D01*
X82122704Y-87977001D01*
X81780500Y-87977001D01*
X81780500Y-82431298D01*
X82119500Y-82431298D01*
X82119500Y-82862701D01*
X82122401Y-82899567D01*
X82122402Y-82899573D01*
X82168254Y-83057393D01*
X82168255Y-83057396D01*
X82251917Y-83198862D01*
X82256702Y-83205031D01*
X82254256Y-83206927D01*
X82280857Y-83255642D01*
X82275873Y-83325334D01*
X82255069Y-83357703D01*
X82256702Y-83358969D01*
X82251917Y-83365137D01*
X82168255Y-83506603D01*
X82168254Y-83506606D01*
X82122402Y-83664426D01*
X82122401Y-83664432D01*
X82119500Y-83701298D01*
X82119500Y-84132701D01*
X82122401Y-84169567D01*
X82122402Y-84169573D01*
X82168254Y-84327393D01*
X82168255Y-84327396D01*
X82168256Y-84327398D01*
X82185802Y-84357066D01*
X82251917Y-84468862D01*
X82256702Y-84475031D01*
X82254256Y-84476927D01*
X82280857Y-84525642D01*
X82275873Y-84595334D01*
X82255069Y-84627703D01*
X82256702Y-84628969D01*
X82251917Y-84635137D01*
X82168255Y-84776603D01*
X82168254Y-84776606D01*
X82122402Y-84934426D01*
X82122401Y-84934432D01*
X82119500Y-84971298D01*
X82119500Y-85402701D01*
X82122401Y-85439567D01*
X82122402Y-85439573D01*
X82168254Y-85597393D01*
X82168255Y-85597396D01*
X82251917Y-85738862D01*
X82256702Y-85745031D01*
X82254256Y-85746927D01*
X82280857Y-85795642D01*
X82275873Y-85865334D01*
X82255069Y-85897703D01*
X82256702Y-85898969D01*
X82251917Y-85905137D01*
X82168255Y-86046603D01*
X82168254Y-86046606D01*
X82122402Y-86204426D01*
X82122401Y-86204432D01*
X82119500Y-86241298D01*
X82119500Y-86672701D01*
X82122401Y-86709567D01*
X82122402Y-86709573D01*
X82168254Y-86867393D01*
X82168255Y-86867396D01*
X82168256Y-86867398D01*
X82205681Y-86930681D01*
X82251917Y-87008862D01*
X82256702Y-87015031D01*
X82254369Y-87016840D01*
X82281210Y-87065995D01*
X82276226Y-87135687D01*
X82255470Y-87168021D01*
X82257097Y-87169283D01*
X82252313Y-87175449D01*
X82168718Y-87316801D01*
X82122899Y-87474513D01*
X82122704Y-87476998D01*
X82122705Y-87477000D01*
X85067295Y-87477000D01*
X85067295Y-87476998D01*
X85067100Y-87474511D01*
X85067099Y-87474505D01*
X85065576Y-87469263D01*
X85065775Y-87399394D01*
X85103717Y-87340724D01*
X85167355Y-87311880D01*
X85236485Y-87322021D01*
X85243105Y-87325310D01*
X85370191Y-87393239D01*
X85370193Y-87393239D01*
X85370196Y-87393241D01*
X85560299Y-87450908D01*
X85560298Y-87450908D01*
X85578024Y-87452653D01*
X85758000Y-87470380D01*
X85955701Y-87450908D01*
X86145804Y-87393241D01*
X86321004Y-87299595D01*
X86474568Y-87173568D01*
X86600595Y-87020004D01*
X86694241Y-86844804D01*
X86751908Y-86654701D01*
X86771380Y-86457000D01*
X86751908Y-86259299D01*
X86694241Y-86069196D01*
X86694239Y-86069193D01*
X86694239Y-86069191D01*
X86600598Y-85894001D01*
X86600597Y-85893999D01*
X86600595Y-85893996D01*
X86594169Y-85886166D01*
X86566855Y-85821859D01*
X86578644Y-85752991D01*
X86594167Y-85728835D01*
X86600595Y-85721004D01*
X86694241Y-85545804D01*
X86751908Y-85355701D01*
X86771380Y-85158000D01*
X86751908Y-84960299D01*
X86694241Y-84770196D01*
X86694239Y-84770193D01*
X86694239Y-84770191D01*
X86600600Y-84595004D01*
X86598525Y-84591899D01*
X86597936Y-84590021D01*
X86597724Y-84589623D01*
X86597799Y-84589582D01*
X86577642Y-84525224D01*
X86596121Y-84457842D01*
X86598525Y-84454101D01*
X86600589Y-84451010D01*
X86600595Y-84451004D01*
X86604722Y-84443284D01*
X86694239Y-84275808D01*
X86694239Y-84275807D01*
X86694241Y-84275804D01*
X86751908Y-84085701D01*
X86771380Y-83888000D01*
X86751908Y-83690299D01*
X86694241Y-83500196D01*
X86694239Y-83500193D01*
X86694239Y-83500191D01*
X86600600Y-83325004D01*
X86598525Y-83321899D01*
X86597936Y-83320021D01*
X86597724Y-83319623D01*
X86597799Y-83319582D01*
X86577642Y-83255224D01*
X86596121Y-83187842D01*
X86598525Y-83184101D01*
X86600589Y-83181010D01*
X86600595Y-83181004D01*
X86620335Y-83144074D01*
X86694239Y-83005808D01*
X86694239Y-83005807D01*
X86694241Y-83005804D01*
X86751908Y-82815701D01*
X86771380Y-82618000D01*
X86751908Y-82420299D01*
X86694241Y-82230196D01*
X86694239Y-82230193D01*
X86694239Y-82230191D01*
X86600598Y-82055001D01*
X86600594Y-82054994D01*
X86474568Y-81901431D01*
X86321005Y-81775405D01*
X86320998Y-81775401D01*
X86145808Y-81681760D01*
X86038748Y-81649284D01*
X85955701Y-81624092D01*
X85955699Y-81624091D01*
X85955701Y-81624091D01*
X85758000Y-81604620D01*
X85560300Y-81624091D01*
X85370193Y-81681760D01*
X85249344Y-81746354D01*
X85180941Y-81760595D01*
X85115698Y-81735594D01*
X85074328Y-81679289D01*
X85067274Y-81627267D01*
X85067295Y-81627000D01*
X82122705Y-81627000D01*
X82122704Y-81627001D01*
X82122899Y-81629486D01*
X82168718Y-81787198D01*
X82252314Y-81928552D01*
X82257100Y-81934722D01*
X82254640Y-81936629D01*
X82281210Y-81985288D01*
X82276226Y-82054980D01*
X82255162Y-82087781D01*
X82256699Y-82088974D01*
X82251915Y-82095140D01*
X82168255Y-82236603D01*
X82168254Y-82236606D01*
X82122402Y-82394426D01*
X82122401Y-82394432D01*
X82119500Y-82431298D01*
X81780500Y-82431298D01*
X81780500Y-81495096D01*
X81800185Y-81428057D01*
X81816819Y-81407415D01*
X82060915Y-81163319D01*
X82122238Y-81129834D01*
X82148596Y-81127000D01*
X85067295Y-81127000D01*
X85067295Y-81126998D01*
X85067100Y-81124513D01*
X85021281Y-80966801D01*
X84937685Y-80825447D01*
X84932900Y-80819278D01*
X84935366Y-80817364D01*
X84908802Y-80768776D01*
X84913749Y-80699082D01*
X84934856Y-80666232D01*
X84933301Y-80665026D01*
X84938077Y-80658868D01*
X84938081Y-80658865D01*
X85021744Y-80517398D01*
X85067598Y-80359569D01*
X85070500Y-80322694D01*
X85070500Y-79891306D01*
X85067598Y-79854431D01*
X85021744Y-79696602D01*
X84938081Y-79555135D01*
X84938078Y-79555132D01*
X84933298Y-79548969D01*
X84935750Y-79547066D01*
X84909155Y-79498421D01*
X84914104Y-79428726D01*
X84934940Y-79396304D01*
X84933298Y-79395031D01*
X84938075Y-79388870D01*
X84938081Y-79388865D01*
X85021744Y-79247398D01*
X85067598Y-79089569D01*
X85070500Y-79052694D01*
X85070500Y-78621306D01*
X85067598Y-78584431D01*
X85021744Y-78426602D01*
X84938081Y-78285135D01*
X84938079Y-78285133D01*
X84938076Y-78285129D01*
X84821870Y-78168923D01*
X84821862Y-78168917D01*
X84680396Y-78085255D01*
X84680393Y-78085254D01*
X84522573Y-78039402D01*
X84522567Y-78039401D01*
X84485701Y-78036500D01*
X84485694Y-78036500D01*
X84249834Y-78036500D01*
X84182795Y-78016815D01*
X84180943Y-78015602D01*
X84072710Y-77943282D01*
X84072701Y-77943277D01*
X83889169Y-77867256D01*
X83889161Y-77867254D01*
X83694333Y-77828500D01*
X83694329Y-77828500D01*
X83495671Y-77828500D01*
X83495666Y-77828500D01*
X83300838Y-77867254D01*
X83300830Y-77867256D01*
X83117298Y-77943277D01*
X83117289Y-77943282D01*
X83009057Y-78015602D01*
X82942380Y-78036480D01*
X82940166Y-78036500D01*
X82704298Y-78036500D01*
X82667432Y-78039401D01*
X82667426Y-78039402D01*
X82509606Y-78085254D01*
X82509603Y-78085255D01*
X82368137Y-78168917D01*
X82368129Y-78168923D01*
X82251923Y-78285129D01*
X82251917Y-78285137D01*
X82168255Y-78426603D01*
X82168254Y-78426606D01*
X82122402Y-78584426D01*
X82122401Y-78584432D01*
X82119500Y-78621298D01*
X82119500Y-78974500D01*
X82099815Y-79041539D01*
X82047011Y-79087294D01*
X81995500Y-79098500D01*
X81591666Y-79098500D01*
X81396838Y-79137254D01*
X81396830Y-79137256D01*
X81213298Y-79213277D01*
X81213289Y-79213282D01*
X81048119Y-79323646D01*
X81048115Y-79323649D01*
X80332181Y-80039584D01*
X80270858Y-80073069D01*
X80201166Y-80068085D01*
X80145233Y-80026213D01*
X80120816Y-79960749D01*
X80120500Y-79951903D01*
X80120500Y-79891313D01*
X80120499Y-79891298D01*
X80117598Y-79854432D01*
X80117597Y-79854426D01*
X80071745Y-79696606D01*
X80071744Y-79696603D01*
X80071744Y-79696602D01*
X79988081Y-79555135D01*
X79988078Y-79555132D01*
X79983298Y-79548969D01*
X79985750Y-79547066D01*
X79959155Y-79498421D01*
X79964104Y-79428726D01*
X79984940Y-79396304D01*
X79983298Y-79395031D01*
X79988075Y-79388870D01*
X79988081Y-79388865D01*
X80071744Y-79247398D01*
X80117598Y-79089569D01*
X80120500Y-79052694D01*
X80120500Y-78621306D01*
X80117598Y-78584431D01*
X80071744Y-78426602D01*
X79988081Y-78285135D01*
X79988079Y-78285133D01*
X79988076Y-78285129D01*
X79871870Y-78168923D01*
X79871862Y-78168917D01*
X79730396Y-78085255D01*
X79730393Y-78085254D01*
X79572573Y-78039402D01*
X79572567Y-78039401D01*
X79535701Y-78036500D01*
X79535694Y-78036500D01*
X78457886Y-78036500D01*
X78390847Y-78016815D01*
X78370205Y-78000181D01*
X76616818Y-76246793D01*
X76583333Y-76185470D01*
X76580499Y-76159112D01*
X76580499Y-75544129D01*
X76580498Y-75544123D01*
X76574091Y-75484516D01*
X76523797Y-75349671D01*
X76523793Y-75349664D01*
X76437547Y-75234455D01*
X76437544Y-75234452D01*
X76322335Y-75148206D01*
X76322328Y-75148202D01*
X76187482Y-75097908D01*
X76187483Y-75097908D01*
X76127883Y-75091501D01*
X76127881Y-75091500D01*
X76127873Y-75091500D01*
X76127864Y-75091500D01*
X75042129Y-75091500D01*
X75042123Y-75091501D01*
X74982516Y-75097908D01*
X74847671Y-75148202D01*
X74847664Y-75148206D01*
X74732455Y-75234452D01*
X74719266Y-75252071D01*
X74663332Y-75293941D01*
X74593640Y-75298925D01*
X74532317Y-75265439D01*
X74520734Y-75252071D01*
X74507546Y-75234454D01*
X74507544Y-75234453D01*
X74507544Y-75234452D01*
X74392335Y-75148206D01*
X74392328Y-75148202D01*
X74257482Y-75097908D01*
X74257483Y-75097908D01*
X74197883Y-75091501D01*
X74197881Y-75091500D01*
X74197873Y-75091500D01*
X74197864Y-75091500D01*
X73112129Y-75091500D01*
X73112123Y-75091501D01*
X73052516Y-75097908D01*
X72917671Y-75148202D01*
X72917668Y-75148204D01*
X72892872Y-75166767D01*
X72827408Y-75191184D01*
X72818561Y-75191500D01*
X72798666Y-75191500D01*
X72603838Y-75230254D01*
X72603830Y-75230256D01*
X72420298Y-75306277D01*
X72420289Y-75306282D01*
X72255119Y-75416646D01*
X72255115Y-75416649D01*
X72114649Y-75557115D01*
X72114646Y-75557119D01*
X72004282Y-75722289D01*
X72004277Y-75722298D01*
X71928256Y-75905830D01*
X71928254Y-75905836D01*
X71911176Y-75991692D01*
X71878790Y-76053603D01*
X71818074Y-76088177D01*
X71789559Y-76091500D01*
X71542130Y-76091500D01*
X71542123Y-76091501D01*
X71482516Y-76097908D01*
X71347671Y-76148202D01*
X71347664Y-76148206D01*
X71232455Y-76234452D01*
X71219266Y-76252071D01*
X71163332Y-76293941D01*
X71093640Y-76298925D01*
X71032317Y-76265439D01*
X71020734Y-76252071D01*
X71016783Y-76246793D01*
X71007546Y-76234454D01*
X71007544Y-76234453D01*
X71007544Y-76234452D01*
X70892335Y-76148206D01*
X70892328Y-76148202D01*
X70757482Y-76097908D01*
X70757483Y-76097908D01*
X70697883Y-76091501D01*
X70697881Y-76091500D01*
X70697873Y-76091500D01*
X70697864Y-76091500D01*
X69612129Y-76091500D01*
X69612123Y-76091501D01*
X69552516Y-76097908D01*
X69417671Y-76148202D01*
X69417664Y-76148206D01*
X69302455Y-76234452D01*
X69302452Y-76234455D01*
X69216206Y-76349664D01*
X69216202Y-76349671D01*
X69165908Y-76484517D01*
X69159501Y-76544116D01*
X69159500Y-76544135D01*
X69159500Y-77159113D01*
X69139815Y-77226152D01*
X69123181Y-77246794D01*
X67369794Y-79000181D01*
X67308471Y-79033666D01*
X67282113Y-79036500D01*
X66229298Y-79036500D01*
X66192432Y-79039401D01*
X66192426Y-79039402D01*
X66034606Y-79085254D01*
X66034603Y-79085255D01*
X65893137Y-79168917D01*
X65893129Y-79168923D01*
X65776923Y-79285129D01*
X65776917Y-79285137D01*
X65693255Y-79426603D01*
X65693254Y-79426606D01*
X65647402Y-79584426D01*
X65647401Y-79584432D01*
X65644500Y-79621298D01*
X65644500Y-80052701D01*
X65647401Y-80089567D01*
X65647402Y-80089573D01*
X65693254Y-80247393D01*
X65693255Y-80247396D01*
X65693256Y-80247398D01*
X65728209Y-80306500D01*
X65776917Y-80388862D01*
X65781702Y-80395031D01*
X65779256Y-80396927D01*
X65805857Y-80445642D01*
X65800873Y-80515334D01*
X65780069Y-80547703D01*
X65781702Y-80548969D01*
X65776917Y-80555137D01*
X65693255Y-80696603D01*
X65693254Y-80696606D01*
X65647402Y-80854426D01*
X65647401Y-80854432D01*
X65644500Y-80891298D01*
X65644500Y-81322701D01*
X65647401Y-81359567D01*
X65647402Y-81359573D01*
X65693254Y-81517393D01*
X65693255Y-81517396D01*
X65776917Y-81658862D01*
X65781702Y-81665031D01*
X65779256Y-81666927D01*
X65805857Y-81715642D01*
X65800873Y-81785334D01*
X65780069Y-81817703D01*
X65781702Y-81818969D01*
X65776917Y-81825137D01*
X65693255Y-81966603D01*
X65693254Y-81966606D01*
X65647402Y-82124426D01*
X65647401Y-82124432D01*
X65644500Y-82161298D01*
X65644500Y-82592701D01*
X65647401Y-82629567D01*
X65647402Y-82629573D01*
X65693254Y-82787393D01*
X65693255Y-82787396D01*
X65776917Y-82928862D01*
X65781702Y-82935031D01*
X65779256Y-82936927D01*
X65805857Y-82985642D01*
X65800873Y-83055334D01*
X65780069Y-83087703D01*
X65781702Y-83088969D01*
X65776917Y-83095137D01*
X65693255Y-83236603D01*
X65693254Y-83236606D01*
X65647402Y-83394426D01*
X65647401Y-83394432D01*
X65644500Y-83431298D01*
X65644500Y-83862701D01*
X65647401Y-83899567D01*
X65647402Y-83899573D01*
X65693254Y-84057393D01*
X65693255Y-84057396D01*
X65776917Y-84198862D01*
X65781702Y-84205031D01*
X65779256Y-84206927D01*
X65805857Y-84255642D01*
X65800873Y-84325334D01*
X65780069Y-84357703D01*
X65781702Y-84358969D01*
X65776917Y-84365137D01*
X65693255Y-84506603D01*
X65693254Y-84506606D01*
X65647402Y-84664426D01*
X65647401Y-84664432D01*
X65644500Y-84701298D01*
X65644500Y-85132701D01*
X65647401Y-85169567D01*
X65647402Y-85169573D01*
X65693254Y-85327393D01*
X65693255Y-85327396D01*
X65776917Y-85468862D01*
X65781702Y-85475031D01*
X65779256Y-85476927D01*
X65805857Y-85525642D01*
X65800873Y-85595334D01*
X65780069Y-85627703D01*
X65781702Y-85628969D01*
X65776917Y-85635137D01*
X65693255Y-85776603D01*
X65693254Y-85776606D01*
X65647402Y-85934426D01*
X65647401Y-85934432D01*
X65644500Y-85971298D01*
X65644500Y-86402701D01*
X65647401Y-86439567D01*
X65647402Y-86439573D01*
X65693254Y-86597393D01*
X65693255Y-86597396D01*
X65776917Y-86738862D01*
X65781702Y-86745031D01*
X65779256Y-86746927D01*
X65805857Y-86795642D01*
X65800873Y-86865334D01*
X65780069Y-86897703D01*
X65781702Y-86898969D01*
X65776917Y-86905137D01*
X65693255Y-87046603D01*
X65693254Y-87046606D01*
X65647402Y-87204426D01*
X65647401Y-87204432D01*
X65644500Y-87241298D01*
X65644500Y-87672701D01*
X65647401Y-87709567D01*
X65647402Y-87709573D01*
X65693254Y-87867393D01*
X65693255Y-87867396D01*
X65776917Y-88008862D01*
X65781702Y-88015031D01*
X65779256Y-88016927D01*
X65805857Y-88065642D01*
X65800873Y-88135334D01*
X65780069Y-88167703D01*
X65781702Y-88168969D01*
X65776917Y-88175137D01*
X65693255Y-88316603D01*
X65693254Y-88316606D01*
X65647402Y-88474426D01*
X65647401Y-88474432D01*
X65644500Y-88511298D01*
X65644500Y-88942701D01*
X65647401Y-88979567D01*
X65647402Y-88979573D01*
X65693254Y-89137393D01*
X65693255Y-89137396D01*
X65776917Y-89278862D01*
X65776923Y-89278870D01*
X65893129Y-89395076D01*
X65893133Y-89395079D01*
X65893135Y-89395081D01*
X66034602Y-89478744D01*
X66076224Y-89490836D01*
X66192426Y-89524597D01*
X66192429Y-89524597D01*
X66192431Y-89524598D01*
X66229306Y-89527500D01*
X67282113Y-89527500D01*
X67349152Y-89547185D01*
X67369794Y-89563819D01*
X69123181Y-91317205D01*
X69156666Y-91378528D01*
X69159500Y-91404886D01*
X69159500Y-92019870D01*
X69159501Y-92019876D01*
X69165908Y-92079483D01*
X69216202Y-92214328D01*
X69220454Y-92222114D01*
X69217280Y-92223846D01*
X69235659Y-92273302D01*
X69220725Y-92341557D01*
X69220117Y-92342502D01*
X69216202Y-92349671D01*
X69165908Y-92484517D01*
X69159501Y-92544116D01*
X69159500Y-92544135D01*
X69159500Y-93159113D01*
X69139815Y-93226152D01*
X69123181Y-93246794D01*
X67369794Y-95000181D01*
X67308471Y-95033666D01*
X67282113Y-95036500D01*
X66204293Y-95036500D01*
X66166226Y-95039496D01*
X66097850Y-95025131D01*
X66048094Y-94976078D01*
X66032500Y-94915878D01*
X66032500Y-91481670D01*
X66032499Y-91481666D01*
X66020218Y-91419925D01*
X65993744Y-91286831D01*
X65924756Y-91120279D01*
X65917722Y-91103297D01*
X65807354Y-90938119D01*
X65807351Y-90938115D01*
X63681819Y-88812583D01*
X63648334Y-88751260D01*
X63645500Y-88724902D01*
X63645500Y-88511313D01*
X63645499Y-88511298D01*
X63642598Y-88474432D01*
X63642597Y-88474426D01*
X63596745Y-88316606D01*
X63596744Y-88316603D01*
X63596744Y-88316602D01*
X63513081Y-88175135D01*
X63513078Y-88175132D01*
X63508298Y-88168969D01*
X63510750Y-88167066D01*
X63484155Y-88118421D01*
X63489104Y-88048726D01*
X63509940Y-88016304D01*
X63508298Y-88015031D01*
X63513075Y-88008870D01*
X63513081Y-88008865D01*
X63596744Y-87867398D01*
X63642598Y-87709569D01*
X63645500Y-87672694D01*
X63645500Y-87241306D01*
X63642598Y-87204431D01*
X63633631Y-87173568D01*
X63596745Y-87046606D01*
X63596744Y-87046603D01*
X63596744Y-87046602D01*
X63513081Y-86905135D01*
X63513078Y-86905132D01*
X63508298Y-86898969D01*
X63510635Y-86897155D01*
X63483798Y-86848050D01*
X63488756Y-86778356D01*
X63509554Y-86745998D01*
X63507903Y-86744717D01*
X63512686Y-86738550D01*
X63596281Y-86597198D01*
X63642100Y-86439486D01*
X63642295Y-86437001D01*
X63642295Y-86437000D01*
X60697705Y-86437000D01*
X60697704Y-86437001D01*
X60697899Y-86439486D01*
X60743718Y-86597198D01*
X60827314Y-86738552D01*
X60832100Y-86744722D01*
X60829640Y-86746629D01*
X60856210Y-86795288D01*
X60851226Y-86864980D01*
X60830162Y-86897781D01*
X60831699Y-86898974D01*
X60826915Y-86905140D01*
X60743255Y-87046603D01*
X60743254Y-87046606D01*
X60697402Y-87204426D01*
X60697401Y-87204432D01*
X60694500Y-87241298D01*
X60694500Y-87672701D01*
X60697401Y-87709567D01*
X60697402Y-87709573D01*
X60743254Y-87867393D01*
X60743255Y-87867396D01*
X60826917Y-88008862D01*
X60831702Y-88015031D01*
X60829256Y-88016927D01*
X60855857Y-88065642D01*
X60850873Y-88135334D01*
X60830069Y-88167703D01*
X60831702Y-88168969D01*
X60826917Y-88175137D01*
X60743255Y-88316603D01*
X60743254Y-88316606D01*
X60697402Y-88474426D01*
X60697401Y-88474432D01*
X60694500Y-88511298D01*
X60694500Y-88942701D01*
X60697401Y-88979567D01*
X60697402Y-88979573D01*
X60743254Y-89137393D01*
X60743255Y-89137396D01*
X60826917Y-89278862D01*
X60826923Y-89278870D01*
X60943129Y-89395076D01*
X60943133Y-89395079D01*
X60943135Y-89395081D01*
X61084602Y-89478744D01*
X61126224Y-89490836D01*
X61242426Y-89524597D01*
X61242429Y-89524597D01*
X61242431Y-89524598D01*
X61279306Y-89527500D01*
X61492904Y-89527500D01*
X61559943Y-89547185D01*
X61580585Y-89563819D01*
X63979181Y-91962415D01*
X64012666Y-92023738D01*
X64015500Y-92050096D01*
X64015500Y-102146903D01*
X63995815Y-102213942D01*
X63979181Y-102234584D01*
X63801585Y-102412181D01*
X63740262Y-102445666D01*
X63713904Y-102448500D01*
X63682165Y-102448500D01*
X63643001Y-102437000D01*
X60672705Y-102437000D01*
X60672704Y-102437001D01*
X60672899Y-102439486D01*
X60718718Y-102597198D01*
X60802314Y-102738552D01*
X60807100Y-102744722D01*
X60804640Y-102746629D01*
X60831210Y-102795288D01*
X60826226Y-102864980D01*
X60805162Y-102897781D01*
X60806699Y-102898974D01*
X60801915Y-102905140D01*
X60718255Y-103046603D01*
X60718254Y-103046606D01*
X60672402Y-103204426D01*
X60672401Y-103204432D01*
X60669500Y-103241298D01*
X60669500Y-103672701D01*
X60672401Y-103709567D01*
X60672402Y-103709573D01*
X60718254Y-103867393D01*
X60718255Y-103867396D01*
X60801917Y-104008862D01*
X60806702Y-104015031D01*
X60804256Y-104016927D01*
X60830857Y-104065642D01*
X60825873Y-104135334D01*
X60805069Y-104167703D01*
X60806702Y-104168969D01*
X60801917Y-104175137D01*
X60718255Y-104316603D01*
X60718254Y-104316606D01*
X60672402Y-104474426D01*
X60672401Y-104474432D01*
X60669500Y-104511298D01*
X60669500Y-104942701D01*
X60672401Y-104979567D01*
X60672402Y-104979573D01*
X60718254Y-105137393D01*
X60718255Y-105137396D01*
X60801917Y-105278862D01*
X60801923Y-105278870D01*
X60918129Y-105395076D01*
X60918133Y-105395079D01*
X60918135Y-105395081D01*
X61059602Y-105478744D01*
X61101224Y-105490836D01*
X61217426Y-105524597D01*
X61217429Y-105524597D01*
X61217431Y-105524598D01*
X61254306Y-105527500D01*
X61467904Y-105527500D01*
X61534943Y-105547185D01*
X61555585Y-105563819D01*
X63979181Y-107987415D01*
X64012666Y-108048738D01*
X64015500Y-108075096D01*
X64015500Y-118148904D01*
X63995815Y-118215943D01*
X63979181Y-118236585D01*
X63803585Y-118412181D01*
X63742262Y-118445666D01*
X63715904Y-118448500D01*
X63682165Y-118448500D01*
X63643001Y-118437000D01*
X60672705Y-118437000D01*
X60672704Y-118437001D01*
X60672899Y-118439486D01*
X60718718Y-118597198D01*
X60802314Y-118738552D01*
X60807100Y-118744722D01*
X60804640Y-118746629D01*
X60831210Y-118795288D01*
X60826226Y-118864980D01*
X60805162Y-118897781D01*
X60806699Y-118898974D01*
X60801915Y-118905140D01*
X60718255Y-119046603D01*
X60718254Y-119046606D01*
X60672402Y-119204426D01*
X60672401Y-119204432D01*
X60669500Y-119241298D01*
X60669500Y-119672701D01*
X60672401Y-119709567D01*
X60672402Y-119709573D01*
X60718254Y-119867393D01*
X60718255Y-119867396D01*
X60801917Y-120008862D01*
X60806702Y-120015031D01*
X60804256Y-120016927D01*
X60830857Y-120065642D01*
X60825873Y-120135334D01*
X60805069Y-120167703D01*
X60806702Y-120168969D01*
X60801917Y-120175137D01*
X60718255Y-120316603D01*
X60718254Y-120316606D01*
X60672402Y-120474426D01*
X60672401Y-120474432D01*
X60669500Y-120511298D01*
X60669500Y-120942701D01*
X60672401Y-120979567D01*
X60672402Y-120979573D01*
X60718254Y-121137393D01*
X60718255Y-121137396D01*
X60801917Y-121278862D01*
X60801923Y-121278870D01*
X60918129Y-121395076D01*
X60918133Y-121395079D01*
X60918135Y-121395081D01*
X61059602Y-121478744D01*
X61101224Y-121490836D01*
X61217426Y-121524597D01*
X61217429Y-121524597D01*
X61217431Y-121524598D01*
X61254306Y-121527500D01*
X61467904Y-121527500D01*
X61534943Y-121547185D01*
X61555585Y-121563819D01*
X65517585Y-125525819D01*
X65551070Y-125587142D01*
X65546086Y-125656834D01*
X65504214Y-125712767D01*
X65438750Y-125737184D01*
X65429904Y-125737500D01*
X60159096Y-125737500D01*
X60092057Y-125717815D01*
X60071415Y-125701181D01*
X57178819Y-122808585D01*
X57145334Y-122747262D01*
X57142500Y-122720904D01*
X57142500Y-119060712D01*
X57158422Y-119004776D01*
X57156503Y-119003821D01*
X57258224Y-118799538D01*
X57258223Y-118799538D01*
X57258229Y-118799528D01*
X57284995Y-118705455D01*
X57322272Y-118646367D01*
X57385581Y-118616809D01*
X57454821Y-118626171D01*
X57508007Y-118671480D01*
X57523525Y-118705460D01*
X57550236Y-118799342D01*
X57550239Y-118799348D01*
X57649369Y-118998428D01*
X57665137Y-119019308D01*
X57665138Y-119019308D01*
X58191037Y-118493409D01*
X58208075Y-118556993D01*
X58273901Y-118671007D01*
X58366993Y-118764099D01*
X58481007Y-118829925D01*
X58544590Y-118846962D01*
X58020672Y-119370879D01*
X58020672Y-119370880D01*
X58136821Y-119442797D01*
X58136822Y-119442798D01*
X58344195Y-119523134D01*
X58562807Y-119564000D01*
X58785193Y-119564000D01*
X59003809Y-119523133D01*
X59211168Y-119442801D01*
X59211181Y-119442795D01*
X59327326Y-119370879D01*
X58803410Y-118846962D01*
X58866993Y-118829925D01*
X58981007Y-118764099D01*
X59074099Y-118671007D01*
X59139925Y-118556993D01*
X59156962Y-118493409D01*
X59682861Y-119019308D01*
X59698631Y-118998425D01*
X59698633Y-118998422D01*
X59797759Y-118799350D01*
X59858621Y-118585439D01*
X59879141Y-118364000D01*
X59879141Y-118363999D01*
X59858621Y-118142560D01*
X59797759Y-117928649D01*
X59758981Y-117850772D01*
X59746720Y-117781987D01*
X59773593Y-117717492D01*
X59831069Y-117677764D01*
X59869981Y-117671500D01*
X60584159Y-117671500D01*
X60651198Y-117691185D01*
X60696953Y-117743989D01*
X60706897Y-117813147D01*
X60703235Y-117830095D01*
X60672900Y-117934505D01*
X60672899Y-117934511D01*
X60672704Y-117936998D01*
X60672705Y-117937000D01*
X63617295Y-117937000D01*
X63617295Y-117936998D01*
X63617100Y-117934513D01*
X63571281Y-117776801D01*
X63487685Y-117635447D01*
X63482900Y-117629278D01*
X63485366Y-117627364D01*
X63458802Y-117578776D01*
X63463749Y-117509082D01*
X63484856Y-117476232D01*
X63483301Y-117475026D01*
X63488077Y-117468868D01*
X63488081Y-117468865D01*
X63571744Y-117327398D01*
X63617598Y-117169569D01*
X63620500Y-117132694D01*
X63620500Y-116701306D01*
X63617598Y-116664431D01*
X63615076Y-116655752D01*
X63571745Y-116506606D01*
X63571744Y-116506603D01*
X63571744Y-116506602D01*
X63488081Y-116365135D01*
X63488078Y-116365132D01*
X63483298Y-116358969D01*
X63485750Y-116357066D01*
X63459155Y-116308421D01*
X63464104Y-116238726D01*
X63484940Y-116206304D01*
X63483298Y-116205031D01*
X63488075Y-116198870D01*
X63488081Y-116198865D01*
X63571744Y-116057398D01*
X63617598Y-115899569D01*
X63620500Y-115862694D01*
X63620500Y-115431306D01*
X63617598Y-115394431D01*
X63604593Y-115349669D01*
X63571745Y-115236606D01*
X63571744Y-115236603D01*
X63571744Y-115236602D01*
X63488081Y-115095135D01*
X63488078Y-115095132D01*
X63483298Y-115088969D01*
X63485750Y-115087066D01*
X63459155Y-115038421D01*
X63464104Y-114968726D01*
X63484940Y-114936304D01*
X63483298Y-114935031D01*
X63488075Y-114928870D01*
X63488081Y-114928865D01*
X63571744Y-114787398D01*
X63617598Y-114629569D01*
X63620500Y-114592694D01*
X63620500Y-114161306D01*
X63617598Y-114124431D01*
X63612389Y-114106503D01*
X63571745Y-113966606D01*
X63571744Y-113966603D01*
X63571744Y-113966602D01*
X63488081Y-113825135D01*
X63488078Y-113825132D01*
X63483298Y-113818969D01*
X63485750Y-113817066D01*
X63459155Y-113768421D01*
X63464104Y-113698726D01*
X63484940Y-113666304D01*
X63483298Y-113665031D01*
X63488075Y-113658870D01*
X63488081Y-113658865D01*
X63571744Y-113517398D01*
X63617598Y-113359569D01*
X63620500Y-113322694D01*
X63620500Y-112891306D01*
X63617598Y-112854431D01*
X63591888Y-112765939D01*
X63578307Y-112719191D01*
X63571744Y-112696602D01*
X63488081Y-112555135D01*
X63488078Y-112555132D01*
X63483298Y-112548969D01*
X63485635Y-112547155D01*
X63458798Y-112498050D01*
X63463756Y-112428356D01*
X63484554Y-112395998D01*
X63482903Y-112394717D01*
X63487686Y-112388550D01*
X63571281Y-112247198D01*
X63617100Y-112089486D01*
X63617295Y-112087001D01*
X63617295Y-112087000D01*
X60672705Y-112087000D01*
X60658677Y-112102174D01*
X60655384Y-112117849D01*
X60606331Y-112167604D01*
X60538165Y-112182940D01*
X60498086Y-112171520D01*
X60497436Y-112173091D01*
X60491814Y-112170762D01*
X60466042Y-112162944D01*
X60301701Y-112113092D01*
X60301699Y-112113091D01*
X60301701Y-112113091D01*
X60104000Y-112093620D01*
X59906300Y-112113091D01*
X59716191Y-112170760D01*
X59541001Y-112264401D01*
X59540994Y-112264405D01*
X59387431Y-112390431D01*
X59261405Y-112543994D01*
X59261401Y-112544001D01*
X59167760Y-112719191D01*
X59110091Y-112909300D01*
X59090620Y-113107000D01*
X59110091Y-113304699D01*
X59167760Y-113494808D01*
X59264276Y-113675376D01*
X59262833Y-113676147D01*
X59281351Y-113735284D01*
X59263775Y-113799356D01*
X59264276Y-113799624D01*
X59263097Y-113801829D01*
X59262868Y-113802665D01*
X59261576Y-113804674D01*
X59167760Y-113980191D01*
X59110091Y-114170300D01*
X59090620Y-114368000D01*
X59110091Y-114565699D01*
X59167760Y-114755808D01*
X59261404Y-114931004D01*
X59263483Y-114934115D01*
X59264070Y-114935991D01*
X59264276Y-114936376D01*
X59264203Y-114936415D01*
X59284357Y-115000794D01*
X59265869Y-115068173D01*
X59263483Y-115071885D01*
X59261404Y-115074995D01*
X59167760Y-115250191D01*
X59110091Y-115440300D01*
X59090620Y-115638000D01*
X59106863Y-115802919D01*
X59093844Y-115871565D01*
X59045779Y-115922275D01*
X58977928Y-115938950D01*
X58911834Y-115916294D01*
X58895779Y-115902754D01*
X58608819Y-115615794D01*
X58575334Y-115554471D01*
X58572500Y-115528113D01*
X58572500Y-111586998D01*
X60672704Y-111586998D01*
X60672705Y-111587000D01*
X61895000Y-111587000D01*
X62395000Y-111587000D01*
X63617295Y-111587000D01*
X63617295Y-111586998D01*
X63617100Y-111584513D01*
X63571281Y-111426801D01*
X63487685Y-111285447D01*
X63487678Y-111285438D01*
X63371561Y-111169321D01*
X63371552Y-111169314D01*
X63230196Y-111085717D01*
X63230193Y-111085716D01*
X63072495Y-111039900D01*
X63072489Y-111039899D01*
X63035649Y-111037000D01*
X62395000Y-111037000D01*
X62395000Y-111587000D01*
X61895000Y-111587000D01*
X61895000Y-111037000D01*
X61254350Y-111037000D01*
X61217510Y-111039899D01*
X61217504Y-111039900D01*
X61059806Y-111085716D01*
X61059803Y-111085717D01*
X60918447Y-111169314D01*
X60918438Y-111169321D01*
X60802321Y-111285438D01*
X60802314Y-111285447D01*
X60718718Y-111426801D01*
X60672899Y-111584513D01*
X60672704Y-111586998D01*
X58572500Y-111586998D01*
X58572500Y-101620715D01*
X58592185Y-101553676D01*
X58600639Y-101542058D01*
X58660595Y-101469004D01*
X58754241Y-101293804D01*
X58811908Y-101103701D01*
X58831380Y-100906000D01*
X58811908Y-100708299D01*
X58754241Y-100518196D01*
X58754239Y-100518193D01*
X58754239Y-100518191D01*
X58660598Y-100343001D01*
X58660594Y-100342994D01*
X58600647Y-100269949D01*
X58573334Y-100205639D01*
X58572500Y-100191284D01*
X58572500Y-97107000D01*
X59090620Y-97107000D01*
X59110091Y-97304699D01*
X59167760Y-97494808D01*
X59264276Y-97675376D01*
X59262533Y-97676307D01*
X59280683Y-97734309D01*
X59263425Y-97797169D01*
X59264276Y-97797624D01*
X59262271Y-97801373D01*
X59262186Y-97801686D01*
X59261703Y-97802436D01*
X59167760Y-97978191D01*
X59110091Y-98168300D01*
X59090620Y-98366000D01*
X59110091Y-98563699D01*
X59167760Y-98753808D01*
X59261404Y-98929004D01*
X59263483Y-98932115D01*
X59264070Y-98933991D01*
X59264276Y-98934376D01*
X59264203Y-98934415D01*
X59284357Y-98998794D01*
X59265869Y-99066173D01*
X59263483Y-99069885D01*
X59261404Y-99072995D01*
X59167760Y-99248191D01*
X59110091Y-99438300D01*
X59090620Y-99636000D01*
X59110091Y-99833699D01*
X59167760Y-100023808D01*
X59261404Y-100199004D01*
X59263483Y-100202115D01*
X59264070Y-100203991D01*
X59264276Y-100204376D01*
X59264203Y-100204415D01*
X59284357Y-100268794D01*
X59265869Y-100336173D01*
X59263483Y-100339885D01*
X59261404Y-100342995D01*
X59167760Y-100518191D01*
X59110091Y-100708300D01*
X59090620Y-100906000D01*
X59110091Y-101103699D01*
X59167760Y-101293808D01*
X59261401Y-101468998D01*
X59261405Y-101469005D01*
X59387431Y-101622568D01*
X59540994Y-101748594D01*
X59541001Y-101748598D01*
X59716191Y-101842239D01*
X59716193Y-101842239D01*
X59716196Y-101842241D01*
X59906299Y-101899908D01*
X59906298Y-101899908D01*
X59924024Y-101901653D01*
X60104000Y-101919380D01*
X60301701Y-101899908D01*
X60491804Y-101842241D01*
X60491808Y-101842238D01*
X60491814Y-101842237D01*
X60497436Y-101839909D01*
X60498283Y-101841954D01*
X60556929Y-101829715D01*
X60622184Y-101854686D01*
X60663581Y-101910972D01*
X60666153Y-101929913D01*
X60672705Y-101937000D01*
X63617295Y-101937000D01*
X63617295Y-101936998D01*
X63617100Y-101934513D01*
X63571281Y-101776801D01*
X63487685Y-101635447D01*
X63482900Y-101629278D01*
X63485366Y-101627364D01*
X63458802Y-101578776D01*
X63463749Y-101509082D01*
X63484856Y-101476232D01*
X63483301Y-101475026D01*
X63488077Y-101468868D01*
X63488081Y-101468865D01*
X63571744Y-101327398D01*
X63617598Y-101169569D01*
X63620500Y-101132694D01*
X63620500Y-100701306D01*
X63617598Y-100664431D01*
X63613986Y-100652000D01*
X63571745Y-100506606D01*
X63571744Y-100506603D01*
X63571744Y-100506602D01*
X63488081Y-100365135D01*
X63488078Y-100365132D01*
X63483298Y-100358969D01*
X63485750Y-100357066D01*
X63459155Y-100308421D01*
X63464104Y-100238726D01*
X63484940Y-100206304D01*
X63483298Y-100205031D01*
X63488075Y-100198870D01*
X63488081Y-100198865D01*
X63571744Y-100057398D01*
X63617598Y-99899569D01*
X63620500Y-99862694D01*
X63620500Y-99431306D01*
X63617598Y-99394431D01*
X63614272Y-99382984D01*
X63571745Y-99236606D01*
X63571744Y-99236603D01*
X63571744Y-99236602D01*
X63488081Y-99095135D01*
X63488078Y-99095132D01*
X63483298Y-99088969D01*
X63485750Y-99087066D01*
X63459155Y-99038421D01*
X63464104Y-98968726D01*
X63484940Y-98936304D01*
X63483298Y-98935031D01*
X63488075Y-98928870D01*
X63488081Y-98928865D01*
X63571744Y-98787398D01*
X63617598Y-98629569D01*
X63620500Y-98592694D01*
X63620500Y-98161306D01*
X63617598Y-98124431D01*
X63613986Y-98112000D01*
X63571745Y-97966606D01*
X63571744Y-97966603D01*
X63571744Y-97966602D01*
X63488081Y-97825135D01*
X63488078Y-97825132D01*
X63483298Y-97818969D01*
X63485750Y-97817066D01*
X63459155Y-97768421D01*
X63464104Y-97698726D01*
X63484940Y-97666304D01*
X63483298Y-97665031D01*
X63488075Y-97658870D01*
X63488081Y-97658865D01*
X63571744Y-97517398D01*
X63617598Y-97359569D01*
X63620500Y-97322694D01*
X63620500Y-96891306D01*
X63617598Y-96854431D01*
X63614272Y-96842984D01*
X63573477Y-96702567D01*
X63571744Y-96696602D01*
X63488081Y-96555135D01*
X63488078Y-96555132D01*
X63483298Y-96548969D01*
X63485635Y-96547155D01*
X63458798Y-96498050D01*
X63463756Y-96428356D01*
X63484554Y-96395998D01*
X63482903Y-96394717D01*
X63487686Y-96388550D01*
X63571281Y-96247198D01*
X63617100Y-96089486D01*
X63617295Y-96087001D01*
X63617295Y-96087000D01*
X60672705Y-96087000D01*
X60658677Y-96102174D01*
X60655384Y-96117849D01*
X60606331Y-96167604D01*
X60538165Y-96182940D01*
X60498086Y-96171520D01*
X60497436Y-96173091D01*
X60491814Y-96170762D01*
X60408549Y-96145504D01*
X60301701Y-96113092D01*
X60301699Y-96113091D01*
X60301701Y-96113091D01*
X60104000Y-96093620D01*
X59906300Y-96113091D01*
X59716191Y-96170760D01*
X59541001Y-96264401D01*
X59540994Y-96264405D01*
X59387431Y-96390431D01*
X59261405Y-96543994D01*
X59261401Y-96544001D01*
X59167760Y-96719191D01*
X59110091Y-96909300D01*
X59090620Y-97107000D01*
X58572500Y-97107000D01*
X58572500Y-95586998D01*
X60672704Y-95586998D01*
X60672705Y-95587000D01*
X61895000Y-95587000D01*
X62395000Y-95587000D01*
X63617295Y-95587000D01*
X63617295Y-95586998D01*
X63617100Y-95584513D01*
X63571281Y-95426801D01*
X63487685Y-95285447D01*
X63487678Y-95285438D01*
X63371561Y-95169321D01*
X63371552Y-95169314D01*
X63230196Y-95085717D01*
X63230193Y-95085716D01*
X63072495Y-95039900D01*
X63072489Y-95039899D01*
X63035649Y-95037000D01*
X62395000Y-95037000D01*
X62395000Y-95587000D01*
X61895000Y-95587000D01*
X61895000Y-95037000D01*
X61254350Y-95037000D01*
X61217510Y-95039899D01*
X61217504Y-95039900D01*
X61059806Y-95085716D01*
X61059803Y-95085717D01*
X60918447Y-95169314D01*
X60918438Y-95169321D01*
X60802321Y-95285438D01*
X60802314Y-95285447D01*
X60718718Y-95426801D01*
X60672899Y-95584513D01*
X60672704Y-95586998D01*
X58572500Y-95586998D01*
X58572500Y-85618715D01*
X58592185Y-85551676D01*
X58600639Y-85540058D01*
X58660595Y-85467004D01*
X58754241Y-85291804D01*
X58811908Y-85101701D01*
X58831380Y-84904000D01*
X58811908Y-84706299D01*
X58754241Y-84516196D01*
X58754239Y-84516193D01*
X58754239Y-84516191D01*
X58660598Y-84341001D01*
X58660594Y-84340994D01*
X58600647Y-84267949D01*
X58573334Y-84203639D01*
X58572500Y-84189284D01*
X58572500Y-82364000D01*
X59077620Y-82364000D01*
X59097091Y-82561699D01*
X59154760Y-82751808D01*
X59248401Y-82926998D01*
X59248402Y-82926999D01*
X59248405Y-82927004D01*
X59262404Y-82944062D01*
X59289717Y-83008371D01*
X59277926Y-83077239D01*
X59275909Y-83081180D01*
X59180760Y-83259191D01*
X59123091Y-83449300D01*
X59103620Y-83647000D01*
X59123091Y-83844699D01*
X59180760Y-84034808D01*
X59276829Y-84214539D01*
X59291071Y-84282941D01*
X59266071Y-84348185D01*
X59263331Y-84351649D01*
X59261406Y-84353993D01*
X59261401Y-84354002D01*
X59167760Y-84529191D01*
X59110091Y-84719300D01*
X59090620Y-84917000D01*
X59110091Y-85114699D01*
X59167760Y-85304808D01*
X59261401Y-85479998D01*
X59261405Y-85480005D01*
X59387431Y-85633568D01*
X59540994Y-85759594D01*
X59541001Y-85759598D01*
X59716191Y-85853239D01*
X59716193Y-85853239D01*
X59716196Y-85853241D01*
X59906299Y-85910908D01*
X59906298Y-85910908D01*
X59924024Y-85912653D01*
X60104000Y-85930380D01*
X60301701Y-85910908D01*
X60491804Y-85853241D01*
X60513776Y-85841496D01*
X60582177Y-85827254D01*
X60647421Y-85852252D01*
X60688793Y-85908556D01*
X60691781Y-85930592D01*
X60697705Y-85937000D01*
X63642295Y-85937000D01*
X63642295Y-85936998D01*
X63642100Y-85934513D01*
X63596281Y-85776801D01*
X63512685Y-85635447D01*
X63507900Y-85629278D01*
X63510366Y-85627364D01*
X63483802Y-85578776D01*
X63488749Y-85509082D01*
X63509856Y-85476232D01*
X63508301Y-85475026D01*
X63513077Y-85468868D01*
X63513081Y-85468865D01*
X63596744Y-85327398D01*
X63642598Y-85169569D01*
X63645500Y-85132694D01*
X63645500Y-84701306D01*
X63642598Y-84664431D01*
X63634087Y-84635137D01*
X63596745Y-84506606D01*
X63596744Y-84506603D01*
X63596744Y-84506602D01*
X63513081Y-84365135D01*
X63513078Y-84365132D01*
X63508298Y-84358969D01*
X63510750Y-84357066D01*
X63484155Y-84308421D01*
X63489104Y-84238726D01*
X63509940Y-84206304D01*
X63508298Y-84205031D01*
X63513075Y-84198870D01*
X63513081Y-84198865D01*
X63596744Y-84057398D01*
X63642598Y-83899569D01*
X63645500Y-83862694D01*
X63645500Y-83431306D01*
X63642598Y-83394431D01*
X63634087Y-83365137D01*
X63596745Y-83236606D01*
X63596744Y-83236603D01*
X63596744Y-83236602D01*
X63513081Y-83095135D01*
X63513078Y-83095132D01*
X63508298Y-83088969D01*
X63510750Y-83087066D01*
X63484155Y-83038421D01*
X63489104Y-82968726D01*
X63509940Y-82936304D01*
X63508298Y-82935031D01*
X63513075Y-82928870D01*
X63513081Y-82928865D01*
X63596744Y-82787398D01*
X63642598Y-82629569D01*
X63645500Y-82592694D01*
X63645500Y-82161306D01*
X63642598Y-82124431D01*
X63622424Y-82054994D01*
X63596745Y-81966606D01*
X63596744Y-81966603D01*
X63596744Y-81966602D01*
X63513081Y-81825135D01*
X63513078Y-81825132D01*
X63508298Y-81818969D01*
X63510750Y-81817066D01*
X63484155Y-81768421D01*
X63489104Y-81698726D01*
X63509940Y-81666304D01*
X63508298Y-81665031D01*
X63513075Y-81658870D01*
X63513081Y-81658865D01*
X63596744Y-81517398D01*
X63642598Y-81359569D01*
X63645500Y-81322694D01*
X63645500Y-80891306D01*
X63642598Y-80854431D01*
X63634177Y-80825447D01*
X63597518Y-80699265D01*
X63596744Y-80696602D01*
X63513081Y-80555135D01*
X63513078Y-80555132D01*
X63508298Y-80548969D01*
X63510635Y-80547155D01*
X63483798Y-80498050D01*
X63488756Y-80428356D01*
X63509554Y-80395998D01*
X63507903Y-80394717D01*
X63512686Y-80388550D01*
X63596281Y-80247198D01*
X63642100Y-80089486D01*
X63642295Y-80087001D01*
X63642295Y-80087000D01*
X60697705Y-80087000D01*
X60688890Y-80096535D01*
X60681481Y-80131799D01*
X60632427Y-80181553D01*
X60564261Y-80196889D01*
X60513777Y-80182504D01*
X60491804Y-80170759D01*
X60301701Y-80113092D01*
X60301699Y-80113091D01*
X60301701Y-80113091D01*
X60104000Y-80093620D01*
X59906300Y-80113091D01*
X59716191Y-80170760D01*
X59541001Y-80264401D01*
X59540994Y-80264405D01*
X59387431Y-80390431D01*
X59261405Y-80543994D01*
X59261401Y-80544001D01*
X59167760Y-80719191D01*
X59110091Y-80909300D01*
X59090620Y-81107000D01*
X59110091Y-81304699D01*
X59167759Y-81494804D01*
X59259621Y-81666667D01*
X59273862Y-81735070D01*
X59250794Y-81795270D01*
X59251788Y-81795934D01*
X59248863Y-81800311D01*
X59248862Y-81800314D01*
X59248857Y-81800320D01*
X59248401Y-81801002D01*
X59154760Y-81976191D01*
X59097091Y-82166300D01*
X59077620Y-82364000D01*
X58572500Y-82364000D01*
X58572500Y-80467886D01*
X58592185Y-80400847D01*
X58608819Y-80380205D01*
X59402026Y-79586998D01*
X60697704Y-79586998D01*
X60697705Y-79587000D01*
X61920000Y-79587000D01*
X62420000Y-79587000D01*
X63642295Y-79587000D01*
X63642295Y-79586998D01*
X63642100Y-79584513D01*
X63596281Y-79426801D01*
X63512685Y-79285447D01*
X63512678Y-79285438D01*
X63396561Y-79169321D01*
X63396552Y-79169314D01*
X63255196Y-79085717D01*
X63255193Y-79085716D01*
X63097495Y-79039900D01*
X63097489Y-79039899D01*
X63060649Y-79037000D01*
X62420000Y-79037000D01*
X62420000Y-79587000D01*
X61920000Y-79587000D01*
X61920000Y-79037000D01*
X61279350Y-79037000D01*
X61242510Y-79039899D01*
X61242504Y-79039900D01*
X61084806Y-79085716D01*
X61084803Y-79085717D01*
X60943447Y-79169314D01*
X60943438Y-79169321D01*
X60827321Y-79285438D01*
X60827314Y-79285447D01*
X60743718Y-79426801D01*
X60697899Y-79584513D01*
X60697704Y-79586998D01*
X59402026Y-79586998D01*
X64216205Y-74772819D01*
X64277528Y-74739334D01*
X64303886Y-74736500D01*
X81746113Y-74736500D01*
X81813152Y-74756185D01*
X81833794Y-74772819D01*
X87253181Y-80192205D01*
X87286666Y-80253528D01*
X87289500Y-80279886D01*
X87289500Y-81903284D01*
X87269815Y-81970323D01*
X87261353Y-81981949D01*
X87201405Y-82054994D01*
X87201401Y-82055001D01*
X87107760Y-82230191D01*
X87050091Y-82420300D01*
X87030620Y-82618000D01*
X87050091Y-82815699D01*
X87107760Y-83005808D01*
X87201401Y-83180998D01*
X87201402Y-83180999D01*
X87201405Y-83181004D01*
X87261353Y-83254051D01*
X87288666Y-83318359D01*
X87289500Y-83332715D01*
X87289500Y-97899384D01*
X87269815Y-97966423D01*
X87261353Y-97978049D01*
X87174405Y-98083994D01*
X87174403Y-98083997D01*
X87080760Y-98259191D01*
X87023091Y-98449300D01*
X87010903Y-98573054D01*
X86984742Y-98637841D01*
X86973750Y-98645618D01*
X86977497Y-98647797D01*
X87009328Y-98709994D01*
X87010903Y-98720945D01*
X87023091Y-98844699D01*
X87080760Y-99034808D01*
X87174401Y-99209998D01*
X87174405Y-99210005D01*
X87261353Y-99315950D01*
X87288666Y-99380260D01*
X87289500Y-99394615D01*
X87289500Y-112480113D01*
X87269815Y-112547152D01*
X87253181Y-112567794D01*
X86019794Y-113801181D01*
X85958471Y-113834666D01*
X85932113Y-113837500D01*
X85130841Y-113837500D01*
X85063802Y-113817815D01*
X85018047Y-113765011D01*
X85008103Y-113695853D01*
X85011765Y-113678905D01*
X85042099Y-113574494D01*
X85042100Y-113574488D01*
X85042295Y-113572001D01*
X85042295Y-113572000D01*
X82097705Y-113572000D01*
X82097704Y-113572001D01*
X82097899Y-113574486D01*
X82143718Y-113732198D01*
X82227314Y-113873552D01*
X82232100Y-113879722D01*
X82229640Y-113881629D01*
X82256210Y-113930288D01*
X82251226Y-113999980D01*
X82230162Y-114032781D01*
X82231699Y-114033974D01*
X82226915Y-114040140D01*
X82143255Y-114181603D01*
X82143254Y-114181606D01*
X82097402Y-114339426D01*
X82097401Y-114339432D01*
X82094500Y-114376298D01*
X82094500Y-114807701D01*
X82097401Y-114844567D01*
X82097402Y-114844573D01*
X82143254Y-115002393D01*
X82143255Y-115002396D01*
X82143256Y-115002398D01*
X82176208Y-115058117D01*
X82226917Y-115143862D01*
X82231702Y-115150031D01*
X82229256Y-115151927D01*
X82255857Y-115200642D01*
X82250873Y-115270334D01*
X82230069Y-115302703D01*
X82231702Y-115303969D01*
X82226917Y-115310137D01*
X82143255Y-115451603D01*
X82143254Y-115451606D01*
X82097402Y-115609426D01*
X82097401Y-115609432D01*
X82094500Y-115646298D01*
X82094500Y-116077701D01*
X82097401Y-116114567D01*
X82097402Y-116114573D01*
X82143254Y-116272393D01*
X82143255Y-116272396D01*
X82226917Y-116413862D01*
X82231702Y-116420031D01*
X82229256Y-116421927D01*
X82255857Y-116470642D01*
X82250873Y-116540334D01*
X82230069Y-116572703D01*
X82231702Y-116573969D01*
X82226917Y-116580137D01*
X82143255Y-116721603D01*
X82143254Y-116721606D01*
X82097402Y-116879426D01*
X82097401Y-116879432D01*
X82094500Y-116916298D01*
X82094500Y-117347701D01*
X82097401Y-117384567D01*
X82097402Y-117384573D01*
X82143254Y-117542393D01*
X82143255Y-117542396D01*
X82143256Y-117542398D01*
X82161461Y-117573181D01*
X82226917Y-117683862D01*
X82231702Y-117690031D01*
X82229256Y-117691927D01*
X82255857Y-117740642D01*
X82250873Y-117810334D01*
X82230069Y-117842703D01*
X82231702Y-117843969D01*
X82226917Y-117850137D01*
X82143255Y-117991603D01*
X82143254Y-117991606D01*
X82097402Y-118149426D01*
X82097401Y-118149432D01*
X82094500Y-118186298D01*
X82094500Y-118617701D01*
X82097401Y-118654567D01*
X82097402Y-118654573D01*
X82143254Y-118812393D01*
X82143255Y-118812396D01*
X82143256Y-118812398D01*
X82159949Y-118840624D01*
X82226917Y-118953862D01*
X82231702Y-118960031D01*
X82229369Y-118961840D01*
X82256210Y-119010995D01*
X82251226Y-119080687D01*
X82230470Y-119113021D01*
X82232097Y-119114283D01*
X82227313Y-119120449D01*
X82143718Y-119261801D01*
X82097899Y-119419513D01*
X82097704Y-119421998D01*
X82097705Y-119422000D01*
X85042295Y-119422000D01*
X85042295Y-119421998D01*
X85042100Y-119419511D01*
X85042099Y-119419508D01*
X85035980Y-119398445D01*
X85036179Y-119328575D01*
X85074121Y-119269905D01*
X85137759Y-119241061D01*
X85206889Y-119251202D01*
X85213509Y-119254491D01*
X85370191Y-119338239D01*
X85370193Y-119338239D01*
X85370196Y-119338241D01*
X85560299Y-119395908D01*
X85560298Y-119395908D01*
X85578024Y-119397653D01*
X85758000Y-119415380D01*
X85955701Y-119395908D01*
X86145804Y-119338241D01*
X86168474Y-119326124D01*
X86273652Y-119269905D01*
X86321004Y-119244595D01*
X86474568Y-119118568D01*
X86600595Y-118965004D01*
X86689041Y-118799533D01*
X86694239Y-118789808D01*
X86694239Y-118789807D01*
X86694241Y-118789804D01*
X86751908Y-118599701D01*
X86771380Y-118402000D01*
X86751908Y-118204299D01*
X86704038Y-118046495D01*
X86703416Y-117976629D01*
X86740664Y-117917516D01*
X86803958Y-117887926D01*
X86822700Y-117886501D01*
X86878314Y-117886501D01*
X86999894Y-117862315D01*
X86999894Y-117862316D01*
X86999900Y-117862313D01*
X87024080Y-117857505D01*
X87115820Y-117819505D01*
X87161389Y-117800630D01*
X87284966Y-117718059D01*
X90556963Y-114446060D01*
X90556966Y-114446059D01*
X90662059Y-114340966D01*
X90730436Y-114238632D01*
X90744630Y-114217389D01*
X90774998Y-114144074D01*
X90790560Y-114106503D01*
X90790561Y-114106500D01*
X90794119Y-114097911D01*
X90801505Y-114080080D01*
X90810676Y-114033974D01*
X90813533Y-114019613D01*
X90813533Y-114019611D01*
X90830501Y-113934314D01*
X90830501Y-113780578D01*
X90830500Y-113780552D01*
X90830500Y-101868816D01*
X90850185Y-101801777D01*
X90858640Y-101790158D01*
X90891595Y-101750004D01*
X90985241Y-101574804D01*
X91042908Y-101384701D01*
X91062380Y-101187000D01*
X91042908Y-100989299D01*
X90985241Y-100799196D01*
X90985239Y-100799193D01*
X90985239Y-100799191D01*
X90891598Y-100624002D01*
X90891595Y-100623996D01*
X90887152Y-100618582D01*
X90858646Y-100583846D01*
X90831333Y-100519536D01*
X90830500Y-100505183D01*
X90830500Y-85872715D01*
X90850185Y-85805676D01*
X90858639Y-85794058D01*
X90918595Y-85721004D01*
X91012241Y-85545804D01*
X91069908Y-85355701D01*
X91089380Y-85158000D01*
X91069908Y-84960299D01*
X91012241Y-84770196D01*
X91012239Y-84770193D01*
X91012239Y-84770191D01*
X90918598Y-84595001D01*
X90918594Y-84594994D01*
X90858647Y-84521949D01*
X90831334Y-84457639D01*
X90830500Y-84443284D01*
X90830500Y-79488446D01*
X90830501Y-79488425D01*
X90830501Y-79333685D01*
X90801506Y-79187926D01*
X90801506Y-79187925D01*
X90801505Y-79187924D01*
X90801505Y-79187921D01*
X90798652Y-79181034D01*
X90761567Y-79091501D01*
X90744630Y-79050611D01*
X90709139Y-78997495D01*
X90662059Y-78927034D01*
X90662057Y-78927031D01*
X90552647Y-78817621D01*
X90552624Y-78817600D01*
X83098969Y-71363943D01*
X83098968Y-71363942D01*
X82989114Y-71290541D01*
X82975389Y-71281370D01*
X82975386Y-71281368D01*
X82975385Y-71281368D01*
X82894955Y-71248053D01*
X82838080Y-71224495D01*
X82813894Y-71219684D01*
X82692314Y-71195499D01*
X82692312Y-71195499D01*
X82543688Y-71195499D01*
X82537574Y-71195499D01*
X82537554Y-71195500D01*
X63258446Y-71195500D01*
X63258426Y-71195499D01*
X63252312Y-71195499D01*
X63103688Y-71195499D01*
X63103686Y-71195499D01*
X62982105Y-71219684D01*
X62967540Y-71222581D01*
X62957918Y-71224495D01*
X62957917Y-71224495D01*
X62901045Y-71248053D01*
X62820615Y-71281367D01*
X62820613Y-71281368D01*
X62813005Y-71286452D01*
X62806887Y-71290540D01*
X62697033Y-71363941D01*
X62659311Y-71401664D01*
X62591941Y-71469034D01*
X62591939Y-71469036D01*
X61622655Y-72438319D01*
X61561332Y-72471804D01*
X61491640Y-72466820D01*
X61435707Y-72424948D01*
X61414768Y-72381078D01*
X61357588Y-72155283D01*
X61257731Y-71927630D01*
X61157434Y-71774116D01*
X60416962Y-72514589D01*
X60399925Y-72451007D01*
X60334099Y-72336993D01*
X60241007Y-72243901D01*
X60126993Y-72178075D01*
X60063410Y-72161037D01*
X60804057Y-71420390D01*
X60804056Y-71420389D01*
X60757229Y-71383943D01*
X60538614Y-71265635D01*
X60538603Y-71265630D01*
X60324122Y-71191998D01*
X95120532Y-71191998D01*
X95120532Y-71192001D01*
X95140364Y-71418686D01*
X95140366Y-71418697D01*
X95199258Y-71638488D01*
X95199261Y-71638497D01*
X95295431Y-71844732D01*
X95295432Y-71844734D01*
X95425954Y-72031141D01*
X95586858Y-72192045D01*
X95586861Y-72192047D01*
X95773266Y-72322568D01*
X95831275Y-72349618D01*
X95883714Y-72395791D01*
X95902866Y-72462984D01*
X95882650Y-72529865D01*
X95831275Y-72574382D01*
X95773267Y-72601431D01*
X95773265Y-72601432D01*
X95586858Y-72731954D01*
X95425954Y-72892858D01*
X95295432Y-73079265D01*
X95295431Y-73079267D01*
X95199261Y-73285502D01*
X95199258Y-73285511D01*
X95140366Y-73505302D01*
X95140364Y-73505313D01*
X95120532Y-73731998D01*
X95120532Y-73732001D01*
X95140364Y-73958686D01*
X95140366Y-73958697D01*
X95199258Y-74178488D01*
X95199261Y-74178497D01*
X95295431Y-74384732D01*
X95295432Y-74384734D01*
X95425954Y-74571141D01*
X95586858Y-74732045D01*
X95597268Y-74739334D01*
X95773266Y-74862568D01*
X95831275Y-74889618D01*
X95883714Y-74935791D01*
X95902866Y-75002984D01*
X95882650Y-75069865D01*
X95831275Y-75114382D01*
X95773267Y-75141431D01*
X95773265Y-75141432D01*
X95586858Y-75271954D01*
X95425954Y-75432858D01*
X95295432Y-75619265D01*
X95295431Y-75619267D01*
X95199261Y-75825502D01*
X95199258Y-75825511D01*
X95140366Y-76045302D01*
X95140364Y-76045313D01*
X95120532Y-76271998D01*
X95120532Y-76272001D01*
X95140364Y-76498686D01*
X95140366Y-76498697D01*
X95199258Y-76718488D01*
X95199261Y-76718497D01*
X95295431Y-76924732D01*
X95295432Y-76924734D01*
X95425954Y-77111141D01*
X95586858Y-77272045D01*
X95586861Y-77272047D01*
X95773266Y-77402568D01*
X95831275Y-77429618D01*
X95883714Y-77475791D01*
X95902866Y-77542984D01*
X95882650Y-77609865D01*
X95831275Y-77654382D01*
X95773267Y-77681431D01*
X95773265Y-77681432D01*
X95586858Y-77811954D01*
X95425954Y-77972858D01*
X95295432Y-78159265D01*
X95295431Y-78159267D01*
X95199261Y-78365502D01*
X95199258Y-78365511D01*
X95140366Y-78585302D01*
X95140364Y-78585313D01*
X95120532Y-78811998D01*
X95120532Y-78812001D01*
X95140364Y-79038686D01*
X95140366Y-79038697D01*
X95199258Y-79258488D01*
X95199261Y-79258497D01*
X95295431Y-79464732D01*
X95295432Y-79464734D01*
X95425954Y-79651141D01*
X95586858Y-79812045D01*
X95586861Y-79812047D01*
X95773266Y-79942568D01*
X95831275Y-79969618D01*
X95883714Y-80015791D01*
X95902866Y-80082984D01*
X95882650Y-80149865D01*
X95831275Y-80194381D01*
X95814272Y-80202310D01*
X95773267Y-80221431D01*
X95773265Y-80221432D01*
X95586858Y-80351954D01*
X95425954Y-80512858D01*
X95295432Y-80699265D01*
X95295431Y-80699267D01*
X95199261Y-80905502D01*
X95199258Y-80905511D01*
X95140366Y-81125302D01*
X95140364Y-81125313D01*
X95120532Y-81351998D01*
X95120532Y-81352001D01*
X95140364Y-81578686D01*
X95140366Y-81578697D01*
X95199258Y-81798488D01*
X95199261Y-81798497D01*
X95295431Y-82004732D01*
X95295432Y-82004734D01*
X95425954Y-82191141D01*
X95586858Y-82352045D01*
X95586861Y-82352047D01*
X95773266Y-82482568D01*
X95831275Y-82509618D01*
X95883714Y-82555791D01*
X95902866Y-82622984D01*
X95882650Y-82689865D01*
X95831275Y-82734382D01*
X95773267Y-82761431D01*
X95773265Y-82761432D01*
X95586858Y-82891954D01*
X95425954Y-83052858D01*
X95295432Y-83239265D01*
X95295431Y-83239267D01*
X95199261Y-83445502D01*
X95199258Y-83445511D01*
X95140366Y-83665302D01*
X95140364Y-83665313D01*
X95120532Y-83891998D01*
X95120532Y-83892001D01*
X95140364Y-84118686D01*
X95140366Y-84118697D01*
X95199258Y-84338488D01*
X95199261Y-84338497D01*
X95295431Y-84544732D01*
X95295432Y-84544734D01*
X95425954Y-84731141D01*
X95586858Y-84892045D01*
X95586861Y-84892047D01*
X95773266Y-85022568D01*
X95979504Y-85118739D01*
X96199308Y-85177635D01*
X96361230Y-85191801D01*
X96425998Y-85197468D01*
X96426000Y-85197468D01*
X96426002Y-85197468D01*
X96482673Y-85192509D01*
X96652692Y-85177635D01*
X96872496Y-85118739D01*
X97078734Y-85022568D01*
X97265139Y-84892047D01*
X97426047Y-84731139D01*
X97556568Y-84544734D01*
X97652739Y-84338496D01*
X97711635Y-84118692D01*
X97728634Y-83924384D01*
X97731468Y-83892001D01*
X97731468Y-83891998D01*
X97714784Y-83701306D01*
X97711635Y-83665308D01*
X97652739Y-83445504D01*
X97556568Y-83239266D01*
X97429224Y-83057398D01*
X97426045Y-83052858D01*
X97265141Y-82891954D01*
X97078734Y-82761432D01*
X97078728Y-82761429D01*
X97020725Y-82734382D01*
X96968285Y-82688210D01*
X96949133Y-82621017D01*
X96969348Y-82554135D01*
X97020725Y-82509618D01*
X97078734Y-82482568D01*
X97265139Y-82352047D01*
X97426047Y-82191139D01*
X97556568Y-82004734D01*
X97652739Y-81798496D01*
X97711635Y-81578692D01*
X97728634Y-81384384D01*
X97731468Y-81352001D01*
X97731468Y-81351998D01*
X97725344Y-81282000D01*
X97711635Y-81125308D01*
X97652739Y-80905504D01*
X97556568Y-80699266D01*
X97429224Y-80517398D01*
X97426045Y-80512858D01*
X97265141Y-80351954D01*
X97078734Y-80221432D01*
X97078728Y-80221429D01*
X97051038Y-80208517D01*
X97020724Y-80194381D01*
X96968285Y-80148210D01*
X96949133Y-80081017D01*
X96969348Y-80014135D01*
X97020725Y-79969618D01*
X97078734Y-79942568D01*
X97265139Y-79812047D01*
X97426047Y-79651139D01*
X97556568Y-79464734D01*
X97652739Y-79258496D01*
X97711635Y-79038692D01*
X97730598Y-78821941D01*
X97731468Y-78812001D01*
X97731468Y-78811998D01*
X97714784Y-78621306D01*
X97711635Y-78585308D01*
X97652739Y-78365504D01*
X97556568Y-78159266D01*
X97448287Y-78004623D01*
X97426045Y-77972858D01*
X97265141Y-77811954D01*
X97078734Y-77681432D01*
X97078728Y-77681429D01*
X97020725Y-77654382D01*
X96968285Y-77608210D01*
X96949133Y-77541017D01*
X96969348Y-77474135D01*
X97020725Y-77429618D01*
X97078734Y-77402568D01*
X97265139Y-77272047D01*
X97426047Y-77111139D01*
X97556568Y-76924734D01*
X97652739Y-76718496D01*
X97711635Y-76498692D01*
X97731468Y-76272000D01*
X97729724Y-76252071D01*
X97723898Y-76185470D01*
X97711635Y-76045308D01*
X97652739Y-75825504D01*
X97556568Y-75619266D01*
X97426047Y-75432861D01*
X97426045Y-75432858D01*
X97265141Y-75271954D01*
X97078734Y-75141432D01*
X97078728Y-75141429D01*
X97020725Y-75114382D01*
X96968285Y-75068210D01*
X96949133Y-75001017D01*
X96969348Y-74934135D01*
X97020725Y-74889618D01*
X97078734Y-74862568D01*
X97265139Y-74732047D01*
X97426047Y-74571139D01*
X97556568Y-74384734D01*
X97652739Y-74178496D01*
X97711635Y-73958692D01*
X97731468Y-73732000D01*
X97711635Y-73505308D01*
X97652739Y-73285504D01*
X97556568Y-73079266D01*
X97426047Y-72892861D01*
X97426045Y-72892858D01*
X97265141Y-72731954D01*
X97078734Y-72601432D01*
X97078728Y-72601429D01*
X97020725Y-72574382D01*
X96968285Y-72528210D01*
X96949133Y-72461017D01*
X96969348Y-72394135D01*
X97020725Y-72349618D01*
X97078734Y-72322568D01*
X97265139Y-72192047D01*
X97426047Y-72031139D01*
X97556568Y-71844734D01*
X97652739Y-71638496D01*
X97711635Y-71418692D01*
X97731468Y-71192000D01*
X97711635Y-70965308D01*
X97652739Y-70745504D01*
X97556568Y-70539266D01*
X97426047Y-70352861D01*
X97426045Y-70352858D01*
X97265141Y-70191954D01*
X97078734Y-70061432D01*
X97078732Y-70061431D01*
X96872497Y-69965261D01*
X96872488Y-69965258D01*
X96652697Y-69906366D01*
X96652693Y-69906365D01*
X96652692Y-69906365D01*
X96652691Y-69906364D01*
X96652686Y-69906364D01*
X96426002Y-69886532D01*
X96425998Y-69886532D01*
X96199313Y-69906364D01*
X96199302Y-69906366D01*
X95979511Y-69965258D01*
X95979502Y-69965261D01*
X95773267Y-70061431D01*
X95773265Y-70061432D01*
X95586858Y-70191954D01*
X95425954Y-70352858D01*
X95295432Y-70539265D01*
X95295431Y-70539267D01*
X95199261Y-70745502D01*
X95199258Y-70745511D01*
X95140366Y-70965302D01*
X95140364Y-70965313D01*
X95120532Y-71191998D01*
X60324122Y-71191998D01*
X60303493Y-71184916D01*
X60058293Y-71144000D01*
X59809707Y-71144000D01*
X59564506Y-71184916D01*
X59329396Y-71265630D01*
X59329390Y-71265632D01*
X59110761Y-71383949D01*
X59063942Y-71420388D01*
X59063942Y-71420390D01*
X59804590Y-72161037D01*
X59741007Y-72178075D01*
X59626993Y-72243901D01*
X59533901Y-72336993D01*
X59468075Y-72451007D01*
X59451037Y-72514589D01*
X58710564Y-71774116D01*
X58610267Y-71927632D01*
X58510412Y-72155282D01*
X58449387Y-72396261D01*
X58449385Y-72396270D01*
X58428859Y-72643994D01*
X58428859Y-72644005D01*
X58449385Y-72891729D01*
X58449387Y-72891738D01*
X58510412Y-73132717D01*
X58610266Y-73360364D01*
X58710564Y-73513882D01*
X59451037Y-72773409D01*
X59468075Y-72836993D01*
X59533901Y-72951007D01*
X59626993Y-73044099D01*
X59741007Y-73109925D01*
X59804590Y-73126962D01*
X59063942Y-73867609D01*
X59110768Y-73904055D01*
X59110770Y-73904056D01*
X59329385Y-74022364D01*
X59329396Y-74022369D01*
X59564507Y-74103083D01*
X59664023Y-74119689D01*
X59726908Y-74150139D01*
X59763348Y-74209753D01*
X59761774Y-74279605D01*
X59731295Y-74329679D01*
X55199943Y-78861030D01*
X55199942Y-78861031D01*
X55117372Y-78984607D01*
X55117366Y-78984618D01*
X55088475Y-79054370D01*
X55088475Y-79054371D01*
X55060495Y-79121920D01*
X55055684Y-79146105D01*
X55031499Y-79267685D01*
X55031499Y-79422425D01*
X55031500Y-79422446D01*
X55031500Y-81649284D01*
X55011815Y-81716323D01*
X55003353Y-81727949D01*
X54943405Y-81800994D01*
X54943401Y-81801001D01*
X54849760Y-81976191D01*
X54792091Y-82166300D01*
X54772620Y-82364000D01*
X54792091Y-82561699D01*
X54849760Y-82751808D01*
X54943401Y-82926998D01*
X54943402Y-82926999D01*
X54943405Y-82927004D01*
X55003353Y-83000051D01*
X55030666Y-83064359D01*
X55031500Y-83078715D01*
X55031500Y-97651284D01*
X55011815Y-97718323D01*
X55003353Y-97729949D01*
X54943405Y-97802994D01*
X54943401Y-97803001D01*
X54849760Y-97978191D01*
X54792091Y-98168300D01*
X54772620Y-98366000D01*
X54792091Y-98563699D01*
X54849760Y-98753808D01*
X54943401Y-98928998D01*
X54943402Y-98928999D01*
X54943405Y-98929004D01*
X55003353Y-99002051D01*
X55030666Y-99066359D01*
X55031500Y-99080715D01*
X55031500Y-99454872D01*
X55011815Y-99521911D01*
X54959011Y-99567666D01*
X54889853Y-99577610D01*
X54826297Y-99548585D01*
X54811647Y-99533537D01*
X54724568Y-99427431D01*
X54571005Y-99301405D01*
X54570998Y-99301401D01*
X54395808Y-99207760D01*
X54300752Y-99178925D01*
X54205701Y-99150092D01*
X54205699Y-99150091D01*
X54205701Y-99150091D01*
X54008000Y-99130620D01*
X53810300Y-99150091D01*
X53620191Y-99207760D01*
X53445001Y-99301401D01*
X53444994Y-99301405D01*
X53291431Y-99427431D01*
X53165405Y-99580994D01*
X53165401Y-99581001D01*
X53071759Y-99756194D01*
X53055590Y-99809496D01*
X53017293Y-99867934D01*
X52953480Y-99896391D01*
X52936930Y-99897500D01*
X49289862Y-99897500D01*
X49222823Y-99877815D01*
X49188287Y-99844623D01*
X49166045Y-99812858D01*
X49005141Y-99651954D01*
X48818734Y-99521432D01*
X48818728Y-99521429D01*
X48760725Y-99494382D01*
X48708285Y-99448210D01*
X48689133Y-99381017D01*
X48709348Y-99314135D01*
X48760725Y-99269618D01*
X48818734Y-99242568D01*
X49005139Y-99112047D01*
X49166047Y-98951139D01*
X49296568Y-98764734D01*
X49392739Y-98558496D01*
X49451635Y-98338692D01*
X49471468Y-98112000D01*
X49469453Y-98088974D01*
X49465801Y-98047230D01*
X49451635Y-97885308D01*
X49392739Y-97665504D01*
X49296568Y-97459266D01*
X49166047Y-97272861D01*
X49166045Y-97272858D01*
X49005141Y-97111954D01*
X48818734Y-96981432D01*
X48818728Y-96981429D01*
X48760725Y-96954382D01*
X48708285Y-96908210D01*
X48689133Y-96841017D01*
X48709348Y-96774135D01*
X48760725Y-96729618D01*
X48818734Y-96702568D01*
X49005139Y-96572047D01*
X49166047Y-96411139D01*
X49296568Y-96224734D01*
X49392739Y-96018496D01*
X49451635Y-95798692D01*
X49471468Y-95572000D01*
X49451635Y-95345308D01*
X49392739Y-95125504D01*
X49296568Y-94919266D01*
X49166047Y-94732861D01*
X49166045Y-94732858D01*
X49005141Y-94571954D01*
X48818734Y-94441432D01*
X48818728Y-94441429D01*
X48760725Y-94414382D01*
X48708285Y-94368210D01*
X48689133Y-94301017D01*
X48709348Y-94234135D01*
X48760725Y-94189618D01*
X48818734Y-94162568D01*
X49005139Y-94032047D01*
X49166047Y-93871139D01*
X49296568Y-93684734D01*
X49392739Y-93478496D01*
X49451635Y-93258692D01*
X49471468Y-93032000D01*
X49451635Y-92805308D01*
X49392739Y-92585504D01*
X49296568Y-92379266D01*
X49166047Y-92192861D01*
X49166045Y-92192858D01*
X49005141Y-92031954D01*
X48818734Y-91901432D01*
X48818732Y-91901431D01*
X48612497Y-91805261D01*
X48612488Y-91805258D01*
X48392697Y-91746366D01*
X48392693Y-91746365D01*
X48392692Y-91746365D01*
X48392691Y-91746364D01*
X48392686Y-91746364D01*
X48166002Y-91726532D01*
X48165998Y-91726532D01*
X47939313Y-91746364D01*
X47939302Y-91746366D01*
X47719511Y-91805258D01*
X47719502Y-91805261D01*
X47513267Y-91901431D01*
X47513265Y-91901432D01*
X47326858Y-92031954D01*
X47165954Y-92192858D01*
X47035432Y-92379265D01*
X47035431Y-92379267D01*
X46939261Y-92585502D01*
X46939258Y-92585511D01*
X46880366Y-92805302D01*
X46880364Y-92805313D01*
X46860532Y-93031998D01*
X46860532Y-93032001D01*
X46880364Y-93258686D01*
X46880366Y-93258697D01*
X46939258Y-93478488D01*
X46939261Y-93478497D01*
X47035431Y-93684732D01*
X47035432Y-93684734D01*
X47165954Y-93871141D01*
X47326858Y-94032045D01*
X47337364Y-94039401D01*
X47513266Y-94162568D01*
X47571275Y-94189618D01*
X47623714Y-94235791D01*
X47642866Y-94302984D01*
X47622650Y-94369865D01*
X47571275Y-94414382D01*
X47513267Y-94441431D01*
X47513265Y-94441432D01*
X47326858Y-94571954D01*
X47165954Y-94732858D01*
X47035432Y-94919265D01*
X47035431Y-94919267D01*
X46939261Y-95125502D01*
X46939258Y-95125511D01*
X46880366Y-95345302D01*
X46880364Y-95345313D01*
X46860532Y-95571998D01*
X46860532Y-95572001D01*
X46880364Y-95798686D01*
X46880366Y-95798697D01*
X46939258Y-96018488D01*
X46939261Y-96018497D01*
X47035431Y-96224732D01*
X47035432Y-96224734D01*
X47165954Y-96411141D01*
X47326858Y-96572045D01*
X47373693Y-96604839D01*
X47513266Y-96702568D01*
X47548925Y-96719196D01*
X47571275Y-96729618D01*
X47623714Y-96775791D01*
X47642866Y-96842984D01*
X47622650Y-96909865D01*
X47571275Y-96954382D01*
X47513267Y-96981431D01*
X47513265Y-96981432D01*
X47326858Y-97111954D01*
X47165954Y-97272858D01*
X47035432Y-97459265D01*
X47035431Y-97459267D01*
X46939261Y-97665502D01*
X46939258Y-97665511D01*
X46880366Y-97885302D01*
X46880364Y-97885313D01*
X46860532Y-98111998D01*
X46860532Y-98112001D01*
X46880364Y-98338686D01*
X46880366Y-98338697D01*
X46939258Y-98558488D01*
X46939261Y-98558497D01*
X47035431Y-98764732D01*
X47035432Y-98764734D01*
X47165954Y-98951141D01*
X47326858Y-99112045D01*
X47372601Y-99144074D01*
X47513266Y-99242568D01*
X47571275Y-99269618D01*
X47623714Y-99315791D01*
X47642866Y-99382984D01*
X47622650Y-99449865D01*
X47571275Y-99494382D01*
X47513267Y-99521431D01*
X47513265Y-99521432D01*
X47326858Y-99651954D01*
X47165954Y-99812858D01*
X47035432Y-99999265D01*
X47035431Y-99999267D01*
X46939261Y-100205502D01*
X46939258Y-100205511D01*
X46880366Y-100425302D01*
X46880364Y-100425313D01*
X46860532Y-100651998D01*
X46860532Y-100652001D01*
X46880364Y-100878686D01*
X46880366Y-100878697D01*
X46939258Y-101098488D01*
X46939261Y-101098497D01*
X47035431Y-101304732D01*
X47035432Y-101304734D01*
X47165954Y-101491141D01*
X47326858Y-101652045D01*
X47373693Y-101684839D01*
X47513266Y-101782568D01*
X47554460Y-101801777D01*
X47571275Y-101809618D01*
X47623714Y-101855791D01*
X47642866Y-101922984D01*
X47622650Y-101989865D01*
X47571275Y-102034382D01*
X47513267Y-102061431D01*
X47513265Y-102061432D01*
X47326858Y-102191954D01*
X47165954Y-102352858D01*
X47035432Y-102539265D01*
X47035431Y-102539267D01*
X46939261Y-102745502D01*
X46939258Y-102745511D01*
X46880366Y-102965302D01*
X46880364Y-102965313D01*
X46860532Y-103191998D01*
X46860532Y-103192001D01*
X46880364Y-103418686D01*
X46880366Y-103418697D01*
X46939258Y-103638488D01*
X46939261Y-103638497D01*
X47035431Y-103844732D01*
X47035432Y-103844734D01*
X47165954Y-104031141D01*
X47326858Y-104192045D01*
X47358686Y-104214331D01*
X47513266Y-104322568D01*
X47571275Y-104349618D01*
X47623714Y-104395791D01*
X47642866Y-104462984D01*
X47622650Y-104529865D01*
X47571275Y-104574382D01*
X47513267Y-104601431D01*
X47513265Y-104601432D01*
X47326858Y-104731954D01*
X47165954Y-104892858D01*
X47035432Y-105079265D01*
X47035431Y-105079267D01*
X46939261Y-105285502D01*
X46939258Y-105285511D01*
X46880366Y-105505302D01*
X46880364Y-105505313D01*
X46860532Y-105731998D01*
X46860532Y-105732001D01*
X46880364Y-105958686D01*
X46880366Y-105958697D01*
X46939258Y-106178488D01*
X46939261Y-106178497D01*
X47035431Y-106384732D01*
X47035432Y-106384734D01*
X47165954Y-106571141D01*
X47326858Y-106732045D01*
X47326861Y-106732047D01*
X47513266Y-106862568D01*
X47571865Y-106889893D01*
X47624305Y-106936065D01*
X47643457Y-107003258D01*
X47623242Y-107070139D01*
X47571867Y-107114657D01*
X47513515Y-107141867D01*
X47327179Y-107272342D01*
X47166342Y-107433179D01*
X47035865Y-107619517D01*
X46939734Y-107825673D01*
X46939730Y-107825682D01*
X46887127Y-108021999D01*
X46887128Y-108022000D01*
X47732988Y-108022000D01*
X47700075Y-108079007D01*
X47666000Y-108206174D01*
X47666000Y-108337826D01*
X47700075Y-108464993D01*
X47732988Y-108522000D01*
X46887128Y-108522000D01*
X46939730Y-108718317D01*
X46939734Y-108718326D01*
X47035865Y-108924482D01*
X47166342Y-109110820D01*
X47327179Y-109271657D01*
X47513518Y-109402134D01*
X47513520Y-109402135D01*
X47571865Y-109429342D01*
X47624305Y-109475514D01*
X47643457Y-109542707D01*
X47623242Y-109609589D01*
X47571867Y-109654105D01*
X47513268Y-109681431D01*
X47513264Y-109681433D01*
X47326858Y-109811954D01*
X47165954Y-109972858D01*
X47035432Y-110159265D01*
X47035431Y-110159267D01*
X46939261Y-110365502D01*
X46939258Y-110365511D01*
X46880366Y-110585302D01*
X46880364Y-110585313D01*
X46860532Y-110811998D01*
X46860532Y-110812001D01*
X46880364Y-111038686D01*
X46880366Y-111038697D01*
X46939258Y-111258488D01*
X46939261Y-111258497D01*
X47035431Y-111464732D01*
X47035432Y-111464734D01*
X47165954Y-111651141D01*
X47326858Y-111812045D01*
X47326861Y-111812047D01*
X47513266Y-111942568D01*
X47542082Y-111956005D01*
X47571275Y-111969618D01*
X47623714Y-112015791D01*
X47642866Y-112082984D01*
X47622650Y-112149865D01*
X47571275Y-112194382D01*
X47513267Y-112221431D01*
X47513265Y-112221432D01*
X47326858Y-112351954D01*
X47165956Y-112512856D01*
X47136053Y-112555563D01*
X47081476Y-112599187D01*
X47058670Y-112606056D01*
X46955925Y-112626493D01*
X46955919Y-112626495D01*
X46818608Y-112683371D01*
X46695035Y-112765939D01*
X46695034Y-112765940D01*
X46657231Y-112803744D01*
X46589941Y-112871034D01*
X46589939Y-112871036D01*
X45641943Y-113819030D01*
X45641942Y-113819031D01*
X45559372Y-113942607D01*
X45559366Y-113942617D01*
X45539708Y-113990080D01*
X45539708Y-113990081D01*
X45502496Y-114079917D01*
X45502493Y-114079926D01*
X45498916Y-114097911D01*
X45473499Y-114225685D01*
X42750500Y-114225685D01*
X42750500Y-71191998D01*
X46860532Y-71191998D01*
X46860532Y-71192001D01*
X46880364Y-71418686D01*
X46880366Y-71418697D01*
X46939258Y-71638488D01*
X46939261Y-71638497D01*
X47035431Y-71844732D01*
X47035432Y-71844734D01*
X47165954Y-72031141D01*
X47326858Y-72192045D01*
X47326861Y-72192047D01*
X47513266Y-72322568D01*
X47571275Y-72349618D01*
X47623714Y-72395791D01*
X47642866Y-72462984D01*
X47622650Y-72529865D01*
X47571275Y-72574382D01*
X47513267Y-72601431D01*
X47513265Y-72601432D01*
X47326858Y-72731954D01*
X47165954Y-72892858D01*
X47035432Y-73079265D01*
X47035431Y-73079267D01*
X46939261Y-73285502D01*
X46939258Y-73285511D01*
X46880366Y-73505302D01*
X46880364Y-73505313D01*
X46860532Y-73731998D01*
X46860532Y-73732001D01*
X46880364Y-73958686D01*
X46880366Y-73958697D01*
X46939258Y-74178488D01*
X46939261Y-74178497D01*
X47035431Y-74384732D01*
X47035432Y-74384734D01*
X47165954Y-74571141D01*
X47326858Y-74732045D01*
X47337268Y-74739334D01*
X47513266Y-74862568D01*
X47571275Y-74889618D01*
X47623714Y-74935791D01*
X47642866Y-75002984D01*
X47622650Y-75069865D01*
X47571275Y-75114382D01*
X47513267Y-75141431D01*
X47513265Y-75141432D01*
X47326858Y-75271954D01*
X47165954Y-75432858D01*
X47035432Y-75619265D01*
X47035431Y-75619267D01*
X46939261Y-75825502D01*
X46939258Y-75825511D01*
X46880366Y-76045302D01*
X46880364Y-76045313D01*
X46860532Y-76271998D01*
X46860532Y-76272001D01*
X46880364Y-76498686D01*
X46880366Y-76498697D01*
X46939258Y-76718488D01*
X46939261Y-76718497D01*
X47035431Y-76924732D01*
X47035432Y-76924734D01*
X47165954Y-77111141D01*
X47326858Y-77272045D01*
X47326861Y-77272047D01*
X47513266Y-77402568D01*
X47571275Y-77429618D01*
X47623714Y-77475791D01*
X47642866Y-77542984D01*
X47622650Y-77609865D01*
X47571275Y-77654382D01*
X47513267Y-77681431D01*
X47513265Y-77681432D01*
X47326858Y-77811954D01*
X47165954Y-77972858D01*
X47035432Y-78159265D01*
X47035431Y-78159267D01*
X46939261Y-78365502D01*
X46939258Y-78365511D01*
X46880366Y-78585302D01*
X46880364Y-78585313D01*
X46860532Y-78811998D01*
X46860532Y-78812001D01*
X46880364Y-79038686D01*
X46880366Y-79038697D01*
X46939258Y-79258488D01*
X46939261Y-79258497D01*
X47035431Y-79464732D01*
X47035432Y-79464734D01*
X47165954Y-79651141D01*
X47326858Y-79812045D01*
X47326861Y-79812047D01*
X47513266Y-79942568D01*
X47571275Y-79969618D01*
X47623714Y-80015791D01*
X47642866Y-80082984D01*
X47622650Y-80149865D01*
X47571275Y-80194381D01*
X47554272Y-80202310D01*
X47513267Y-80221431D01*
X47513265Y-80221432D01*
X47326858Y-80351954D01*
X47165954Y-80512858D01*
X47035432Y-80699265D01*
X47035431Y-80699267D01*
X46939261Y-80905502D01*
X46939258Y-80905511D01*
X46880366Y-81125302D01*
X46880364Y-81125313D01*
X46860532Y-81351998D01*
X46860532Y-81352001D01*
X46880364Y-81578686D01*
X46880366Y-81578697D01*
X46939258Y-81798488D01*
X46939261Y-81798497D01*
X47035431Y-82004732D01*
X47035432Y-82004734D01*
X47165954Y-82191141D01*
X47326858Y-82352045D01*
X47326861Y-82352047D01*
X47513266Y-82482568D01*
X47571275Y-82509618D01*
X47623714Y-82555791D01*
X47642866Y-82622984D01*
X47622650Y-82689865D01*
X47571275Y-82734382D01*
X47513267Y-82761431D01*
X47513265Y-82761432D01*
X47326858Y-82891954D01*
X47165954Y-83052858D01*
X47035432Y-83239265D01*
X47035431Y-83239267D01*
X46939261Y-83445502D01*
X46939258Y-83445511D01*
X46880366Y-83665302D01*
X46880364Y-83665313D01*
X46860532Y-83891998D01*
X46860532Y-83892001D01*
X46880364Y-84118686D01*
X46880366Y-84118697D01*
X46939258Y-84338488D01*
X46939261Y-84338497D01*
X47035431Y-84544732D01*
X47035432Y-84544734D01*
X47165954Y-84731141D01*
X47326858Y-84892045D01*
X47326861Y-84892047D01*
X47513266Y-85022568D01*
X47571275Y-85049618D01*
X47623714Y-85095791D01*
X47642866Y-85162984D01*
X47622650Y-85229865D01*
X47571275Y-85274382D01*
X47513267Y-85301431D01*
X47513265Y-85301432D01*
X47326858Y-85431954D01*
X47165954Y-85592858D01*
X47035432Y-85779265D01*
X47035431Y-85779267D01*
X46939261Y-85985502D01*
X46939258Y-85985511D01*
X46880366Y-86205302D01*
X46880364Y-86205313D01*
X46860532Y-86431998D01*
X46860532Y-86432001D01*
X46880364Y-86658686D01*
X46880366Y-86658697D01*
X46939258Y-86878488D01*
X46939261Y-86878497D01*
X47035431Y-87084732D01*
X47035432Y-87084734D01*
X47165954Y-87271141D01*
X47326858Y-87432045D01*
X47373693Y-87464839D01*
X47513266Y-87562568D01*
X47571275Y-87589618D01*
X47623714Y-87635791D01*
X47642866Y-87702984D01*
X47622650Y-87769865D01*
X47571275Y-87814382D01*
X47513267Y-87841431D01*
X47513265Y-87841432D01*
X47326858Y-87971954D01*
X47165954Y-88132858D01*
X47035432Y-88319265D01*
X47035431Y-88319267D01*
X46939261Y-88525502D01*
X46939258Y-88525511D01*
X46880366Y-88745302D01*
X46880364Y-88745313D01*
X46860532Y-88971998D01*
X46860532Y-88972001D01*
X46880364Y-89198686D01*
X46880366Y-89198697D01*
X46939258Y-89418488D01*
X46939261Y-89418497D01*
X47035431Y-89624732D01*
X47035432Y-89624734D01*
X47165954Y-89811141D01*
X47326858Y-89972045D01*
X47326861Y-89972047D01*
X47513266Y-90102568D01*
X47719504Y-90198739D01*
X47939308Y-90257635D01*
X48101230Y-90271801D01*
X48165998Y-90277468D01*
X48166000Y-90277468D01*
X48166002Y-90277468D01*
X48222673Y-90272509D01*
X48392692Y-90257635D01*
X48612496Y-90198739D01*
X48818734Y-90102568D01*
X49005139Y-89972047D01*
X49166047Y-89811139D01*
X49296568Y-89624734D01*
X49392739Y-89418496D01*
X49451635Y-89198692D01*
X49468634Y-89004384D01*
X49471468Y-88972001D01*
X49471468Y-88971998D01*
X49454343Y-88776265D01*
X49451635Y-88745308D01*
X49392739Y-88525504D01*
X49296568Y-88319266D01*
X49166047Y-88132861D01*
X49166045Y-88132858D01*
X49005141Y-87971954D01*
X48818734Y-87841432D01*
X48818728Y-87841429D01*
X48760725Y-87814382D01*
X48708285Y-87768210D01*
X48689133Y-87701017D01*
X48709348Y-87634135D01*
X48760725Y-87589618D01*
X48818734Y-87562568D01*
X49005139Y-87432047D01*
X49166047Y-87271139D01*
X49296568Y-87084734D01*
X49392739Y-86878496D01*
X49451635Y-86658692D01*
X49470024Y-86448500D01*
X49471468Y-86432001D01*
X49471468Y-86431998D01*
X49464265Y-86349669D01*
X49451635Y-86205308D01*
X49392739Y-85985504D01*
X49296568Y-85779266D01*
X49169224Y-85597398D01*
X49166045Y-85592858D01*
X49005141Y-85431954D01*
X48818734Y-85301432D01*
X48818728Y-85301429D01*
X48760725Y-85274382D01*
X48708285Y-85228210D01*
X48689133Y-85161017D01*
X48709348Y-85094135D01*
X48760725Y-85049618D01*
X48818734Y-85022568D01*
X49005139Y-84892047D01*
X49166047Y-84731139D01*
X49296568Y-84544734D01*
X49392739Y-84338496D01*
X49451635Y-84118692D01*
X49468634Y-83924384D01*
X49471468Y-83892001D01*
X49471468Y-83891998D01*
X49454784Y-83701306D01*
X49451635Y-83665308D01*
X49392739Y-83445504D01*
X49296568Y-83239266D01*
X49169224Y-83057398D01*
X49166045Y-83052858D01*
X49005141Y-82891954D01*
X48818734Y-82761432D01*
X48818728Y-82761429D01*
X48760725Y-82734382D01*
X48708285Y-82688210D01*
X48689133Y-82621017D01*
X48709348Y-82554135D01*
X48760725Y-82509618D01*
X48818734Y-82482568D01*
X49005139Y-82352047D01*
X49166047Y-82191139D01*
X49296568Y-82004734D01*
X49392739Y-81798496D01*
X49451635Y-81578692D01*
X49468634Y-81384384D01*
X49471468Y-81352001D01*
X49471468Y-81351998D01*
X49465344Y-81282000D01*
X49451635Y-81125308D01*
X49392739Y-80905504D01*
X49296568Y-80699266D01*
X49169224Y-80517398D01*
X49166045Y-80512858D01*
X49005141Y-80351954D01*
X48818734Y-80221432D01*
X48818728Y-80221429D01*
X48791038Y-80208517D01*
X48760724Y-80194381D01*
X48708285Y-80148210D01*
X48689133Y-80081017D01*
X48709348Y-80014135D01*
X48760725Y-79969618D01*
X48818734Y-79942568D01*
X49005139Y-79812047D01*
X49166047Y-79651139D01*
X49188287Y-79619377D01*
X49242863Y-79575752D01*
X49289862Y-79566500D01*
X50774554Y-79566500D01*
X50774574Y-79566501D01*
X50780688Y-79566501D01*
X50929314Y-79566501D01*
X51050894Y-79542315D01*
X51050894Y-79542316D01*
X51050900Y-79542313D01*
X51075080Y-79537505D01*
X51158573Y-79502921D01*
X51212389Y-79480630D01*
X51335966Y-79398059D01*
X52814963Y-77919060D01*
X52814966Y-77919059D01*
X52920059Y-77813966D01*
X53002629Y-77690390D01*
X53002630Y-77690389D01*
X53002633Y-77690385D01*
X53059503Y-77553083D01*
X53059505Y-77553079D01*
X53088501Y-77407312D01*
X53088501Y-77258688D01*
X53088501Y-77253578D01*
X53088500Y-77253552D01*
X53088500Y-76778446D01*
X53088501Y-76778425D01*
X53088501Y-76618578D01*
X53088500Y-76618552D01*
X53088500Y-74268499D01*
X53108185Y-74201460D01*
X53160989Y-74155705D01*
X53212500Y-74144499D01*
X53381871Y-74144499D01*
X53381872Y-74144499D01*
X53441483Y-74138091D01*
X53576331Y-74087796D01*
X53691546Y-74001546D01*
X53777796Y-73886331D01*
X53828091Y-73751483D01*
X53834500Y-73691873D01*
X53834499Y-71596128D01*
X53828091Y-71536517D01*
X53802922Y-71469036D01*
X53777797Y-71401671D01*
X53777793Y-71401664D01*
X53691547Y-71286455D01*
X53691544Y-71286452D01*
X53576335Y-71200206D01*
X53576328Y-71200202D01*
X53441482Y-71149908D01*
X53441483Y-71149908D01*
X53381883Y-71143501D01*
X53381881Y-71143500D01*
X53381873Y-71143500D01*
X53381864Y-71143500D01*
X51286129Y-71143500D01*
X51286123Y-71143501D01*
X51226516Y-71149908D01*
X51091671Y-71200202D01*
X51091664Y-71200206D01*
X50976455Y-71286452D01*
X50976452Y-71286455D01*
X50890206Y-71401664D01*
X50890202Y-71401671D01*
X50839908Y-71536517D01*
X50833501Y-71596116D01*
X50833501Y-71596123D01*
X50833500Y-71596135D01*
X50833500Y-73691870D01*
X50833501Y-73691876D01*
X50839908Y-73751483D01*
X50890202Y-73886328D01*
X50890206Y-73886335D01*
X50976452Y-74001544D01*
X50976455Y-74001547D01*
X51091664Y-74087793D01*
X51091671Y-74087797D01*
X51132656Y-74103083D01*
X51226517Y-74138091D01*
X51286127Y-74144500D01*
X51455500Y-74144499D01*
X51522539Y-74164183D01*
X51568294Y-74216987D01*
X51579500Y-74268499D01*
X51579500Y-76571198D01*
X51577117Y-76595391D01*
X51569499Y-76633686D01*
X51569499Y-76782311D01*
X51577117Y-76820606D01*
X51579500Y-76844800D01*
X51579500Y-76969113D01*
X51559815Y-77036152D01*
X51543181Y-77056794D01*
X50578794Y-78021181D01*
X50517471Y-78054666D01*
X50491113Y-78057500D01*
X49289862Y-78057500D01*
X49222823Y-78037815D01*
X49188287Y-78004623D01*
X49166045Y-77972858D01*
X49005141Y-77811954D01*
X48818734Y-77681432D01*
X48818728Y-77681429D01*
X48760725Y-77654382D01*
X48708285Y-77608210D01*
X48689133Y-77541017D01*
X48709348Y-77474135D01*
X48760725Y-77429618D01*
X48818734Y-77402568D01*
X49005139Y-77272047D01*
X49166047Y-77111139D01*
X49296568Y-76924734D01*
X49392739Y-76718496D01*
X49451635Y-76498692D01*
X49471468Y-76272000D01*
X49469724Y-76252071D01*
X49463898Y-76185470D01*
X49451635Y-76045308D01*
X49392739Y-75825504D01*
X49296568Y-75619266D01*
X49166047Y-75432861D01*
X49166045Y-75432858D01*
X49005141Y-75271954D01*
X48818734Y-75141432D01*
X48818728Y-75141429D01*
X48760725Y-75114382D01*
X48708285Y-75068210D01*
X48689133Y-75001017D01*
X48709348Y-74934135D01*
X48760725Y-74889618D01*
X48818734Y-74862568D01*
X49005139Y-74732047D01*
X49166047Y-74571139D01*
X49296568Y-74384734D01*
X49392739Y-74178496D01*
X49451635Y-73958692D01*
X49471468Y-73732000D01*
X49451635Y-73505308D01*
X49392739Y-73285504D01*
X49296568Y-73079266D01*
X49166047Y-72892861D01*
X49166045Y-72892858D01*
X49005141Y-72731954D01*
X48818734Y-72601432D01*
X48818728Y-72601429D01*
X48760725Y-72574382D01*
X48708285Y-72528210D01*
X48689133Y-72461017D01*
X48709348Y-72394135D01*
X48760725Y-72349618D01*
X48818734Y-72322568D01*
X49005139Y-72192047D01*
X49166047Y-72031139D01*
X49296568Y-71844734D01*
X49392739Y-71638496D01*
X49451635Y-71418692D01*
X49471468Y-71192000D01*
X49451635Y-70965308D01*
X49392739Y-70745504D01*
X49296568Y-70539266D01*
X49166047Y-70352861D01*
X49166045Y-70352858D01*
X49005141Y-70191954D01*
X48818734Y-70061432D01*
X48818732Y-70061431D01*
X48612497Y-69965261D01*
X48612488Y-69965258D01*
X48392697Y-69906366D01*
X48392693Y-69906365D01*
X48392692Y-69906365D01*
X48392691Y-69906364D01*
X48392686Y-69906364D01*
X48166002Y-69886532D01*
X48165998Y-69886532D01*
X47939313Y-69906364D01*
X47939302Y-69906366D01*
X47719511Y-69965258D01*
X47719502Y-69965261D01*
X47513267Y-70061431D01*
X47513265Y-70061432D01*
X47326858Y-70191954D01*
X47165954Y-70352858D01*
X47035432Y-70539265D01*
X47035431Y-70539267D01*
X46939261Y-70745502D01*
X46939258Y-70745511D01*
X46880366Y-70965302D01*
X46880364Y-70965313D01*
X46860532Y-71191998D01*
X42750500Y-71191998D01*
X42750500Y-64374500D01*
X42770185Y-64307461D01*
X42822989Y-64261706D01*
X42874500Y-64250500D01*
X102125500Y-64250500D01*
X102192539Y-64270185D01*
G37*
%TD.AperFunction*%
%TD*%
M02*
