%TF.GenerationSoftware,KiCad,Pcbnew,8.0.6*%
%TF.CreationDate,2025-01-14T16:55:08+01:00*%
%TF.ProjectId,Receptor Laser,52656365-7074-46f7-9220-4c617365722e,rev?*%
%TF.SameCoordinates,Original*%
%TF.FileFunction,Legend,Bot*%
%TF.FilePolarity,Positive*%
%FSLAX46Y46*%
G04 Gerber Fmt 4.6, Leading zero omitted, Abs format (unit mm)*
G04 Created by KiCad (PCBNEW 8.0.6) date 2025-01-14 16:55:08*
%MOMM*%
%LPD*%
G01*
G04 APERTURE LIST*
%ADD10C,0.150000*%
%ADD11C,0.120000*%
G04 APERTURE END LIST*
D10*
X99690819Y-103672476D02*
X100500342Y-103672476D01*
X100500342Y-103672476D02*
X100595580Y-103720095D01*
X100595580Y-103720095D02*
X100643200Y-103767714D01*
X100643200Y-103767714D02*
X100690819Y-103862952D01*
X100690819Y-103862952D02*
X100690819Y-104053428D01*
X100690819Y-104053428D02*
X100643200Y-104148666D01*
X100643200Y-104148666D02*
X100595580Y-104196285D01*
X100595580Y-104196285D02*
X100500342Y-104243904D01*
X100500342Y-104243904D02*
X99690819Y-104243904D01*
X100690819Y-104720095D02*
X99690819Y-104720095D01*
X99690819Y-104720095D02*
X100690819Y-105291523D01*
X100690819Y-105291523D02*
X99690819Y-105291523D01*
X99690819Y-105958190D02*
X99690819Y-106148666D01*
X99690819Y-106148666D02*
X99738438Y-106243904D01*
X99738438Y-106243904D02*
X99833676Y-106339142D01*
X99833676Y-106339142D02*
X100024152Y-106386761D01*
X100024152Y-106386761D02*
X100357485Y-106386761D01*
X100357485Y-106386761D02*
X100547961Y-106339142D01*
X100547961Y-106339142D02*
X100643200Y-106243904D01*
X100643200Y-106243904D02*
X100690819Y-106148666D01*
X100690819Y-106148666D02*
X100690819Y-105958190D01*
X100690819Y-105958190D02*
X100643200Y-105862952D01*
X100643200Y-105862952D02*
X100547961Y-105767714D01*
X100547961Y-105767714D02*
X100357485Y-105720095D01*
X100357485Y-105720095D02*
X100024152Y-105720095D01*
X100024152Y-105720095D02*
X99833676Y-105767714D01*
X99833676Y-105767714D02*
X99738438Y-105862952D01*
X99738438Y-105862952D02*
X99690819Y-105958190D01*
X100690819Y-107339142D02*
X100690819Y-106767714D01*
X100690819Y-107053428D02*
X99690819Y-107053428D01*
X99690819Y-107053428D02*
X99833676Y-106958190D01*
X99833676Y-106958190D02*
X99928914Y-106862952D01*
X99928914Y-106862952D02*
X99976533Y-106767714D01*
D11*
%TO.C,UNO1*%
X45496000Y-70172000D02*
X45496000Y-134822000D01*
X45496000Y-134822000D02*
X55026000Y-134822000D01*
X47146000Y-68522000D02*
X45496000Y-70172000D01*
X55026000Y-134822000D02*
X55026000Y-141172000D01*
X55026000Y-141172000D02*
X66706000Y-141172000D01*
X58576000Y-68522000D02*
X47146000Y-68522000D01*
X61116000Y-65982000D02*
X58576000Y-68522000D01*
X66706000Y-134822000D02*
X86776000Y-134822000D01*
X66706000Y-141172000D02*
X66706000Y-134822000D01*
X86776000Y-134822000D02*
X86776000Y-136722000D01*
X86776000Y-136722000D02*
X95916000Y-136722000D01*
X93886000Y-65982000D02*
X61116000Y-65982000D01*
X95916000Y-134822000D02*
X99096000Y-134822000D01*
X95916000Y-136722000D02*
X95916000Y-134822000D01*
X96426000Y-68522000D02*
X93886000Y-65982000D01*
X99096000Y-68522000D02*
X96426000Y-68522000D01*
X99096000Y-134822000D02*
X99096000Y-68522000D01*
%TD*%
M02*
