M48
; DRILL file {KiCad 8.0.6} date 2025-01-14T16:55:00+0100
; FORMAT={-:-/ absolute / metric / decimal}
; #@! TF.CreationDate,2025-01-14T16:55:00+01:00
; #@! TF.GenerationSoftware,Kicad,Pcbnew,8.0.6
; #@! TF.FileFunction,Plated,1,2,PTH
FMAT,2
METRIC
; #@! TA.AperFunction,Plated,PTH,ViaDrill
T1C0.508
; #@! TA.AperFunction,Plated,PTH,ComponentDrill
T2C1.000
%
G90
G05
T1
X54.008Y-100.144
X54.008Y-102.43
X54.008Y-104.716
X55.786Y-82.364
X55.786Y-98.366
X55.786Y-111.393
X56.802Y-83.634
X56.802Y-99.636
X56.802Y-113.86
X57.818Y-84.904
X57.818Y-100.906
X60.091Y-82.364
X60.104Y-81.107
X60.104Y-84.917
X60.104Y-97.107
X60.104Y-98.366
X60.104Y-99.636
X60.104Y-100.906
X60.104Y-113.107
X60.104Y-114.368
X60.104Y-115.638
X60.117Y-83.647
X67.564Y-92.202
X67.564Y-108.204
X67.564Y-123.19
X78.232Y-91.186
X78.232Y-107.188
X78.232Y-122.174
X85.758Y-82.618
X85.758Y-83.888
X85.758Y-85.158
X85.758Y-86.457
X85.758Y-98.647
X85.758Y-99.917
X85.758Y-101.187
X85.758Y-102.457
X85.758Y-118.402
X88.017Y-98.647
X88.044Y-82.618
X89.033Y-99.917
X89.06Y-83.888
X90.049Y-101.187
X90.076Y-85.158
T2
X48.166Y-71.192
X48.166Y-73.732
X48.166Y-76.272
X48.166Y-78.812
X48.166Y-81.352
X48.166Y-83.892
X48.166Y-86.432
X48.166Y-88.972
X48.166Y-93.032
X48.166Y-95.572
X48.166Y-98.112
X48.166Y-100.652
X48.166Y-103.192
X48.166Y-105.732
X48.166Y-108.272
X48.166Y-110.812
X48.166Y-113.352
X48.166Y-115.892
X51.054Y-118.364
X52.334Y-72.644
X53.594Y-118.364
X56.134Y-118.364
X58.674Y-118.364
X59.934Y-72.644
X96.426Y-71.192
X96.426Y-73.732
X96.426Y-76.272
X96.426Y-78.812
X96.426Y-81.352
X96.426Y-83.892
X96.426Y-88.972
X96.426Y-91.512
X96.426Y-94.052
X96.426Y-96.592
X96.426Y-99.132
X96.426Y-101.672
X96.426Y-104.212
X96.426Y-106.752
M30
